<svg xmlns="http://www.w3.org/2000/svg" version="1.1" xmlns:xlink="http://www.w3.org/1999/xlink" xmlns:svgjs="http://svgjs.dev/svgjs" viewBox="0 0 800 800"><rect width="100%" height="100%" fill=""></rect><g fill="#353535"><rect width="226" height="1" x="371" y="769.5" rx="0.5" transform="rotate(48, 484, 770)" opacity="0.76"></rect><rect width="363" height="1" x="123.5" y="115.5" rx="0.5" transform="rotate(48, 305, 116)" opacity="0.23"></rect><rect width="376" height="1" x="280" y="331.5" rx="0.5" transform="rotate(48, 468, 332)" opacity="0.22"></rect><rect width="438" height="1" x="541" y="265.5" rx="0.5" transform="rotate(48, 760, 266)" opacity="0.51"></rect><rect width="192" height="1" x="379" y="143.5" rx="0.5" transform="rotate(48, 475, 144)" opacity="0.55"></rect><rect width="310" height="1" x="373" y="45.5" rx="0.5" transform="rotate(48, 528, 46)" opacity="0.22"></rect><rect width="599" height="1" x="20.5" y="435.5" rx="0.5" transform="rotate(48, 320, 436)" opacity="0.97"></rect><rect width="213" height="1" x="-69.5" y="152.5" rx="0.5" transform="rotate(48, 37, 153)" opacity="0.09"></rect><rect width="204" height="1" x="237" y="509.5" rx="0.5" transform="rotate(48, 339, 510)" opacity="0.91"></rect><rect width="253" height="1" x="506.5" y="706.5" rx="0.5" transform="rotate(48, 633, 707)" opacity="0.84"></rect><rect width="258" height="1" x="-31" y="102.5" rx="0.5" transform="rotate(48, 98, 103)" opacity="0.86"></rect><rect width="91" height="1" x="-12.5" y="380.5" rx="0.5" transform="rotate(48, 33, 381)" opacity="0.24"></rect><rect width="45" height="1" x="750.5" y="25.5" rx="0.5" transform="rotate(48, 773, 26)" opacity="0.98"></rect><rect width="220" height="1" x="77" y="59.5" rx="0.5" transform="rotate(48, 187, 60)" opacity="0.99"></rect><rect width="365" height="1" x="451.5" y="190.5" rx="0.5" transform="rotate(48, 634, 191)" opacity="0.20"></rect><rect width="602" height="1" x="-255" y="470.5" rx="0.5" transform="rotate(48, 46, 471)" opacity="0.96"></rect><rect width="561" height="1" x="-247.5" y="584.5" rx="0.5" transform="rotate(48, 33, 585)" opacity="0.29"></rect><rect width="29" height="1" x="691.5" y="100.5" rx="0.5" transform="rotate(48, 706, 101)" opacity="0.45"></rect><rect width="137" height="1" x="637.5" y="155.5" rx="0.5" transform="rotate(48, 706, 156)" opacity="0.67"></rect><rect width="320" height="1" x="339" y="692.5" rx="0.5" transform="rotate(48, 499, 693)" opacity="0.83"></rect><rect width="327" height="1" x="389.5" y="313.5" rx="0.5" transform="rotate(48, 553, 314)" opacity="0.11"></rect><rect width="397" height="1" x="115.5" y="36.5" rx="0.5" transform="rotate(48, 314, 37)" opacity="0.16"></rect><rect width="475" height="1" x="-124.5" y="169.5" rx="0.5" transform="rotate(48, 113, 170)" opacity="0.48"></rect><rect width="331" height="1" x="456.5" y="24.5" rx="0.5" transform="rotate(48, 622, 25)" opacity="0.58"></rect><rect width="347" height="1" x="335.5" y="229.5" rx="0.5" transform="rotate(48, 509, 230)" opacity="0.58"></rect><rect width="238" height="1" x="471" y="83.5" rx="0.5" transform="rotate(48, 590, 84)" opacity="0.66"></rect><rect width="230" height="1" x="290" y="659.5" rx="0.5" transform="rotate(48, 405, 660)" opacity="0.64"></rect><rect width="61" height="1" x="150.5" y="172.5" rx="0.5" transform="rotate(48, 181, 173)" opacity="0.65"></rect><rect width="396" height="1" x="171" y="353.5" rx="0.5" transform="rotate(48, 369, 354)" opacity="0.09"></rect><rect width="179" height="1" x="544.5" y="649.5" rx="0.5" transform="rotate(48, 634, 650)" opacity="0.76"></rect><rect width="380" height="1" x="-64" y="697.5" rx="0.5" transform="rotate(48, 126, 698)" opacity="0.71"></rect><rect width="34" height="1" x="731" y="103.5" rx="0.5" transform="rotate(48, 748, 104)" opacity="0.73"></rect><rect width="129" height="1" x="-12.5" y="674.5" rx="0.5" transform="rotate(48, 52, 675)" opacity="0.81"></rect><rect width="138" height="1" x="703" y="167.5" rx="0.5" transform="rotate(48, 772, 168)" opacity="0.56"></rect><rect width="204" height="1" x="605" y="15.5" rx="0.5" transform="rotate(48, 707, 16)" opacity="0.55"></rect><rect width="382" height="1" x="-70" y="45.5" rx="0.5" transform="rotate(48, 121, 46)" opacity="0.50"></rect><rect width="168" height="1" x="323" y="422.5" rx="0.5" transform="rotate(48, 407, 423)" opacity="0.33"></rect><rect width="330" height="1" x="70" y="95.5" rx="0.5" transform="rotate(48, 235, 96)" opacity="0.79"></rect><rect width="306" height="1" x="-15" y="238.5" rx="0.5" transform="rotate(48, 138, 239)" opacity="0.86"></rect><rect width="599" height="1" x="32.5" y="286.5" rx="0.5" transform="rotate(48, 332, 287)" opacity="0.17"></rect><rect width="133" height="1" x="271.5" y="719.5" rx="0.5" transform="rotate(48, 338, 720)" opacity="0.47"></rect><rect width="284" height="1" x="-36" y="393.5" rx="0.5" transform="rotate(48, 106, 394)" opacity="0.65"></rect><rect width="401" height="1" x="287.5" y="428.5" rx="0.5" transform="rotate(48, 488, 429)" opacity="0.22"></rect><rect width="560" height="1" x="-42" y="278.5" rx="0.5" transform="rotate(48, 238, 279)" opacity="0.12"></rect><rect width="403" height="1" x="40.5" y="171.5" rx="0.5" transform="rotate(48, 242, 172)" opacity="0.54"></rect><rect width="169" height="1" x="371.5" y="607.5" rx="0.5" transform="rotate(48, 456, 608)" opacity="0.62"></rect><rect width="475" height="1" x="338.5" y="374.5" rx="0.5" transform="rotate(48, 576, 375)" opacity="0.43"></rect><rect width="95" height="1" x="423.5" y="526.5" rx="0.5" transform="rotate(48, 471, 527)" opacity="1.00"></rect><rect width="209" height="1" x="673.5" y="80.5" rx="0.5" transform="rotate(48, 778, 81)" opacity="0.90"></rect><rect width="372" height="1" x="-88" y="532.5" rx="0.5" transform="rotate(48, 98, 533)" opacity="0.54"></rect><rect width="124" height="1" x="-35" y="302.5" rx="0.5" transform="rotate(48, 27, 303)" opacity="0.79"></rect><rect width="277" height="1" x="87.5" y="653.5" rx="0.5" transform="rotate(48, 226, 654)" opacity="0.57"></rect><rect width="54" height="1" x="64" y="307.5" rx="0.5" transform="rotate(48, 91, 308)" opacity="0.62"></rect><rect width="261" height="1" x="-112.5" y="702.5" rx="0.5" transform="rotate(48, 18, 703)" opacity="0.20"></rect><rect width="232" height="1" x="85" y="513.5" rx="0.5" transform="rotate(48, 201, 514)" opacity="0.73"></rect><rect width="58" height="1" x="293" y="205.5" rx="0.5" transform="rotate(48, 322, 206)" opacity="0.09"></rect><rect width="130" height="1" x="181" y="478.5" rx="0.5" transform="rotate(48, 246, 479)" opacity="0.95"></rect><rect width="22" height="1" x="699" y="52.5" rx="0.5" transform="rotate(48, 710, 53)" opacity="0.15"></rect><rect width="539" height="1" x="-100.5" y="331.5" rx="0.5" transform="rotate(48, 169, 332)" opacity="0.96"></rect><rect width="443" height="1" x="26.5" y="34.5" rx="0.5" transform="rotate(48, 248, 35)" opacity="0.17"></rect><rect width="55" height="1" x="398.5" y="239.5" rx="0.5" transform="rotate(48, 426, 240)" opacity="0.73"></rect><rect width="689" height="1" x="392.5" y="433.5" rx="0.5" transform="rotate(48, 737, 434)" opacity="0.81"></rect><rect width="240" height="1" x="-78" y="233.5" rx="0.5" transform="rotate(48, 42, 234)" opacity="0.14"></rect><rect width="314" height="1" x="-119" y="765.5" rx="0.5" transform="rotate(48, 38, 766)" opacity="0.58"></rect><rect width="238" height="1" x="241" y="592.5" rx="0.5" transform="rotate(48, 360, 593)" opacity="0.95"></rect><rect width="558" height="1" x="-83" y="745.5" rx="0.5" transform="rotate(48, 196, 746)" opacity="0.73"></rect><rect width="368" height="1" x="198" y="29.5" rx="0.5" transform="rotate(48, 382, 30)" opacity="0.29"></rect><rect width="595" height="1" x="313.5" y="437.5" rx="0.5" transform="rotate(48, 611, 438)" opacity="0.34"></rect><rect width="197" height="1" x="324.5" y="726.5" rx="0.5" transform="rotate(48, 423, 727)" opacity="0.12"></rect><rect width="450" height="1" x="154" y="147.5" rx="0.5" transform="rotate(48, 379, 148)" opacity="0.91"></rect><rect width="695" height="1" x="-306.5" y="46.5" rx="0.5" transform="rotate(48, 41, 47)" opacity="0.45"></rect><rect width="290" height="1" x="25" y="570.5" rx="0.5" transform="rotate(48, 170, 571)" opacity="0.12"></rect><rect width="132" height="1" x="498" y="156.5" rx="0.5" transform="rotate(48, 564, 157)" opacity="0.40"></rect><rect width="551" height="1" x="264.5" y="583.5" rx="0.5" transform="rotate(48, 540, 584)" opacity="0.13"></rect><rect width="33" height="1" x="151.5" y="17.5" rx="0.5" transform="rotate(48, 168, 18)" opacity="0.85"></rect><rect width="320" height="1" x="240" y="545.5" rx="0.5" transform="rotate(48, 400, 546)" opacity="0.29"></rect><rect width="33" height="1" x="269.5" y="515.5" rx="0.5" transform="rotate(48, 286, 516)" opacity="0.72"></rect><rect width="567" height="1" x="373.5" y="522.5" rx="0.5" transform="rotate(48, 657, 523)" opacity="0.35"></rect><rect width="359" height="1" x="219.5" y="482.5" rx="0.5" transform="rotate(48, 399, 483)" opacity="0.75"></rect><rect width="278" height="1" x="628" y="647.5" rx="0.5" transform="rotate(48, 767, 648)" opacity="0.91"></rect><rect width="504" height="1" x="326" y="250.5" rx="0.5" transform="rotate(48, 578, 251)" opacity="0.51"></rect><rect width="496" height="1" x="-134" y="767.5" rx="0.5" transform="rotate(48, 114, 768)" opacity="0.65"></rect><rect width="250" height="1" x="126" y="577.5" rx="0.5" transform="rotate(48, 251, 578)" opacity="0.63"></rect><rect width="314" height="1" x="159" y="652.5" rx="0.5" transform="rotate(48, 316, 653)" opacity="0.49"></rect><rect width="424" height="1" x="404" y="592.5" rx="0.5" transform="rotate(48, 616, 593)" opacity="0.84"></rect><rect width="239" height="1" x="439.5" y="664.5" rx="0.5" transform="rotate(48, 559, 665)" opacity="0.39"></rect><rect width="364" height="1" x="70" y="390.5" rx="0.5" transform="rotate(48, 252, 391)" opacity="0.08"></rect><rect width="63" height="1" x="275.5" y="570.5" rx="0.5" transform="rotate(48, 307, 571)" opacity="0.13"></rect><rect width="451" height="1" x="420.5" y="302.5" rx="0.5" transform="rotate(48, 646, 303)" opacity="0.73"></rect><rect width="408" height="1" x="-32" y="106.5" rx="0.5" transform="rotate(48, 172, 107)" opacity="0.12"></rect><rect width="40" height="1" x="96" y="626.5" rx="0.5" transform="rotate(48, 116, 627)" opacity="0.18"></rect><rect width="334" height="1" x="421" y="762.5" rx="0.5" transform="rotate(48, 588, 763)" opacity="0.20"></rect><rect width="289" height="1" x="626.5" y="742.5" rx="0.5" transform="rotate(48, 771, 743)" opacity="0.73"></rect><rect width="76" height="1" x="669" y="775.5" rx="0.5" transform="rotate(48, 707, 776)" opacity="0.22"></rect><rect width="353" height="1" x="283.5" y="45.5" rx="0.5" transform="rotate(48, 460, 46)" opacity="0.29"></rect><rect width="383" height="1" x="83.5" y="753.5" rx="0.5" transform="rotate(48, 275, 754)" opacity="0.18"></rect><rect width="690" height="1" x="411" y="533.5" rx="0.5" transform="rotate(48, 756, 534)" opacity="0.36"></rect><rect width="170" height="1" x="619" y="617.5" rx="0.5" transform="rotate(48, 704, 618)" opacity="0.68"></rect><rect width="155" height="1" x="326.5" y="88.5" rx="0.5" transform="rotate(48, 404, 89)" opacity="0.22"></rect><rect width="125" height="1" x="592.5" y="97.5" rx="0.5" transform="rotate(48, 655, 98)" opacity="0.70"></rect><rect width="84" height="1" x="653" y="714.5" rx="0.5" transform="rotate(48, 695, 715)" opacity="0.67"></rect><rect width="433" height="1" x="506.5" y="350.5" rx="0.5" transform="rotate(48, 723, 351)" opacity="0.85"></rect><rect width="314" height="1" x="395" y="503.5" rx="0.5" transform="rotate(48, 552, 504)" opacity="0.22"></rect><rect width="228" height="1" x="48" y="443.5" rx="0.5" transform="rotate(48, 162, 444)" opacity="0.87"></rect><rect width="513" height="1" x="438.5" y="224.5" rx="0.5" transform="rotate(48, 695, 225)" opacity="0.33"></rect><rect width="368" height="1" x="190" y="773.5" rx="0.5" transform="rotate(48, 374, 774)" opacity="0.78"></rect></g></svg>