<svg xmlns="http://www.w3.org/2000/svg" version="1.1" xmlns:xlink="http://www.w3.org/1999/xlink" xmlns:svgjs="http://svgjs.dev/svgjs" viewBox="0 0 800 800" opacity="1"><defs><symbol id="bbburst-shape-4" viewBox="0 0 149 143"><path d="M71.647 2.781c.898-2.764 4.808-2.764 5.706 0l15.445 47.534a3 3 0 0 0 2.853 2.073h49.98c2.906 0 4.115 3.719 1.764 5.427L106.96 87.193a2.999 2.999 0 0 0-1.09 3.354l15.445 47.534c.898 2.764-2.266 5.062-4.617 3.354l-40.435-29.378a3 3 0 0 0-3.526 0l-40.435 29.378c-2.351 1.708-5.515-.59-4.617-3.354L43.13 90.547a3 3 0 0 0-1.09-3.354L1.605 57.815c-2.35-1.708-1.142-5.427 1.764-5.427h49.98a3 3 0 0 0 2.853-2.073L71.647 2.781Z"></path></symbol><symbol id="bbburst-shape-5" viewBox="0 0 145 145"><circle cx="72.5" cy="72.5" r="72.5"></circle></symbol><symbol id="bbburst-shape-6" viewBox="0 0 133 116"><path d="M59.7487 10.2513c-13.6683-13.66839-35.8291-13.66839-49.4974 0-13.66839 13.6683-13.66839 35.8291 0 49.4974l49.4974-49.4974ZM66.5 66.5 41.7513 91.2487 66.5 115.997l24.7487-24.7483L66.5 66.5Zm56.249-6.7513c13.668-13.6683 13.668-35.8291 0-49.4974-13.669-13.66839-35.8294-13.66839-49.4977 0l49.4977 49.4974Zm-112.4977 0 31.5 31.5 49.4974-49.4974-31.5-31.5-49.4974 49.4974Zm80.9974 31.5 31.5003-31.5-49.4977-49.4974-31.5 31.5 49.4974 49.4974Z"></path></symbol><symbol id="bbburst-shape-7" viewBox="0 0 139 124"><path fill-rule="evenodd" clip-rule="evenodd" d="M70.1641 15.0917C54.6093.764854 37.8293-2.10782 24.4032 2.82615 10.3804 7.97941.763366 21.4591 1.00047 37.0608c.1068 7.0273 2.86132 13.7317 7.0039 20.2001C12.1442 63.7249 17.853 70.2322 24.25 76.9024c3.8209 3.9842 7.8871 8.0312 12.0767 12.201h.0001c10.0335 9.9862 20.7748 20.6766 30.5497 32.8956 1.38 1.725 3.8972 2.005 5.6223.624.6706-.536 1.1228-1.244 1.3439-2.011 9.5768-11.748 20.0328-22.0735 29.8163-31.7351 4.19-4.1373 8.256-8.1528 12.078-12.1062 6.396-6.6176 12.106-13.0752 16.247-19.4911 4.144-6.4196 6.905-13.0811 7.012-20.0691.237-15.5124-9.399-28.8902-23.411-33.99923-13.32-4.85681-29.9542-2.08621-45.4209 11.88043Zm-3.7351 7.4919C52.1278 8.44857 37.6826 6.46918 27.1626 10.3352 16.2859 14.3323 8.8148 24.7824 8.99955 36.9392c.07575 4.9844 2.03755 10.2234 5.74165 16.0072 3.707 5.7881 8.9752 11.8418 15.2827 18.4187 3.5798 3.7328 7.4978 7.6329 11.6 11.7163 9.0476 9.0063 18.9911 18.9046 28.1786 29.8666 9.2999-11.068 19.4036-21.0473 28.5839-30.1144l.0007-.0006c4.1019-4.0508 8.0189-7.9196 11.5979-11.6222 6.307-6.5252 11.573-12.5298 15.278-18.2697 3.703-5.7362 5.658-10.924 5.734-15.8531.184-12.0276-7.267-22.3914-18.153-26.3608-10.71-3.90518-25.4722-1.80041-40.0023 12.867-1.5547 1.5694-4.0874 1.5813-5.6568.0265-.3146-.3116-.5666-.6625-.7559-1.0371Z"></path></symbol><symbol id="bbburst-shape-10" viewBox="0 0 145 145"><circle cx="72.5" cy="72.5" r="61.5" fill="none" stroke-width="22"></circle></symbol><symbol id="bbburst-shape-12" viewBox="0 0 170 151"><path d="M69.3728 54.2122 85 10.0031l15.627 44.2091c1.413 3.9958 5.19 6.6672 9.428 6.6673h49.312l-39.149 26.1447c-3.803 2.5401-5.399 7.3367-3.875 11.6488l15.179 42.94-40.9683-27.36c-3.3621-2.245-7.7453-2.245-11.1074 0l-40.9682 27.36 15.1785-42.94c1.5243-4.3121-.0712-9.1087-3.8746-11.6488L10.6333 60.8795h49.3112c4.2381-.0001 8.0159-2.6715 9.4283-6.6673Z" stroke-width="12"></path></symbol></defs><use xlink:href="#bbburst-shape-6" width="14.070824679801529" opacity="0.8532152340789112" transform="matrix(0.9124382460400253,-0.40921442687593784,0.40921442687593784,0.9124382460400253,260.21084813007167,-20.781444719033004)" fill="#262626"></use><use xlink:href="#bbburst-shape-10" width="18.492814049638554" opacity="0.7656269788781893" transform="matrix(0.9772983555496694,0.21186770457035678,-0.21186770457035678,0.9772983555496694,530.6196576566292,-82.92536140837899)" fill="none" stroke="#262626"></use><use xlink:href="#bbburst-shape-12" width="31.289811941698687" opacity="0.31291234626842457" transform="matrix(0.9901442698892434,0.14005115067537655,-0.14005115067537655,0.9901442698892434,243.7080953798236,-236.7503974377501)" fill="none" stroke="#262626"></use><use xlink:href="#bbburst-shape-4" width="12.63903147064688" opacity="0.8685478933901739" transform="matrix(0.9383604596416738,0.3456582818059864,-0.3456582818059864,0.9383604596416738,516.5163043075949,79.4828695115591)" fill="#262626"></use><use xlink:href="#bbburst-shape-7" width="14.126861702315368" opacity="0.864291151118485" transform="matrix(0.8737655638375296,0.4863473444480642,-0.4863473444480642,0.8737655638375296,536.959058945202,80.05922249431728)" fill="#262626"></use><use xlink:href="#bbburst-shape-10" width="12.998374229537932" opacity="0.928748717540425" transform="matrix(0.9382024249446005,-0.34608699748483945,0.34608699748483945,0.9382024249446005,286.7054131479541,34.19624364955018)" fill="none" stroke="#262626"></use><use xlink:href="#bbburst-shape-10" width="43.657183972843626" opacity="0.21026661263323576" transform="matrix(0.952551031085542,-0.30437893024628165,0.30437893024628165,0.952551031085542,327.0715722785392,-322.8709763803904)" fill="none" stroke="#262626"></use><use xlink:href="#bbburst-shape-6" width="26.151050479467084" opacity="0.6250603819120428" transform="matrix(0.9976329862481728,-0.06876354229933952,0.06876354229933952,0.9976329862481728,219.29146951139424,-92.08446232831841)" fill="#262626"></use><use xlink:href="#bbburst-shape-7" width="30.28022831927708" opacity="0.5994261504406824" transform="matrix(0.9699517153467838,0.24329749258023955,-0.24329749258023955,0.9699517153467838,316.90878500053844,79.4496695214674)" fill="#262626"></use><use xlink:href="#bbburst-shape-10" width="28.30897687642121" opacity="0.3377285495708844" transform="matrix(0.8137637384362822,-0.5811958172648923,0.5811958172648923,0.8137637384362822,451.1188867483179,124.2417801440842)" fill="none" stroke="#262626"></use><use xlink:href="#bbburst-shape-7" width="30.38386722244821" opacity="0.15414526353588487" transform="matrix(0.8071619158986478,-0.5903301123293848,0.5903301123293848,0.8071619158986478,-218.4800298394119,-3.220299418490299)" fill="#262626"></use><use xlink:href="#bbburst-shape-6" width="23.888421224613996" opacity="0.1838514784944406" transform="matrix(0.9030391825850383,-0.42955818548381275,0.42955818548381275,0.9030391825850383,187.7258187282753,-322.15151471826675)" fill="#262626"></use><use xlink:href="#bbburst-shape-7" width="11.98355328288477" opacity="0.8810621506806484" transform="matrix(0.8147945227470711,0.5797498475216468,-0.5797498475216468,0.8147945227470711,625.4765911235976,17.079569260391224)" fill="#262626"></use><use xlink:href="#bbburst-shape-12" width="41.28579781045747" opacity="0.21223381735386126" transform="matrix(0.998720386883492,0.050572609417432295,-0.050572609417432295,0.998720386883492,752.1084413899326,-38.23457517003595)" fill="none" stroke="#262626"></use><use xlink:href="#bbburst-shape-4" width="36.804613958517066" opacity="0.24296158754264952" transform="matrix(0.8808536317533971,-0.47338871915884373,0.47338871915884373,0.8808536317533971,499.5917744205093,207.8689906513644)" fill="#262626"></use><use xlink:href="#bbburst-shape-4" width="20.46444377428799" opacity="0.7380239264755031" transform="matrix(0.8204340081008016,-0.5717412337339802,0.5717412337339802,0.8204340081008016,75.33858930278498,-1.222688176253996)" fill="#262626"></use><use xlink:href="#bbburst-shape-12" width="22.326316999829658" opacity="0.6766467334188153" transform="matrix(0.9989984606533113,0.04474455958342165,-0.04474455958342165,0.9989984606533113,459.5394790582464,-135.73385026738043)" fill="none" stroke="#262626"></use><use xlink:href="#bbburst-shape-10" width="9.571654782308025" opacity="0.9269247474500992" transform="matrix(0.872931916123394,0.48784205416624316,-0.48784205416624316,0.872931916123394,566.257095570449,70.19869046486969)" fill="none" stroke="#262626"></use><use xlink:href="#bbburst-shape-5" width="34.34829482106996" opacity="-0.07497932612268432" transform="matrix(0.8108928683883098,-0.585194630868209,0.585194630868209,0.8108928683883098,-182.52929165620344,435.1183922852026)" fill="#262626"></use><use xlink:href="#bbburst-shape-7" width="27.447438118743186" opacity="0.2834360629022331" transform="matrix(0.8059453666619342,0.5919899204852735,-0.5919899204852735,0.8059453666619342,762.1656201087962,361.56734649382844)" fill="#262626"></use><use xlink:href="#bbburst-shape-10" width="18.71198168481587" opacity="0.702329481413284" transform="matrix(0.997702157399205,0.06775252852087577,-0.06775252852087577,0.997702157399205,331.1605210187973,102.47363919491568)" fill="none" stroke="#262626"></use><use xlink:href="#bbburst-shape-5" width="34.80907219370192" opacity="0.10890447722285146" transform="matrix(0.9578013718535515,0.2874309170486966,-0.2874309170486966,0.9578013718535515,729.6501087099332,-315.6495704769524)" fill="#262626"></use><use xlink:href="#bbburst-shape-12" width="31.307325115720612" opacity="0.15346062361970292" transform="matrix(0.7484974637098977,0.6631376529951006,-0.6631376529951006,0.7484974637098977,1008.7523165304408,-47.543071071239524)" fill="none" stroke="#262626"></use><use xlink:href="#bbburst-shape-7" width="41.70255162370174" opacity="0.3125696925452073" transform="matrix(0.995671032597381,0.0929472691716383,-0.0929472691716383,0.995671032597381,231.3254961211759,247.7354704792716)" fill="#262626"></use><use xlink:href="#bbburst-shape-12" width="30.736400821448562" opacity="0.5724072669907276" transform="matrix(0.9223142414474695,0.38644073287268627,-0.38644073287268627,0.9223142414474695,600.1396636640302,207.99977424284873)" fill="none" stroke="#262626"></use><use xlink:href="#bbburst-shape-7" width="32.380888058826024" opacity="0.19251172966019647" transform="matrix(0.8314416148028102,0.5556121319536638,-0.5556121319536638,0.8314416148028102,883.9849401093015,-178.82031271551605)" fill="#262626"></use><use xlink:href="#bbburst-shape-6" width="13.44482916389589" opacity="0.8146559482884927" transform="matrix(0.729281231636256,0.6842140638594807,-0.6842140638594807,0.729281231636256,733.5710383457899,51.16306963401905)" fill="#262626"></use><use xlink:href="#bbburst-shape-12" width="24.109476669330064" opacity="0.6126498293653968" transform="matrix(0.9985336150218271,-0.05413519808259221,0.05413519808259221,0.9985336150218271,303.0169606634338,163.60723073243992)" fill="none" stroke="#262626"></use><use xlink:href="#bbburst-shape-12" width="29.36150995600793" opacity="0.3664275349329713" transform="matrix(0.8231266838034245,-0.5678577836138,0.5678577836138,0.8231266838034245,349.91196227752266,-134.26815162817053)" fill="none" stroke="#262626"></use><use xlink:href="#bbburst-shape-4" width="26.959594562006316" opacity="0.48503359363678655" transform="matrix(0.9985332641378388,-0.05414166981386034,0.05414166981386034,0.9985332641378388,171.29610319248928,-126.0347010988479)" fill="#262626"></use><use xlink:href="#bbburst-shape-7" width="27.35946519377155" opacity="0.5012053197753521" transform="matrix(0.8667327019423181,0.4987729176526817,-0.4987729176526817,0.8667327019423181,767.0746699561796,-88.33198373547947)" fill="#262626"></use><use xlink:href="#bbburst-shape-6" width="16.761139441432523" opacity="0.8347986177102684" transform="matrix(0.9511007461487488,-0.30888083572033614,0.30888083572033614,0.9511007461487488,194.6429173520319,30.812358373710026)" fill="#262626"></use><use xlink:href="#bbburst-shape-10" width="16.323204975226407" opacity="0.8742791330597847" transform="matrix(0.9420519113643373,0.33546713146715096,-0.33546713146715096,0.9420519113643373,474.5548145740854,-1.9762599181498786)" fill="none" stroke="#262626"></use><use xlink:href="#bbburst-shape-5" width="39.18725042760187" opacity="0.3319840957729856" transform="matrix(0.910863398017159,0.41270797200034137,-0.41270797200034137,0.910863398017159,465.2920925639235,-261.6546376641232)" fill="#262626"></use><use xlink:href="#bbburst-shape-7" width="24.781709385745405" opacity="0.6003744939210933" transform="matrix(0.9194302761771431,-0.3932530575199922,0.3932530575199922,0.9194302761771431,247.23615568491675,-141.98892104920967)" fill="#262626"></use><use xlink:href="#bbburst-shape-5" width="25.118522709614762" opacity="0.16780251113351752" transform="matrix(0.9210157679856844,-0.389525294585268,0.389525294585268,0.9210157679856844,599.2449796175156,112.83993746131017)" fill="#262626"></use><use xlink:href="#bbburst-shape-12" width="21.46301526011981" opacity="0.8067870184590066" transform="matrix(0.9300816404885149,-0.3673528848752828,0.3673528848752828,0.9300816404885149,297.2895741778662,99.83738556959639)" fill="none" stroke="#262626"></use><use xlink:href="#bbburst-shape-10" width="38.31721843575601" opacity="0.046475591172576824" transform="matrix(0.8403209766305745,0.5420891589347988,-0.5420891589347988,0.8403209766305745,237.8319174899464,-175.4577366123493)" fill="none" stroke="#262626"></use><use xlink:href="#bbburst-shape-10" width="33.60267832114202" opacity="0.16082140381981924" transform="matrix(0.9873542661486696,0.15852934465903185,-0.15852934465903185,0.9873542661486696,701.3593998559239,281.3497074650405)" fill="none" stroke="#262626"></use><use xlink:href="#bbburst-shape-10" width="24.944218103758374" opacity="0.09086480653184326" transform="matrix(0.9518027344361143,0.3067108650177488,-0.3067108650177488,0.9518027344361143,700.1233057893093,378.12894127934965)" fill="none" stroke="#262626"></use><use xlink:href="#bbburst-shape-5" width="17.433144607917285" opacity="0.6024904839017331" transform="matrix(0.9999838119325417,-0.005689980040660565,0.005689980040660565,0.9999838119325417,339.3577723945523,-171.79471901327207)" fill="#262626"></use><use xlink:href="#bbburst-shape-7" width="20.313782964574894" opacity="0.6045511201547151" transform="matrix(0.9919642578690259,-0.12651842201969143,0.12651842201969143,0.9919642578690259,239.76196922672443,-143.04532192259347)" fill="#262626"></use><use xlink:href="#bbburst-shape-10" width="29.51049045260499" opacity="0.5618024848095962" transform="matrix(0.9997979004419973,0.02010368801424066,-0.02010368801424066,0.9997979004419973,386.7684621174019,196.86524144820618)" fill="none" stroke="#262626"></use><use xlink:href="#bbburst-shape-12" width="18.488508774612587" opacity="0.7095617103506485" transform="matrix(0.9796588936955453,-0.20067000773214821,0.20067000773214821,0.9796588936955453,251.25490991001925,-106.45322174196065)" fill="none" stroke="#262626"></use><use xlink:href="#bbburst-shape-6" width="26.23868368190797" opacity="0.45342171136001597" transform="matrix(0.907560892077315,-0.4199205010139754,0.4199205010139754,0.907560892077315,263.3822776430526,-199.64155731556374)" fill="#262626"></use><use xlink:href="#bbburst-shape-6" width="18.53666045896281" opacity="0.7103864665873355" transform="matrix(0.7130986665055205,-0.7010636860001012,0.7010636860001012,0.7130986665055205,166.8471452724919,239.9244958929438)" fill="#262626"></use><use xlink:href="#bbburst-shape-6" width="25.70582898569815" opacity="0.5413551715812206" transform="matrix(0.9721295130961523,0.2344444705414014,-0.2344444705414014,0.9721295130961523,646.8480816674728,131.36307484534575)" fill="#262626"></use><use xlink:href="#bbburst-shape-12" width="15.626605280871479" opacity="0.6858052784667652" transform="matrix(0.9889388237032104,-0.14832397976224396,0.14832397976224396,0.9889388237032104,464.49748584011843,57.35218391328192)" fill="none" stroke="#262626"></use><use xlink:href="#bbburst-shape-12" width="33.30865996168181" opacity="0.44462803252646055" transform="matrix(0.9507543821601813,0.3099453255063091,-0.3099453255063091,0.9507543821601813,639.6656733044679,227.00103240167033)" fill="none" stroke="#262626"></use><use xlink:href="#bbburst-shape-7" width="44.89330549008974" opacity="0.2049053935221259" transform="matrix(0.8012455960814222,0.5983356037878128,-0.5983356037878128,0.8012455960814222,668.8609811656387,420.5708130330613)" fill="#262626"></use><use xlink:href="#bbburst-shape-6" width="22.160191192421482" opacity="0.7567775635773689" transform="matrix(0.9946735147206611,0.10307569603571273,-0.10307569603571273,0.9946735147206611,395.2067602783065,104.69100404426877)" fill="#262626"></use><use xlink:href="#bbburst-shape-12" width="37.542017705558536" opacity="0.12603593225280418" transform="matrix(0.7079493945580013,0.7062631625286422,-0.7062631625286422,0.7079493945580013,402.82577477154507,-185.76475266897165)" fill="none" stroke="#262626"></use><use xlink:href="#bbburst-shape-12" width="20.757274798008382" opacity="0.6186094313382511" transform="matrix(0.9136876428623987,0.4064171395014657,-0.4064171395014657,0.9136876428623987,724.3518123693646,18.959925807119305)" fill="none" stroke="#262626"></use><use xlink:href="#bbburst-shape-7" width="17.267951425404746" opacity="0.7867620884797538" transform="matrix(0.9019757202924567,0.43178675292660845,-0.43178675292660845,0.9019757202924567,474.8997298492107,2.0965100593322745)" fill="#262626"></use><use xlink:href="#bbburst-shape-5" width="14.000090414052869" opacity="0.7248874485640515" transform="matrix(0.7113141667591923,0.702874210771512,-0.702874210771512,0.7113141667591923,799.9511250693895,108.33029272249905)" fill="#262626"></use><use xlink:href="#bbburst-shape-7" width="16.518153198226205" opacity="0.8382174982150485" transform="matrix(0.9440031013637573,0.32993657665619286,-0.32993657665619286,0.9440031013637573,478.32249667499286,-36.940439104341294)" fill="#262626"></use><use xlink:href="#bbburst-shape-6" width="39.103342466445255" opacity="0.33027223663895766" transform="matrix(0.8500928733141377,0.5266328006690366,-0.5266328006690366,0.8500928733141377,858.9064500696056,-94.10396922401094)" fill="#262626"></use><use xlink:href="#bbburst-shape-12" width="31.53142644685478" opacity="0.49479364269411785" transform="matrix(0.9931223800284888,-0.11708090487585841,0.11708090487585841,0.9931223800284888,182.75202870596917,-162.0032726011406)" fill="none" stroke="#262626"></use><use xlink:href="#bbburst-shape-7" width="20.155718430761276" opacity="0.5284474016191205" transform="matrix(0.8372807188714513,0.5467732599589209,-0.5467732599589209,0.8372807188714513,809.7054045018765,-12.79771349643886)" fill="#262626"></use><use xlink:href="#bbburst-shape-12" width="32.91658998583444" opacity="0.43188435588720775" transform="matrix(0.9944478505444908,0.10523056850289272,-0.10523056850289272,0.9944478505444908,306.32236879161593,-225.62216307134074)" fill="none" stroke="#262626"></use><use xlink:href="#bbburst-shape-7" width="21.414593245249456" opacity="0.6516414101226344" transform="matrix(0.9293433815678124,-0.369216574839353,0.369216574839353,0.9293433815678124,384.28521189521314,-34.1784419332709)" fill="#262626"></use><use xlink:href="#bbburst-shape-6" width="17.223855179806485" opacity="0.7933517877776353" transform="matrix(0.8419410532665564,-0.5395695162112122,0.5395695162112122,0.8419410532665564,189.61643752954453,-24.250612049602182)" fill="#262626"></use><use xlink:href="#bbburst-shape-7" width="34.19690666850353" opacity="0.030730889666347294" transform="matrix(0.9701606589137327,0.242462978403038,-0.242462978403038,0.9701606589137327,839.934826688503,-239.01812973794637)" fill="#262626"></use><use xlink:href="#bbburst-shape-10" width="28.163131939787515" opacity="0.176454112274546" transform="matrix(0.7801750052049917,-0.625561316941346,0.625561316941346,0.7801750052049917,5.960778790092149,-249.23466725766292)" fill="none" stroke="#262626"></use><use xlink:href="#bbburst-shape-7" width="28.428471847551442" opacity="0.4863793927522496" transform="matrix(0.8524181132239652,-0.5228607465164078,0.5228607465164078,0.8524181132239652,409.55971091609365,76.52402296671829)" fill="#262626"></use><use xlink:href="#bbburst-shape-10" width="41.08284779114361" opacity="0.35357705002315354" transform="matrix(0.9999999785951535,-0.00020690503267336717,0.00020690503267336717,0.9999999785951535,594.4635765032408,195.84714884675634)" fill="none" stroke="#262626"></use><use xlink:href="#bbburst-shape-10" width="10.633216186157616" opacity="0.941203865096149" transform="matrix(0.7761578768939528,-0.6305386190674379,0.6305386190674379,0.7761578768939528,117.45860900672204,89.19727299527796)" fill="none" stroke="#262626"></use><use xlink:href="#bbburst-shape-6" width="13.079750551142949" opacity="0.7864202425596503" transform="matrix(0.9169692981675451,-0.39895777498141294,0.39895777498141294,0.9169692981675451,323.3026280695176,72.3892571676285)" fill="#262626"></use><use xlink:href="#bbburst-shape-7" width="40.04755937764541" opacity="0.06384456212265954" transform="matrix(0.9639137629065204,-0.26621468344062543,0.26621468344062543,0.9639137629065204,630.644521515419,244.1201175745884)" fill="#262626"></use><use xlink:href="#bbburst-shape-4" width="10.70497847676479" opacity="0.9565094118650349" transform="matrix(0.9947815934714267,0.10202735559862976,-0.10202735559862976,0.9947815934714267,438.8101555316747,20.837211882631664)" fill="#262626"></use><use xlink:href="#bbburst-shape-12" width="21.0851300709176" opacity="0.5767424776189213" transform="matrix(0.9968339242515424,-0.07951180705574645,0.07951180705574645,0.9968339242515424,476.87532050825183,-146.4946701642577)" fill="none" stroke="#262626"></use><use xlink:href="#bbburst-shape-7" width="19.564148229506166" opacity="0.6935164671018547" transform="matrix(0.7377054548325752,-0.6751227013738046,0.6751227013738046,0.7377054548325752,124.8564892939122,249.4648920205097)" fill="#262626"></use><use xlink:href="#bbburst-shape-6" width="31.732998239113723" opacity="0.3439470308340513" transform="matrix(0.8470687610099866,-0.5314833149977581,0.5314833149977581,0.8470687610099866,176.1992360999592,-225.60982179106577)" fill="#262626"></use><use xlink:href="#bbburst-shape-6" width="36.62660086088445" opacity="0.21788199520078766" transform="matrix(0.8847471654693435,0.4660712962562296,-0.4660712962562296,0.8847471654693435,277.56420560515727,-157.93379545116105)" fill="#262626"></use><use xlink:href="#bbburst-shape-5" width="21.49841079277277" opacity="0.7033713595417515" transform="matrix(0.9928712894202811,-0.11919145374106423,0.11919145374106423,0.9928712894202811,441.59340620185924,92.61526704499636)" fill="#262626"></use><use xlink:href="#bbburst-shape-12" width="31.276487900470855" opacity="0.5907498569739345" transform="matrix(0.8171909621549007,-0.5763670110028398,0.5763670110028398,0.8171909621549007,-27.463391729081053,86.71611167608262)" fill="none" stroke="#262626"></use><use xlink:href="#bbburst-shape-6" width="28.30940743474727" opacity="0.4794555120519529" transform="matrix(0.8201501693239691,0.5721483197195153,-0.5721483197195153,0.8201501693239691,498.6174198759956,265.8242816226438)" fill="#262626"></use><use xlink:href="#bbburst-shape-12" width="16.166617640492255" opacity="0.7110136344280314" transform="matrix(0.9395328664270773,0.34245874627948936,-0.34245874627948936,0.9395328664270773,521.1689551294301,-108.3920549695639)" fill="none" stroke="#262626"></use><use xlink:href="#bbburst-shape-5" width="27.200924514621725" opacity="0.45816438369363177" transform="matrix(0.8836004815893395,0.4682415924873477,-0.4682415924873477,0.8836004815893395,337.5782917520464,94.49970209190349)" fill="#262626"></use><use xlink:href="#bbburst-shape-7" width="12.884721323413775" opacity="0.8130169615142139" transform="matrix(0.8244998482594034,0.5658621742263931,-0.5658621742263931,0.8244998482594034,705.0104865292685,61.86104309482619)" fill="#262626"></use><use xlink:href="#bbburst-shape-12" width="11.36601186169913" opacity="0.8698102055624289" transform="matrix(0.9078363764631175,0.41932459213635054,-0.41932459213635054,0.9078363764631175,619.1865135484155,19.368523623033695)" fill="none" stroke="#262626"></use><use xlink:href="#bbburst-shape-7" width="34.4049919697725" opacity="0.058741431136599465" transform="matrix(0.7642929631081478,0.6448691856053966,-0.6448691856053966,0.7642929631081478,422.84333558757544,-277.70660616289615)" fill="#262626"></use><use xlink:href="#bbburst-shape-7" width="30.58472592939846" opacity="0.28130233761657675" transform="matrix(0.7507709646820666,0.6605626076235008,-0.6605626076235008,0.7507709646820666,345.0851001512421,-10.435589174305676)" fill="#262626"></use><use xlink:href="#bbburst-shape-5" width="33.88506585988627" opacity="0.2816289862786543" transform="matrix(0.9878497665792437,0.1554118356796989,-0.1554118356796989,0.9878497665792437,326.2631591511493,302.72869067078364)" fill="#262626"></use><use xlink:href="#bbburst-shape-12" width="15.835378757691155" opacity="0.7268268776117791" transform="matrix(0.8045433558032311,0.5938939203535221,-0.5938939203535221,0.8045433558032311,508.67508273278975,83.34754390104393)" fill="none" stroke="#262626"></use><use xlink:href="#bbburst-shape-4" width="51.2518120672951" opacity="-0.07453805800181823" transform="matrix(0.9092503801997995,-0.4162496199475982,0.4162496199475982,0.9092503801997995,547.0864960601147,393.8999093260001)" fill="#262626"></use><use xlink:href="#bbburst-shape-12" width="40.19812348516287" opacity="0.3368610341687429" transform="matrix(0.9950497094459643,-0.09937844701695675,0.09937844701695675,0.9950497094459643,467.9455630546696,-265.80180186412167)" fill="none" stroke="#262626"></use><use xlink:href="#bbburst-shape-6" width="15.822734491621219" opacity="0.7571217129385812" transform="matrix(0.9918807692342475,0.12717130031291426,-0.12717130031291426,0.9918807692342475,542.918612132583,-42.09767235266162)" fill="#262626"></use><use xlink:href="#bbburst-shape-12" width="37.09930716777017" opacity="0.4272439554751636" transform="matrix(0.9493785278719243,0.31413438337077615,-0.31413438337077615,0.9493785278719243,301.19390840703346,168.0934944433045)" fill="none" stroke="#262626"></use><use xlink:href="#bbburst-shape-12" width="42.531153637237985" opacity="0.08982222612060609" transform="matrix(0.7909563515819406,0.6118725765158834,-0.6118725765158834,0.7909563515819406,418.4112020098012,422.4514065515537)" fill="none" stroke="#262626"></use><use xlink:href="#bbburst-shape-5" width="42.558889895897124" opacity="0.035745201377678004" transform="matrix(0.9930670810030992,-0.11754902223321141,0.11754902223321141,0.9930670810030992,-25.10117529835491,251.99073763206525)" fill="#262626"></use><use xlink:href="#bbburst-shape-5" width="27.35440191541484" opacity="0.5056845169079763" transform="matrix(0.9660230232581287,0.2584560282431516,-0.2584560282431516,0.9660230232581287,275.2565758170988,-47.326072367352594)" fill="#262626"></use><use xlink:href="#bbburst-shape-10" width="35.68975435663977" opacity="-0.09001281268644656" transform="matrix(0.7196515284893029,0.694335421495267,-0.694335421495267,0.7196515284893029,319.3977244135033,-248.4312954321103)" fill="none" stroke="#262626"></use><use xlink:href="#bbburst-shape-5" width="35.80087869822384" opacity="0.18152893509094625" transform="matrix(0.7570074618671238,-0.6534062309754133,0.6534062309754133,0.7570074618671238,57.610493581592834,470.9715395730977)" fill="#262626"></use><use xlink:href="#bbburst-shape-10" width="31.777246831028194" opacity="0.48602091155157123" transform="matrix(0.856117555382756,-0.5167811252023953,0.5167811252023953,0.856117555382756,140.88129449045616,-162.24837922952332)" fill="none" stroke="#262626"></use><use xlink:href="#bbburst-shape-7" width="28.075297327697843" opacity="0.5787339382303754" transform="matrix(0.8677522069352337,0.4969970898899021,-0.4969970898899021,0.8677522069352337,768.2651958531101,99.81610434040653)" fill="#262626"></use><use xlink:href="#bbburst-shape-6" width="36.793075044296245" opacity="0.40749818221175693" transform="matrix(0.9539033306468867,-0.30011403796019986,0.30011403796019986,0.9539033306468867,221.1065459094614,287.3679469136498)" fill="#262626"></use><use xlink:href="#bbburst-shape-6" width="19.96691139644807" opacity="0.5944306916607937" transform="matrix(0.8003430421848438,-0.5995423378096908,0.5995423378096908,0.8003430421848438,263.1629644558864,230.7421323330692)" fill="#262626"></use><use xlink:href="#bbburst-shape-6" width="14.648877872222652" opacity="0.8655286557288593" transform="matrix(0.816712257353606,-0.5770451357462234,0.5770451357462234,0.816712257353606,217.7638465681611,103.70491784679666)" fill="#262626"></use><use xlink:href="#bbburst-shape-6" width="18.97208759235692" opacity="0.6867401679904642" transform="matrix(0.8729486464722749,-0.4878121161084698,0.4878121161084698,0.8729486464722749,298.7680880129226,-41.67146529952265)" fill="#262626"></use><use xlink:href="#bbburst-shape-4" width="39.71432983653223" opacity="0.4081773882938171" transform="matrix(0.8173490932304057,-0.5761427425520811,0.5761427425520811,0.8173490932304057,198.92478917025633,346.9191870085748)" fill="#262626"></use><use xlink:href="#bbburst-shape-5" width="35.5140508321349" opacity="0.19826755063050971" transform="matrix(0.9833845905797257,0.18153442376129433,-0.18153442376129433,0.9833845905797257,186.29258976315626,243.9983256871633)" fill="#262626"></use><use xlink:href="#bbburst-shape-10" width="34.719733727608336" opacity="0.3915575048019935" transform="matrix(0.9846645682152856,-0.1744582703726171,0.1744582703726171,0.9846645682152856,580.6702915419196,-49.01311845565294)" fill="none" stroke="#262626"></use><use xlink:href="#bbburst-shape-12" width="15.273258152965838" opacity="0.7964438013674896" transform="matrix(0.869500076918137,0.49393280538890494,-0.49393280538890494,0.869500076918137,561.9736156532736,-38.49355294857446)" fill="none" stroke="#262626"></use><use xlink:href="#bbburst-shape-7" width="32.02224235262931" opacity="0.12315859472669688" transform="matrix(0.9495235459795138,0.313695769226316,-0.313695769226316,0.9495235459795138,667.5212938456342,-346.7244090964504)" fill="#262626"></use><use xlink:href="#bbburst-shape-10" width="44.66958888422513" opacity="-0.08045475451969364" transform="matrix(0.9999006701807779,-0.01409431701187646,0.01409431701187646,0.9999006701807779,708.1905421372418,-350.91579571536903)" fill="none" stroke="#262626"></use><use xlink:href="#bbburst-shape-10" width="20.66923400170167" opacity="0.3703553977181946" transform="matrix(0.7336989685766704,-0.6794746673052131,0.6794746673052131,0.7336989685766704,-127.19118106716468,-23.816241376813707)" fill="none" stroke="#262626"></use><use xlink:href="#bbburst-shape-7" width="18.144718978047734" opacity="0.6719301591329055" transform="matrix(0.9813351738753763,0.19230516507620146,-0.19230516507620146,0.9813351738753763,326.08331339992156,-35.12693981742564)" fill="#262626"></use><use xlink:href="#bbburst-shape-12" width="29.147297441225597" opacity="0.5848575997692492" transform="matrix(0.8675375322341008,-0.4973717223216118,0.4973717223216118,0.8675375322341008,52.712250835371975,188.6138054444316)" fill="none" stroke="#262626"></use><use xlink:href="#bbburst-shape-10" width="13.503752860424378" opacity="0.9675261234009249" transform="matrix(0.8305678427280795,-0.5569174612328331,0.5569174612328331,0.8305678427280795,177.8629567572007,58.318095713218895)" fill="none" stroke="#262626"></use><use xlink:href="#bbburst-shape-10" width="17.562732688081383" opacity="0.8039995151848652" transform="matrix(0.8162514051396458,-0.5776968440346145,0.5776968440346145,0.8162514051396458,174.15733737545474,165.89606951999968)" fill="none" stroke="#262626"></use><use xlink:href="#bbburst-shape-12" width="32.26117702602441" opacity="0.14480678757466536" transform="matrix(0.8635421841190103,-0.5042766068805584,0.5042766068805584,0.8635421841190103,-173.52790254108604,204.21871153310803)" fill="none" stroke="#262626"></use><use xlink:href="#bbburst-shape-5" width="34.86616307023657" opacity="0.429446433041931" transform="matrix(0.8048060597085844,0.5935378726385895,-0.5935378726385895,0.8048060597085844,858.7329861582585,170.35290132412888)" fill="#262626"></use><use xlink:href="#bbburst-shape-6" width="44.15251211161207" opacity="0.2086605304763054" transform="matrix(0.778549007883243,-0.6275838129875706,0.6275838129875706,0.778549007883243,-222.9615860688254,133.54900577612028)" fill="#262626"></use><use xlink:href="#bbburst-shape-10" width="34.64769459461871" opacity="0.37234807912244694" transform="matrix(0.9949827549847405,-0.10004657556846058,0.10004657556846058,0.9949827549847405,60.705286720880736,-11.365211189801073)" fill="none" stroke="#262626"></use><use xlink:href="#bbburst-shape-7" width="10.754873315995406" opacity="0.9184203556527346" transform="matrix(0.994969797644073,-0.10017535513344801,0.10017535513344801,0.994969797644073,335.7602466503334,-28.99218181730936)" fill="#262626"></use><use xlink:href="#bbburst-shape-12" width="24.606481609419056" opacity="0.5190199536984295" transform="matrix(0.8622887671953819,0.5064169052951021,-0.5064169052951021,0.8622887671953819,684.0004782874921,-147.09016436353164)" fill="none" stroke="#262626"></use><use xlink:href="#bbburst-shape-12" width="18.94120362486506" opacity="0.7369714470906825" transform="matrix(0.9867971536839107,-0.1619610369234903,0.1619610369234903,0.9867971536839107,220.24692669132548,60.21056051642313)" fill="none" stroke="#262626"></use><use xlink:href="#bbburst-shape-7" width="13.128630022433128" opacity="0.8874059992038568" transform="matrix(0.995407194512756,0.09573148443560377,-0.09573148443560377,0.995407194512756,453.3948454108969,46.99322739335247)" fill="#262626"></use><use xlink:href="#bbburst-shape-10" width="11.814118606335091" opacity="0.9078521713363706" transform="matrix(0.7843846835710852,0.6202746715601796,-0.6202746715601796,0.7843846835710852,674.0028738012146,54.51772480942202)" fill="none" stroke="#262626"></use><use xlink:href="#bbburst-shape-6" width="42.059575894747404" opacity="0.3178556300364387" transform="matrix(0.861906755147719,-0.5070668056880967,0.5070668056880967,0.861906755147719,-103.67147792565709,185.47253414984607)" fill="#262626"></use><use xlink:href="#bbburst-shape-12" width="14.572486086437348" opacity="0.806340314755185" transform="matrix(0.93657588305651,0.3504648559797665,-0.3504648559797665,0.93657588305651,474.9911002788135,87.49339441278227)" fill="none" stroke="#262626"></use></svg>