<svg xmlns="http://www.w3.org/2000/svg" version="1.1" xmlns:xlink="http://www.w3.org/1999/xlink" xmlns:svgjs="http://svgjs.dev/svgjs" viewBox="0 0 800 800" opacity="1"><defs><filter id="bbburst-blur-1" x="-100%" y="-100%" width="400%" height="400%"><feGaussianBlur in="SourceGraphic" stdDeviation="1"></feGaussianBlur></filter><filter id="bbburst-blur-2" x="-100%" y="-100%" width="400%" height="400%"><feGaussianBlur in="SourceGraphic" stdDeviation="2"></feGaussianBlur></filter><filter id="bbburst-blur-3" x="-100%" y="-100%" width="400%" height="400%"><feGaussianBlur in="SourceGraphic" stdDeviation="4"></feGaussianBlur></filter><filter id="bbburst-blur-4" x="-100%" y="-100%" width="400%" height="400%"><feGaussianBlur in="SourceGraphic" stdDeviation="12"></feGaussianBlur></filter><symbol id="bbburst-shape-1" viewBox="0 0 194 167"><path d="m97 0 96.129 166.5H.871L97 0Z"></path></symbol><symbol id="bbburst-shape-4" viewBox="0 0 149 143"><path d="M71.647 2.781c.898-2.764 4.808-2.764 5.706 0l15.445 47.534a3 3 0 0 0 2.853 2.073h49.98c2.906 0 4.115 3.719 1.764 5.427L106.96 87.193a2.999 2.999 0 0 0-1.09 3.354l15.445 47.534c.898 2.764-2.266 5.062-4.617 3.354l-40.435-29.378a3 3 0 0 0-3.526 0l-40.435 29.378c-2.351 1.708-5.515-.59-4.617-3.354L43.13 90.547a3 3 0 0 0-1.09-3.354L1.605 57.815c-2.35-1.708-1.142-5.427 1.764-5.427h49.98a3 3 0 0 0 2.853-2.073L71.647 2.781Z"></path></symbol><symbol id="bbburst-shape-6" viewBox="0 0 133 116"><path d="M59.7487 10.2513c-13.6683-13.66839-35.8291-13.66839-49.4974 0-13.66839 13.6683-13.66839 35.8291 0 49.4974l49.4974-49.4974ZM66.5 66.5 41.7513 91.2487 66.5 115.997l24.7487-24.7483L66.5 66.5Zm56.249-6.7513c13.668-13.6683 13.668-35.8291 0-49.4974-13.669-13.66839-35.8294-13.66839-49.4977 0l49.4977 49.4974Zm-112.4977 0 31.5 31.5 49.4974-49.4974-31.5-31.5-49.4974 49.4974Zm80.9974 31.5 31.5003-31.5-49.4977-49.4974-31.5 31.5 49.4974 49.4974Z"></path></symbol><symbol id="bbburst-shape-7" viewBox="0 0 139 124"><path fill-rule="evenodd" clip-rule="evenodd" d="M70.1641 15.0917C54.6093.764854 37.8293-2.10782 24.4032 2.82615 10.3804 7.97941.763366 21.4591 1.00047 37.0608c.1068 7.0273 2.86132 13.7317 7.0039 20.2001C12.1442 63.7249 17.853 70.2322 24.25 76.9024c3.8209 3.9842 7.8871 8.0312 12.0767 12.201h.0001c10.0335 9.9862 20.7748 20.6766 30.5497 32.8956 1.38 1.725 3.8972 2.005 5.6223.624.6706-.536 1.1228-1.244 1.3439-2.011 9.5768-11.748 20.0328-22.0735 29.8163-31.7351 4.19-4.1373 8.256-8.1528 12.078-12.1062 6.396-6.6176 12.106-13.0752 16.247-19.4911 4.144-6.4196 6.905-13.0811 7.012-20.0691.237-15.5124-9.399-28.8902-23.411-33.99923-13.32-4.85681-29.9542-2.08621-45.4209 11.88043Zm-3.7351 7.4919C52.1278 8.44857 37.6826 6.46918 27.1626 10.3352 16.2859 14.3323 8.8148 24.7824 8.99955 36.9392c.07575 4.9844 2.03755 10.2234 5.74165 16.0072 3.707 5.7881 8.9752 11.8418 15.2827 18.4187 3.5798 3.7328 7.4978 7.6329 11.6 11.7163 9.0476 9.0063 18.9911 18.9046 28.1786 29.8666 9.2999-11.068 19.4036-21.0473 28.5839-30.1144l.0007-.0006c4.1019-4.0508 8.0189-7.9196 11.5979-11.6222 6.307-6.5252 11.573-12.5298 15.278-18.2697 3.703-5.7362 5.658-10.924 5.734-15.8531.184-12.0276-7.267-22.3914-18.153-26.3608-10.71-3.90518-25.4722-1.80041-40.0023 12.867-1.5547 1.5694-4.0874 1.5813-5.6568.0265-.3146-.3116-.5666-.6625-.7559-1.0371Z"></path></symbol><symbol id="bbburst-shape-8" viewBox="0 0 87 168"><path d="m12 12 31.2546 18.0749c16.4102 9.4902 20.014 31.6325 7.4603 45.8369L36.3296 92.1884c-12.5684 14.2206-8.9394 36.3916 7.5068 45.8636L75 156" stroke-width="14" stroke-linecap="round" stroke-linejoin="round"></path></symbol><symbol id="bbburst-shape-10" viewBox="0 0 145 145"><circle cx="72.5" cy="72.5" r="61.5" fill="none" stroke-width="22"></circle></symbol><symbol id="bbburst-shape-12" viewBox="0 0 170 151"><path d="M69.3728 54.2122 85 10.0031l15.627 44.2091c1.413 3.9958 5.19 6.6672 9.428 6.6673h49.312l-39.149 26.1447c-3.803 2.5401-5.399 7.3367-3.875 11.6488l15.179 42.94-40.9683-27.36c-3.3621-2.245-7.7453-2.245-11.1074 0l-40.9682 27.36 15.1785-42.94c1.5243-4.3121-.0712-9.1087-3.8746-11.6488L10.6333 60.8795h49.3112c4.2381-.0001 8.0159-2.6715 9.4283-6.6673Z" stroke-width="12"></path></symbol></defs><use xlink:href="#bbburst-shape-8" width="14.251596539779605" opacity="0.6458823257059609" transform="matrix(0.998644244521377,-0.052054518385325266,0.052054518385325266,0.998644244521377,529.9943137604079,22.144469911893793)" fill="none" stroke="#262626" filter="url(#bbburst-blur-1)"></use><use xlink:href="#bbburst-shape-10" width="25.928584490815844" opacity="0.2490514996336627" transform="matrix(1.1605743287221144,0.46429217903300235,-0.46429217903300235,1.1605743287221144,551.9973775022079,-407.65944445935844)" fill="none" stroke="#262626" filter="url(#bbburst-blur-3)"></use><use xlink:href="#bbburst-shape-1" width="11.679034894228012" opacity="0.7119052778089314" transform="matrix(0.9997514628850548,-0.022293776243448766,0.022293776243448766,0.9997514628850548,439.17850289852913,118.13595302776997)" fill="#262626" filter="url(#bbburst-blur-1)"></use><use xlink:href="#bbburst-shape-4" width="15.886718101130043" opacity="0.6043684241592311" transform="matrix(0.9914958977267122,0.13013794523927735,-0.13013794523927735,0.9914958977267122,282.92503418971506,77.83968340432585)" fill="#262626" filter="url(#bbburst-blur-1)"></use><use xlink:href="#bbburst-shape-12" width="7.798570248266236" opacity="0.8424643717120626" transform="matrix(0.8572094756584477,0.5149678774849642,-0.5149678774849642,0.8572094756584477,666.8909891131293,85.0774176845041)" fill="none" stroke="#262626"></use><use xlink:href="#bbburst-shape-12" width="5.950584316649776" opacity="0.8303172691809294" transform="matrix(0.7700357969097993,0.6380006829757241,-0.6380006829757241,0.7700357969097993,729.0459190494181,84.19079398963987)" fill="none" stroke="#262626"></use><use xlink:href="#bbburst-shape-10" width="10.756544653965442" opacity="0.8194099728134172" transform="matrix(0.8327643085032431,0.5536276785738907,-0.5536276785738907,0.8327643085032431,556.9585638618997,118.71126331560009)" fill="none" stroke="#262626"></use><use xlink:href="#bbburst-shape-8" width="7.1048439926932785" opacity="0.8794625311310169" transform="matrix(0.9858326090806656,-0.16773212832730539,0.16773212832730539,0.9858326090806656,292.28736601098046,45.81602431393242)" fill="none" stroke="#262626"></use><use xlink:href="#bbburst-shape-10" width="5.390517485144614" opacity="0.8986797989598786" transform="matrix(0.7120405424847817,-0.702138352362252,0.702138352362252,0.7120405424847817,162.54665648831178,112.09464309003152)" fill="none" stroke="#262626"></use><use xlink:href="#bbburst-shape-1" width="24.43038823576132" opacity="0.20230215589888811" transform="matrix(1.2478737707283902,0.0728769670616769,-0.0728769670616769,1.2478737707283902,719.0703422787299,-289.0231226339788)" fill="#262626" filter="url(#bbburst-blur-3)"></use><use xlink:href="#bbburst-shape-8" width="12.140856060215096" opacity="0.7755106184718972" transform="matrix(0.9195571932422876,-0.39295619139589366,0.39295619139589366,0.9195571932422876,287.40234226366294,122.24585645920314)" fill="none" stroke="#262626" filter="url(#bbburst-blur-1)"></use><use xlink:href="#bbburst-shape-8" width="7.623933302032457" opacity="0.9281834162223881" transform="matrix(0.8575889008692856,0.5143357630048785,-0.5143357630048785,0.8575889008692856,627.7357575320996,75.14872319296683)" fill="none" stroke="#262626"></use><use xlink:href="#bbburst-shape-6" width="5.372304164227922" opacity="0.91838237892122" transform="matrix(0.7873924525875207,0.6164520464790502,-0.6164520464790502,0.7873924525875207,623.7299492225602,53.072691172714656)" fill="#262626"></use><use xlink:href="#bbburst-shape-10" width="7.656776179031001" opacity="0.7227167720075245" transform="matrix(0.9913817841800572,0.13100441975737487,-0.13100441975737487,0.9913817841800572,563.7066555460012,-45.234512272481766)" fill="none" stroke="#262626" filter="url(#bbburst-blur-1)"></use><use xlink:href="#bbburst-shape-4" width="27.3631008804373" opacity="0.2750174682951716" transform="matrix(1.0174406676547416,-0.7261642292224767,0.7261642292224767,1.0174406676547416,411.0446404613106,86.34402199042785)" fill="#262626" filter="url(#bbburst-blur-3)"></use><use xlink:href="#bbburst-shape-4" width="35.39556478897639" opacity="0.13559302857069533" transform="matrix(1.2428080516633186,-0.13389602951852447,0.13389602951852447,1.2428080516633186,172.5056811961884,-452.79256805359404)" fill="#262626" filter="url(#bbburst-blur-3)"></use><use xlink:href="#bbburst-shape-4" width="13.644111047105834" opacity="0.7062139389130466" transform="matrix(0.8940029766019616,0.4480610202046509,-0.4480610202046509,0.8940029766019616,519.8507606103582,-81.64361539078527)" fill="#262626" filter="url(#bbburst-blur-1)"></use><use xlink:href="#bbburst-shape-6" width="25.5960227704783" opacity="0.41390746310736026" transform="matrix(0.900222668190604,0.43542984242675603,-0.43542984242675603,0.900222668190604,744.2375074307282,225.61297277211094)" fill="#262626" filter="url(#bbburst-blur-2)"></use><use xlink:href="#bbburst-shape-10" width="33.2733241371368" opacity="0.34305996237155567" transform="matrix(0.7619554999763105,-0.6476293817113695,0.6476293817113695,0.7619554999763105,396.73167548968377,-17.79105202989581)" fill="none" stroke="#262626" filter="url(#bbburst-blur-2)"></use><use xlink:href="#bbburst-shape-7" width="26.30349667820525" opacity="0.30318014674105886" transform="matrix(1.0403501099947898,-0.6929441886860939,0.6929441886860939,1.0403501099947898,310.35933438360905,-247.3747826943581)" fill="#262626" filter="url(#bbburst-blur-3)"></use><use xlink:href="#bbburst-shape-12" width="10.546094559355943" opacity="0.7535955705109669" transform="matrix(0.9102073503484647,0.41415284542258946,-0.41415284542258946,0.9102073503484647,552.8889848165746,-76.87862480184839)" fill="none" stroke="#262626" filter="url(#bbburst-blur-1)"></use><use xlink:href="#bbburst-shape-8" width="9.322005226113543" opacity="0.8487531660766546" transform="matrix(0.7893403199473535,0.6139559099034796,-0.6139559099034796,0.7893403199473535,581.7917699991223,113.32275335480716)" fill="none" stroke="#262626"></use><use xlink:href="#bbburst-shape-6" width="7.64450713574329" opacity="0.8571742992941513" transform="matrix(0.9622176615994718,-0.2722814200529378,0.2722814200529378,0.9622176615994718,271.3967399359505,78.39860673285358)" fill="#262626"></use><use xlink:href="#bbburst-shape-8" width="21.060908491376722" opacity="0.5186218269384723" transform="matrix(0.8275691295748622,-0.5613638176572346,0.5613638176572346,0.8275691295748622,295.47165382408,-99.33566526604577)" fill="none" stroke="#262626" filter="url(#bbburst-blur-2)"></use><use xlink:href="#bbburst-shape-12" width="14.014869079616254" opacity="0.599067993535813" transform="matrix(0.7876844900194276,-0.6160788457517709,0.6160788457517709,0.7876844900194276,68.89831509298034,-72.91498273197945)" fill="none" stroke="#262626" filter="url(#bbburst-blur-1)"></use><use xlink:href="#bbburst-shape-6" width="25.16136877999753" opacity="0.04758237061677295" transform="matrix(1.6936754908334142,-0.44041268345745177,0.44041268345745177,1.6936754908334142,-163.31730135956923,-48.66855258712951)" fill="#262626" filter="url(#bbburst-blur-4)"></use><use xlink:href="#bbburst-shape-8" width="5.197260612957978" opacity="0.9682764296897131" transform="matrix(0.9667929596417052,0.2555608991751912,-0.2555608991751912,0.9667929596417052,495.1811300420351,26.15620988369716)" fill="none" stroke="#262626"></use><use xlink:href="#bbburst-shape-12" width="12.928513418054468" opacity="0.6990171650455186" transform="matrix(0.9950097753705899,-0.09977748702472088,0.09977748702472088,0.9950097753705899,432.3634814904759,112.84268442609948)" fill="none" stroke="#262626" filter="url(#bbburst-blur-1)"></use><use xlink:href="#bbburst-shape-1" width="28.991273843637003" opacity="0.4506288372220738" transform="matrix(0.785788071392123,-0.6184958422316579,0.6184958422316579,0.785788071392123,-34.06267627686239,268.9989744634735)" fill="#262626" filter="url(#bbburst-blur-2)"></use><use xlink:href="#bbburst-shape-10" width="7.33077473416318" opacity="0.866839972677376" transform="matrix(0.884525575351908,0.4664917004067448,-0.4664917004067448,0.884525575351908,604.3931521894334,100.58715850107671)" fill="none" stroke="#262626"></use><use xlink:href="#bbburst-shape-10" width="36.42214555967413" opacity="0.14902278731203622" transform="matrix(1.2110729135464868,-0.3095196246993458,0.3095196246993458,1.2110729135464868,-108.19019325576448,45.149845216065785)" fill="none" stroke="#262626" filter="url(#bbburst-blur-3)"></use><use xlink:href="#bbburst-shape-8" width="30.951819495483896" opacity="0.13018773516080806" transform="matrix(1.1503702381508882,-0.48902792883092955,0.48902792883092955,1.1503702381508882,463.4706554275998,-329.2401796798195)" fill="none" stroke="#262626" filter="url(#bbburst-blur-3)"></use><use xlink:href="#bbburst-shape-4" width="20.758244405831572" opacity="0.4600216695611862" transform="matrix(0.9035402479486468,0.42850323258628725,-0.42850323258628725,0.9035402479486468,573.3184867355955,-208.5737807536418)" fill="#262626" filter="url(#bbburst-blur-2)"></use><use xlink:href="#bbburst-shape-4" width="17.848595380222545" opacity="0.4748493984046247" transform="matrix(0.9972171387532602,-0.07455184891577829,0.07455184891577829,0.9972171387532602,561.8624352953983,-123.15803661248475)" fill="#262626" filter="url(#bbburst-blur-2)"></use><use xlink:href="#bbburst-shape-12" width="20.031106379645788" opacity="0.537310328678271" transform="matrix(0.9337561752936924,-0.35790977229030113,0.35790977229030113,0.9337561752936924,187.99413654111336,229.58289793693842)" fill="none" stroke="#262626" filter="url(#bbburst-blur-2)"></use><use xlink:href="#bbburst-shape-7" width="24.539572114402596" opacity="0.5111573459355458" transform="matrix(0.9777514418268501,0.2097668181708337,-0.2097668181708337,0.9777514418268501,670.4816203784793,100.78016767630703)" fill="#262626" filter="url(#bbburst-blur-2)"></use><use xlink:href="#bbburst-shape-8" width="17.07878252199781" opacity="0.558432328291703" transform="matrix(0.975871126957264,-0.21834730035235048,0.21834730035235048,0.975871126957264,255.4808449715615,-181.0918886435598)" fill="none" stroke="#262626" filter="url(#bbburst-blur-1)"></use><use xlink:href="#bbburst-shape-1" width="20.510153831099263" opacity="0.5904533615861792" transform="matrix(0.9393722888091426,-0.34289896911112594,0.34289896911112594,0.9393722888091426,164.4439066738801,189.2993363377184)" fill="#262626" filter="url(#bbburst-blur-1)"></use><use xlink:href="#bbburst-shape-12" width="6.354593585505313" opacity="0.8647169007922615" transform="matrix(0.9091851907302424,0.41639198954448287,-0.41639198954448287,0.9091851907302424,504.21277675269863,48.052250517812524)" fill="none" stroke="#262626"></use><use xlink:href="#bbburst-shape-10" width="31.168722761050333" opacity="0.232939893046908" transform="matrix(1.2285648562380351,0.23049597397094782,-0.23049597397094782,1.2285648562380351,742.5365859836484,120.67904419041696)" fill="none" stroke="#262626" filter="url(#bbburst-blur-3)"></use><use xlink:href="#bbburst-shape-7" width="5.975375402895521" opacity="0.9581361041301522" transform="matrix(0.905805440495019,0.42369388002380276,-0.42369388002380276,0.905805440495019,556.7487915451414,20.438018813187796)" fill="#262626"></use><use xlink:href="#bbburst-shape-1" width="9.913604859176022" opacity="0.7549110768329629" transform="matrix(0.8346425733428425,0.5507919523410248,-0.5507919523410248,0.8346425733428425,709.7389653795346,5.034932576630695)" fill="#262626" filter="url(#bbburst-blur-1)"></use><use xlink:href="#bbburst-shape-6" width="20.28031424337861" opacity="0.1552712790933043" transform="matrix(0.9210606805478552,-0.8450723180584735,0.8450723180584735,0.9210606805478552,-26.306769958958512,411.9864400203611)" fill="#262626" filter="url(#bbburst-blur-3)"></use><use xlink:href="#bbburst-shape-12" width="25.15637265234304" opacity="0.33277667412935497" transform="matrix(0.9938570404866492,-0.7581214830586974,0.7581214830586974,0.9938570404866492,379.1806645981443,-44.14285729381152)" fill="none" stroke="#262626" filter="url(#bbburst-blur-3)"></use><use xlink:href="#bbburst-shape-6" width="14.22252310825862" opacity="0.7516373457130191" transform="matrix(0.8356942152506805,-0.5491950278330542,0.5491950278330542,0.8356942152506805,63.24114790588081,81.43206299321014)" fill="#262626" filter="url(#bbburst-blur-1)"></use><use xlink:href="#bbburst-shape-10" width="24.176356946155497" opacity="0.3055718807431448" transform="matrix(1.1764343733602523,0.42249516586165875,-0.42249516586165875,1.1764343733602523,693.4703872971058,-355.7092226019539)" fill="none" stroke="#262626" filter="url(#bbburst-blur-3)"></use><use xlink:href="#bbburst-shape-6" width="7.372769861041036" opacity="0.7617414073336642" transform="matrix(0.7485757703808771,-0.663049256087869,0.663049256087869,0.7485757703808771,237.9319070710941,86.33501628045076)" fill="#262626" filter="url(#bbburst-blur-1)"></use><use xlink:href="#bbburst-shape-8" width="9.26351396185333" opacity="0.853382362559842" transform="matrix(0.815444263756933,-0.5788356007588972,0.5788356007588972,0.815444263756933,169.39478725123485,142.3132132168148)" fill="none" stroke="#262626"></use><use xlink:href="#bbburst-shape-7" width="30.13667657349245" opacity="0.12365086310656848" transform="matrix(1.2258414611943742,-0.24456637548289784,0.24456637548289784,1.2258414611943742,-16.66015780271779,169.06006826284334)" fill="#262626" filter="url(#bbburst-blur-3)"></use><use xlink:href="#bbburst-shape-10" width="9.67824146091057" opacity="0.7529620895562417" transform="matrix(0.9974348545821198,0.0715801010389451,-0.0715801010389451,0.9974348545821198,503.6825691695067,-76.63618634728078)" fill="none" stroke="#262626" filter="url(#bbburst-blur-1)"></use><use xlink:href="#bbburst-shape-10" width="23.61887712277836" opacity="0.4652621599771952" transform="matrix(0.9936619280888369,0.11240984239280408,-0.11240984239280408,0.9936619280888369,551.5310001251938,210.75126356925261)" fill="none" stroke="#262626" filter="url(#bbburst-blur-2)"></use><use xlink:href="#bbburst-shape-10" width="8.695691204205094" opacity="0.895271598279741" transform="matrix(0.9573186210297325,0.28903470004435705,-0.28903470004435705,0.9573186210297325,514.6522066208197,62.8348469230919)" fill="none" stroke="#262626"></use><use xlink:href="#bbburst-shape-8" width="13.429809383058362" opacity="0.6221337373206659" transform="matrix(0.92629232300226,-0.3768056957465967,0.3768056957465967,0.92629232300226,402.6201112044321,90.77887756740614)" fill="none" stroke="#262626" filter="url(#bbburst-blur-1)"></use><use xlink:href="#bbburst-shape-7" width="8.359710625132653" opacity="0.7544035066286218" transform="matrix(0.8381955576582537,-0.5453697893374448,0.5453697893374448,0.8381955576582537,288.7323812905699,71.89951738670572)" fill="#262626" filter="url(#bbburst-blur-1)"></use><use xlink:href="#bbburst-shape-7" width="13.465911191012625" opacity="0.7009880590245379" transform="matrix(0.9956840905481242,-0.09280728327752463,0.09280728327752463,0.9956840905481242,291.23830079324273,120.22792504127739)" fill="#262626" filter="url(#bbburst-blur-1)"></use><use xlink:href="#bbburst-shape-10" width="10.303569544708434" opacity="0.7690005141841298" transform="matrix(0.8317035472758681,-0.5552199649226761,0.5552199649226761,0.8317035472758681,170.2628798895201,174.07426432620412)" fill="none" stroke="#262626" filter="url(#bbburst-blur-1)"></use><use xlink:href="#bbburst-shape-6" width="9.899060042945836" opacity="0.7444105682038973" transform="matrix(0.9410238414941272,0.33834025734404666,-0.33834025734404666,0.9410238414941272,551.9881705122754,-91.10794560647105)" fill="#262626" filter="url(#bbburst-blur-1)"></use><use xlink:href="#bbburst-shape-10" width="21.941478431840405" opacity="0.39469076041570983" transform="matrix(0.7148236854262843,-0.6993047252475737,0.6993047252475737,0.7148236854262843,367.93033405860774,216.18012511206666)" fill="none" stroke="#262626" filter="url(#bbburst-blur-2)"></use><use xlink:href="#bbburst-shape-8" width="11.621379313814517" opacity="0.7508914618439796" transform="matrix(0.7735887001417103,-0.633688032878213,0.633688032878213,0.7735887001417103,78.50190867011179,1.8866834924161253)" fill="none" stroke="#262626" filter="url(#bbburst-blur-1)"></use><use xlink:href="#bbburst-shape-8" width="17.351585922146285" opacity="0.4545861237283064" transform="matrix(0.9655029657125132,0.260392056715142,-0.260392056715142,0.9655029657125132,728.9314748595871,-65.13811653924017)" fill="none" stroke="#262626" filter="url(#bbburst-blur-2)"></use><use xlink:href="#bbburst-shape-8" width="23.76844499596589" opacity="0.26910079165622947" transform="matrix(0.9707554533262897,-0.7874857775460266,0.7874857775460266,0.9707554533262897,366.1848669082758,171.042124135444)" fill="none" stroke="#262626" filter="url(#bbburst-blur-3)"></use><use xlink:href="#bbburst-shape-10" width="7.789449738422102" opacity="0.8139045752765576" transform="matrix(0.8678575541592236,-0.4968131094171835,0.4968131094171835,0.8678575541592236,252.06558163722596,-9.070381563072374)" fill="none" stroke="#262626"></use><use xlink:href="#bbburst-shape-6" width="28.479422712033667" opacity="0.025550907253820365" transform="matrix(1.661506070067962,0.5494520717290243,-0.5494520717290243,1.661506070067962,348.5041247032754,-634.3234749696664)" fill="#262626" filter="url(#bbburst-blur-4)"></use><use xlink:href="#bbburst-shape-10" width="16.55276618111035" opacity="0.6297562849666078" transform="matrix(0.917716325995588,-0.3972363842866862,0.3972363842866862,0.917716325995588,344.63529548330075,160.3380418531683)" fill="none" stroke="#262626" filter="url(#bbburst-blur-1)"></use><use xlink:href="#bbburst-shape-6" width="18.725701540644604" opacity="0.5435136312271247" transform="matrix(0.9203430675827375,0.3911120529367468,-0.3911120529367468,0.9203430675827375,673.4903613815623,190.69968020967593)" fill="#262626" filter="url(#bbburst-blur-2)"></use><use xlink:href="#bbburst-shape-7" width="16.336859704397853" opacity="0.6714968920916612" transform="matrix(0.9989761504056232,0.04523992617988819,-0.04523992617988819,0.9989761504056232,321.62309729241736,-118.55883051123106)" fill="#262626" filter="url(#bbburst-blur-1)"></use><use xlink:href="#bbburst-shape-6" width="11.535166565966867" opacity="0.673810572008446" transform="matrix(0.8674615742748673,0.497504188079426,-0.497504188079426,0.8674615742748673,632.299448512589,-91.554102732089)" fill="#262626" filter="url(#bbburst-blur-1)"></use><use xlink:href="#bbburst-shape-1" width="24.75607460003351" opacity="0.4959096912137092" transform="matrix(0.7970730195798947,0.6038829368824629,-0.6038829368824629,0.7970730195798947,461.7964283805349,-76.61303623959964)" fill="#262626" filter="url(#bbburst-blur-2)"></use><use xlink:href="#bbburst-shape-10" width="5.925209658307764" opacity="0.9206934144164425" transform="matrix(0.979562639192447,0.20113934448120274,-0.20113934448120274,0.979562639192447,488.89508250717114,-26.258850162313195)" fill="none" stroke="#262626"></use><use xlink:href="#bbburst-shape-10" width="8.78725996601303" opacity="0.802811672684274" transform="matrix(0.8220590376959773,-0.5694022642581988,0.5694022642581988,0.8220590376959773,241.2843174095939,22.738860480934306)" fill="none" stroke="#262626"></use><use xlink:href="#bbburst-shape-10" width="10.279271263675817" opacity="0.7759332122177043" transform="matrix(0.8738403894630579,-0.48621288932220963,0.48621288932220963,0.8738403894630579,295.40004743113155,17.46927388595907)" fill="none" stroke="#262626" filter="url(#bbburst-blur-1)"></use><use xlink:href="#bbburst-shape-4" width="8.274423650793146" opacity="0.8341936619289434" transform="matrix(0.9482171688448824,-0.31762273329816276,0.31762273329816276,0.9482171688448824,342.44242859527606,35.36619890760028)" fill="#262626"></use><use xlink:href="#bbburst-shape-12" width="5.987315188032545" opacity="0.9684363790095332" transform="matrix(0.8488387017473097,-0.5286519255766896,0.5286519255766896,0.8488387017473097,198.1381972547183,69.40145205026846)" fill="none" stroke="#262626"></use><use xlink:href="#bbburst-shape-4" width="5.8830480539863474" opacity="0.8894909010929126" transform="matrix(0.773433779161856,0.6338771089504727,-0.6338771089504727,0.773433779161856,604.354002350802,72.28427288776965)" fill="#262626"></use><use xlink:href="#bbburst-shape-12" width="27.7259921574558" opacity="0.2579159488092536" transform="matrix(1.231453669495626,-0.21452706096378132,0.21452706096378132,1.231453669495626,630.9573080165828,-82.03652382586836)" fill="none" stroke="#262626" filter="url(#bbburst-blur-3)"></use><use xlink:href="#bbburst-shape-4" width="16.564717111999975" opacity="0.6735873336147125" transform="matrix(0.9569253953668672,0.2903339244765669,-0.2903339244765669,0.9569253953668672,386.7072053413881,97.3867601539888)" fill="#262626" filter="url(#bbburst-blur-1)"></use><use xlink:href="#bbburst-shape-10" width="19.842840284585677" opacity="0.522922385978769" transform="matrix(0.9765884268144028,-0.21511635133613105,0.21511635133613105,0.9765884268144028,389.71043843408836,-185.44927128605198)" fill="none" stroke="#262626" filter="url(#bbburst-blur-2)"></use><use xlink:href="#bbburst-shape-1" width="11.78284031912913" opacity="0.7321205935442712" transform="matrix(0.7485371038145565,-0.6630929076780385,0.6630929076780385,0.7485371038145565,16.74486927315786,64.22649182149058)" fill="#262626" filter="url(#bbburst-blur-1)"></use><use xlink:href="#bbburst-shape-4" width="6.812290591011031" opacity="0.7943935304426671" transform="matrix(0.9807765932319332,-0.1951339902947791,0.1951339902947791,0.9807765932319332,410.66227845420485,17.64998513222281)" fill="#262626"></use><use xlink:href="#bbburst-shape-6" width="19.526750227290623" opacity="0.43802373551891804" transform="matrix(0.7570444036182118,-0.653363429455878,0.653363429455878,0.7570444036182118,90.52443100644399,-146.02490301506705)" fill="#262626" filter="url(#bbburst-blur-2)"></use><use xlink:href="#bbburst-shape-10" width="21.036132365746226" opacity="0.42300937094673186" transform="matrix(0.9615173956544515,-0.2747440588145285,0.2747440588145285,0.9615173956544515,411.4393934579914,-205.62954374542733)" fill="none" stroke="#262626" filter="url(#bbburst-blur-2)"></use><use xlink:href="#bbburst-shape-6" width="7.724683777783515" opacity="0.8830824124402028" transform="matrix(0.9214025477727419,0.38860950188833543,-0.38860950188833543,0.9214025477727419,584.0888159616669,71.54379193270586)" fill="#262626"></use><use xlink:href="#bbburst-shape-4" width="21.417373521395625" opacity="0.5288359237298378" transform="matrix(0.7839937955408367,-0.6207686594484879,0.6207686594484879,0.7839937955408367,205.5385733896066,295.7513008845435)" fill="#262626" filter="url(#bbburst-blur-2)"></use><use xlink:href="#bbburst-shape-4" width="5.882799847824036" opacity="0.9806233041015955" transform="matrix(0.8936514464707799,0.4487617321259499,-0.4487617321259499,0.8936514464707799,568.1699612024438,41.748419305630875)" fill="#262626"></use><use xlink:href="#bbburst-shape-1" width="20.432122849278205" opacity="0.6134694976895873" transform="matrix(0.9098448843977865,0.4149485345620326,-0.4149485345620326,0.9098448843977865,633.7762093742427,187.76301783483132)" fill="#262626" filter="url(#bbburst-blur-1)"></use><use xlink:href="#bbburst-shape-10" width="10.842147731506394" opacity="0.7059069923511748" transform="matrix(0.9675525616880705,-0.2526698248126448,0.2526698248126448,0.9675525616880705,272.3757148889203,-116.26598239584678)" fill="none" stroke="#262626" filter="url(#bbburst-blur-1)"></use><use xlink:href="#bbburst-shape-6" width="25.415401640849446" opacity="0.4656104342729259" transform="matrix(0.9993084392491552,0.0371839111097437,-0.0371839111097437,0.9993084392491552,310.31947655916025,-222.4364713933036)" fill="#262626" filter="url(#bbburst-blur-2)"></use><use xlink:href="#bbburst-shape-6" width="14.912561918296163" opacity="0.6179138677281629" transform="matrix(0.9849182677095706,0.173020247173499,-0.173020247173499,0.9849182677095706,290.3351839586036,-7.119760786999734)" fill="#262626" filter="url(#bbburst-blur-1)"></use><use xlink:href="#bbburst-shape-1" width="27.5811801603686" opacity="0.01674597715523074" transform="matrix(1.7476698739532592,0.09027741509480236,-0.09027741509480236,1.7476698739532592,772.8874928286007,-556.2576025924556)" fill="#262626" filter="url(#bbburst-blur-4)"></use><use xlink:href="#bbburst-shape-6" width="22.134625004286516" opacity="0.28702326602621475" transform="matrix(1.2278988490912328,-0.23401798307058758,0.23401798307058758,1.2278988490912328,-25.724108334608303,-50.12088066922581)" fill="#262626" filter="url(#bbburst-blur-3)"></use><use xlink:href="#bbburst-shape-6" width="13.568529751605965" opacity="0.6713385861128074" transform="matrix(0.7454098654963743,-0.6666064299274926,0.6666064299274926,0.7454098654963743,-1.5021755708417572,35.47148274196309)" fill="#262626" filter="url(#bbburst-blur-1)"></use><use xlink:href="#bbburst-shape-8" width="6.433880606469737" opacity="0.9337133816798976" transform="matrix(0.9207656974547739,0.39011604733799893,-0.39011604733799893,0.9207656974547739,573.8378825345991,9.013062920802156)" fill="none" stroke="#262626"></use><use xlink:href="#bbburst-shape-10" width="14.386090072830724" opacity="0.5679187721275798" transform="matrix(0.9628997872259399,0.2698592221144937,-0.2698592221144937,0.9628997872259399,690.6721371192708,55.75564574050463)" fill="none" stroke="#262626" filter="url(#bbburst-blur-1)"></use><use xlink:href="#bbburst-shape-6" width="28.049397980413605" opacity="0.312559589507481" transform="matrix(0.9805982071644437,-0.775194914912294,0.775194914912294,0.9805982071644437,-165.76920221531543,211.40706237405766)" fill="#262626" filter="url(#bbburst-blur-3)"></use><use xlink:href="#bbburst-shape-12" width="22.833216355565746" opacity="0.2597679851045096" transform="matrix(1.0267783673807025,0.7128998416881711,-0.7128998416881711,1.0267783673807025,378.29399646295946,135.48143934256746)" fill="none" stroke="#262626" filter="url(#bbburst-blur-3)"></use><use xlink:href="#bbburst-shape-4" width="16.95050204784798" opacity="0.5781002487926208" transform="matrix(0.9451561101168264,0.3266189331756954,-0.3266189331756954,0.9451561101168264,669.9697909006118,-100.55111444106757)" fill="#262626" filter="url(#bbburst-blur-1)"></use><use xlink:href="#bbburst-shape-12" width="11.106852491886471" opacity="0.7179815848566453" transform="matrix(0.9601559636126574,-0.279464712511346,0.279464712511346,0.9601559636126574,164.67693562225756,63.6722014912707)" fill="none" stroke="#262626" filter="url(#bbburst-blur-1)"></use><use xlink:href="#bbburst-shape-7" width="35.725717422822875" opacity="-0.10415202000334789" transform="matrix(1.4036418513625442,-1.0451265727669208,1.0451265727669208,1.4036418513625442,305.69666762162683,210.97983619376555)" fill="#262626" filter="url(#bbburst-blur-4)"></use><use xlink:href="#bbburst-shape-12" width="9.241483217176599" opacity="0.707917584892832" transform="matrix(0.9806010457105406,-0.19601425752070759,0.19601425752070759,0.9806010457105406,448.23590936877633,16.929135283222422)" fill="none" stroke="#262626" filter="url(#bbburst-blur-1)"></use><use xlink:href="#bbburst-shape-10" width="12.767768598479297" opacity="0.7649612689252012" transform="matrix(0.9948835649314763,-0.10102817542268573,0.10102817542268573,0.9948835649314763,377.42644612332947,105.6558128670768)" fill="none" stroke="#262626" filter="url(#bbburst-blur-1)"></use><use xlink:href="#bbburst-shape-10" width="32.9400794105035" opacity="0.20099937533274548" transform="matrix(0.9154731979142519,0.8511220969406523,-0.8511220969406523,0.9154731979142519,895.8849216587673,336.3387438692627)" fill="none" stroke="#262626" filter="url(#bbburst-blur-3)"></use><use xlink:href="#bbburst-shape-12" width="15.444374077920601" opacity="0.6198950473173952" transform="matrix(0.9993685396236256,-0.03553198573879561,0.03553198573879561,0.9993685396236256,397.5421571215104,-169.4361211112283)" fill="none" stroke="#262626" filter="url(#bbburst-blur-1)"></use><use xlink:href="#bbburst-shape-10" width="8.347645312312094" opacity="0.8010565888836809" transform="matrix(0.9607324534794943,-0.27747640049429667,0.27747640049429667,0.9607324534794943,359.13770305307384,67.04653809435592)" fill="none" stroke="#262626"></use><use xlink:href="#bbburst-shape-12" width="16.039900285628967" opacity="0.6706970317534275" transform="matrix(0.7486055021382377,0.6630156877241722,-0.6630156877241722,0.7486055021382377,559.9539785298841,205.2418468533345)" fill="none" stroke="#262626" filter="url(#bbburst-blur-1)"></use><use xlink:href="#bbburst-shape-4" width="6.14084247970833" opacity="0.8980120048245821" transform="matrix(0.791428991202559,0.611261115959538,-0.611261115959538,0.791428991202559,629.0510696595411,37.546941826889906)" fill="#262626"></use><use xlink:href="#bbburst-shape-6" width="22.41126847660696" opacity="0.4469536645503157" transform="matrix(0.7104997705547881,0.7036974321692481,-0.7036974321692481,0.7104997705547881,454.6588883246001,226.3958880531191)" fill="#262626" filter="url(#bbburst-blur-2)"></use><use xlink:href="#bbburst-shape-6" width="9.291061062582024" opacity="0.76036044636718" transform="matrix(0.9919668429546376,-0.1264981520758682,0.1264981520758682,0.9919668429546376,387.1441549835298,-95.37223478614703)" fill="#262626" filter="url(#bbburst-blur-1)"></use><use xlink:href="#bbburst-shape-8" width="6.664944670258939" opacity="0.9297393981332239" transform="matrix(0.9823252024803495,-0.1871822549600797,0.1871822549600797,0.9823252024803495,351.9702192304935,-1.9310946676346248)" fill="none" stroke="#262626"></use><use xlink:href="#bbburst-shape-4" width="8.851295652193608" opacity="0.8168097759558512" transform="matrix(0.9053179428960487,0.42473453152583035,-0.42473453152583035,0.9053179428960487,587.3780710672696,115.58443526659852)" fill="#262626"></use><use xlink:href="#bbburst-shape-8" width="7.841278608368333" opacity="0.9006726381840037" transform="matrix(0.9534655476278051,0.3015019891921275,-0.3015019891921275,0.9534655476278051,542.9855390904504,-18.837320658859767)" fill="none" stroke="#262626"></use><use xlink:href="#bbburst-shape-7" width="4.788840432837941" opacity="0.9398983228178893" transform="matrix(0.9475722338831374,0.3195416429414494,-0.3195416429414494,0.9475722338831374,552.328058309687,23.86569549852362)" fill="#262626"></use><use xlink:href="#bbburst-shape-7" width="9.566714289856696" opacity="0.7906889860170189" transform="matrix(0.9027061835639957,-0.43025753468745404,0.43025753468745404,0.9027061835639957,141.30688907563055,-4.929379915905429)" fill="#262626"></use><use xlink:href="#bbburst-shape-6" width="19.74387720047755" opacity="0.5709434374235812" transform="matrix(0.911257141581124,-0.41183785877138496,0.41183785877138496,0.911257141581124,39.28315972754979,87.67119264677297)" fill="#262626" filter="url(#bbburst-blur-1)"></use><use xlink:href="#bbburst-shape-8" width="5.8964140878819045" opacity="0.9279426162686898" transform="matrix(0.9051501300275685,-0.4250920395762261,0.4250920395762261,0.9051501300275685,194.86894703810867,39.29361615108979)" fill="none" stroke="#262626"></use><use xlink:href="#bbburst-shape-4" width="22.117140770718144" opacity="0.4720814633209347" transform="matrix(0.8649115342244856,-0.5019243349006367,0.5019243349006367,0.8649115342244856,-38.88748583360038,-5.167359334932371)" fill="#262626" filter="url(#bbburst-blur-2)"></use><use xlink:href="#bbburst-shape-1" width="6.193027523216411" opacity="0.9288346470835644" transform="matrix(0.8837957590037536,-0.46787290621169664,0.46787290621169664,0.8837957590037536,182.3859284790373,31.92186593347327)" fill="#262626"></use><use xlink:href="#bbburst-shape-8" width="11.31894005726075" opacity="0.6989174584897111" transform="matrix(0.9839070546737733,-0.17868102239236394,0.17868102239236394,0.9839070546737733,355.96763533746986,138.85317139512063)" fill="none" stroke="#262626" filter="url(#bbburst-blur-1)"></use><use xlink:href="#bbburst-shape-4" width="19.144064812588866" opacity="0.5529028792813266" transform="matrix(0.9979269509242956,-0.06435682262929529,0.06435682262929529,0.9979269509242956,187.51764153255667,-93.84287193771803)" fill="#262626" filter="url(#bbburst-blur-2)"></use><use xlink:href="#bbburst-shape-6" width="8.190025311152725" opacity="0.8110242450170642" transform="matrix(0.9991051670755065,-0.042294977515353376,0.042294977515353376,0.9991051670755065,340.47767157987613,-75.28695539461023)" fill="#262626"></use><use xlink:href="#bbburst-shape-10" width="6.586881817032981" opacity="0.8602929640461047" transform="matrix(0.9236824291159038,-0.38315893587719346,0.38315893587719346,0.9236824291159038,280.2306290244398,-19.372621355799822)" fill="none" stroke="#262626"></use><use xlink:href="#bbburst-shape-10" width="31.97256700147088" opacity="0.2754246168454836" transform="matrix(1.1387390675313458,-0.5155320902502977,0.5155320902502977,1.1387390675313458,244.68651100718142,271.3978509757198)" fill="none" stroke="#262626" filter="url(#bbburst-blur-3)"></use><use xlink:href="#bbburst-shape-1" width="11.734313259048923" opacity="0.6890694704567769" transform="matrix(0.8028957267102591,0.5961194947578924,-0.5961194947578924,0.8028957267102591,748.9761236397186,-3.985589499601474)" fill="#262626" filter="url(#bbburst-blur-1)"></use><use xlink:href="#bbburst-shape-8" width="15.230626505517485" opacity="0.701920694852755" transform="matrix(0.9835874216044417,-0.18043221458909792,0.18043221458909792,0.9835874216044417,321.88380937189504,142.06584511983743)" fill="none" stroke="#262626" filter="url(#bbburst-blur-1)"></use><use xlink:href="#bbburst-shape-4" width="7.545509962111181" opacity="0.8960809700889212" transform="matrix(0.9783969587461658,-0.2067350747121866,0.2067350747121866,0.9783969587461658,266.8643750919723,10.47902846172309)" fill="#262626"></use><use xlink:href="#bbburst-shape-4" width="7.534435747677406" opacity="0.9277321062465516" transform="matrix(0.9997295555452096,-0.0232554460154515,0.0232554460154515,0.9997295555452096,367.26339703672494,26.101296255855914)" fill="#262626"></use><use xlink:href="#bbburst-shape-6" width="22.895605180851945" opacity="0.17279367458025963" transform="matrix(1.1203733220319567,-0.5543136470258307,0.5543136470258307,1.1203733220319567,360.6666060840256,-358.74937316352634)" fill="#262626" filter="url(#bbburst-blur-3)"></use><use xlink:href="#bbburst-shape-10" width="27.888537350871445" opacity="0.16062658696519327" transform="matrix(1.24967413541949,0.028540414565140084,-0.028540414565140084,1.24967413541949,325.95258969886896,-471.80736393909893)" fill="none" stroke="#262626" filter="url(#bbburst-blur-3)"></use><use xlink:href="#bbburst-shape-6" width="5.3854309042640995" opacity="0.9557559111198741" transform="matrix(0.7527635599469075,0.6582909864308174,-0.6582909864308174,0.7527635599469075,642.0409552196327,92.03282422629957)" fill="#262626"></use><use xlink:href="#bbburst-shape-6" width="36.21396553666603" opacity="0.21481543192918884" transform="matrix(1.2194723841466815,0.2745671216726587,-0.2745671216726587,1.2194723841466815,276.1015557829605,-375.6928615765794)" fill="#262626" filter="url(#bbburst-blur-3)"></use><use xlink:href="#bbburst-shape-4" width="23.807990120587107" opacity="0.35038460368838675" transform="matrix(0.7156289579443402,-0.6984806329108186,0.6984806329108186,0.7156289579443402,-168.31890015099734,204.65005853722266)" fill="#262626" filter="url(#bbburst-blur-2)"></use><use xlink:href="#bbburst-shape-8" width="28.275689964812287" opacity="0.34381151276380884" transform="matrix(0.7907525073714039,0.6121359914968552,-0.6121359914968552,0.7907525073714039,629.7047077329686,370.30284149428735)" fill="none" stroke="#262626" filter="url(#bbburst-blur-2)"></use><use xlink:href="#bbburst-shape-8" width="9.886873115967893" opacity="0.7658988568717007" transform="matrix(0.926332846994487,0.37670606124548645,-0.37670606124548645,0.926332846994487,605.3418128149688,-59.507123065518556)" fill="none" stroke="#262626" filter="url(#bbburst-blur-1)"></use><use xlink:href="#bbburst-shape-6" width="16.48383091460047" opacity="0.6631513199367383" transform="matrix(0.8799092160076548,0.47514184364755147,-0.47514184364755147,0.8799092160076548,433.44802027443416,69.99920155778705)" fill="#262626" filter="url(#bbburst-blur-1)"></use><use xlink:href="#bbburst-shape-8" width="8.725986211781017" opacity="0.7952596007083786" transform="matrix(0.9500742775235773,0.3120238247122366,-0.3120238247122366,0.9500742775235773,607.062223527732,50.60787394959249)" fill="none" stroke="#262626"></use><use xlink:href="#bbburst-shape-10" width="6.421814505830355" opacity="0.9098161194556542" transform="matrix(0.9145060586891471,-0.40457220445903364,0.40457220445903364,0.9145060586891471,274.4974704292063,45.76287789174978)" fill="none" stroke="#262626"></use><use xlink:href="#bbburst-shape-10" width="16.394113973192255" opacity="0.5333849979861653" transform="matrix(0.9993545856175556,0.0359223079041942,-0.0359223079041942,0.9993545856175556,445.69135691904637,-206.26156614358663)" fill="none" stroke="#262626" filter="url(#bbburst-blur-2)"></use><use xlink:href="#bbburst-shape-12" width="26.109767767616532" opacity="0.3262636006694447" transform="matrix(1.0848572184838603,-0.6209547612374526,0.6209547612374526,1.0848572184838603,375.67952865493396,-213.38225964606588)" fill="none" stroke="#262626" filter="url(#bbburst-blur-3)"></use><use xlink:href="#bbburst-shape-10" width="23.86902037470414" opacity="0.42658595716266434" transform="matrix(0.8921279026526493,0.4517829183452879,-0.4517829183452879,0.8921279026526493,421.2389938251634,-173.0349214976987)" fill="none" stroke="#262626" filter="url(#bbburst-blur-2)"></use><use xlink:href="#bbburst-shape-1" width="6.039707381160516" opacity="0.8260274565270395" transform="matrix(0.8030056827814298,-0.5959713696317379,0.5959713696317379,0.8030056827814298,193.11109100332536,10.04601218653471)" fill="#262626"></use><use xlink:href="#bbburst-shape-4" width="24.280718412648504" opacity="0.3364611298062866" transform="matrix(0.9602658945111234,0.2790867460822027,-0.2790867460822027,0.9602658945111234,285.2793305666712,-194.99489207332448)" fill="#262626" filter="url(#bbburst-blur-2)"></use><use xlink:href="#bbburst-shape-12" width="23.41795668731183" opacity="0.17225339032362963" transform="matrix(1.0903625800143764,0.6112359970620129,-0.6112359970620129,1.0903625800143764,674.4258181807578,-413.3818505815901)" fill="none" stroke="#262626" filter="url(#bbburst-blur-3)"></use><use xlink:href="#bbburst-shape-10" width="8.264410325289338" opacity="0.716559954806467" transform="matrix(0.867806600728215,0.4969021067902012,-0.4969021067902012,0.867806600728215,720.8398280510544,28.987843682756704)" fill="none" stroke="#262626" filter="url(#bbburst-blur-1)"></use><use xlink:href="#bbburst-shape-6" width="12.38824018368399" opacity="0.7247428598345512" transform="matrix(0.7598579213314097,-0.6500891780286064,0.6500891780286064,0.7598579213314097,105.09042640040536,220.21962570750662)" fill="#262626" filter="url(#bbburst-blur-1)"></use><use xlink:href="#bbburst-shape-4" width="15.650824387280824" opacity="0.5552501204639224" transform="matrix(0.9999974871959542,0.0022417853995402,-0.0022417853995402,0.9999974871959542,274.54461463679405,-161.26742480307385)" fill="#262626" filter="url(#bbburst-blur-2)"></use><use xlink:href="#bbburst-shape-4" width="15.187784205970688" opacity="0.5377944550526811" transform="matrix(0.9895398646051378,-0.14425968375553064,0.14425968375553064,0.9895398646051378,539.6569358301537,-30.592852855240267)" fill="#262626" filter="url(#bbburst-blur-2)"></use><use xlink:href="#bbburst-shape-4" width="13.936280339024806" opacity="0.6154484714781165" transform="matrix(0.9578803156194704,0.2871677226791755,-0.2871677226791755,0.9578803156194704,676.2468059638319,-26.398483998788947)" fill="#262626" filter="url(#bbburst-blur-1)"></use><use xlink:href="#bbburst-shape-12" width="6.544493979872755" opacity="0.9336999197914279" transform="matrix(0.9344577606496395,0.3560740001202854,-0.3560740001202854,0.9344577606496395,534.6924497819673,-4.424482075607273)" fill="none" stroke="#262626"></use><use xlink:href="#bbburst-shape-6" width="26.1002174045369" opacity="0.1318936245096597" transform="matrix(1.16912432420697,0.44232150586151203,-0.44232150586151203,1.16912432420697,685.3557146171909,297.1290921803594)" fill="#262626" filter="url(#bbburst-blur-3)"></use><use xlink:href="#bbburst-shape-6" width="9.634328773813998" opacity="0.7489610158214481" transform="matrix(0.997774991854953,-0.06667132538691886,0.06667132538691886,0.997774991854953,477.00250611049637,32.74384647199207)" fill="#262626" filter="url(#bbburst-blur-1)"></use><use xlink:href="#bbburst-shape-8" width="13.71075932086424" opacity="0.6059743495611081" transform="matrix(0.8898568417119145,0.4562398505813547,-0.4562398505813547,0.8898568417119145,631.4170264963574,-127.62911678121807)" fill="none" stroke="#262626" filter="url(#bbburst-blur-1)"></use><use xlink:href="#bbburst-shape-7" width="6.436671215192722" opacity="0.9465885970549732" transform="matrix(0.8904921448022147,-0.45499861543256537,0.45499861543256537,0.8904921448022147,193.71579515890105,56.22328608629181)" fill="#262626"></use><use xlink:href="#bbburst-shape-7" width="21.053714014730883" opacity="0.4502621647594576" transform="matrix(0.9879281251198428,0.15491294199385733,-0.15491294199385733,0.9879281251198428,627.8103408484673,-170.34196002039232)" fill="#262626" filter="url(#bbburst-blur-2)"></use><use xlink:href="#bbburst-shape-8" width="8.542916198008502" opacity="0.8504808509691322" transform="matrix(0.9802795993930592,-0.19761555357254515,0.19761555357254515,0.9802795993930592,249.85445069923236,1.6714322471832475)" fill="none" stroke="#262626"></use><use xlink:href="#bbburst-shape-4" width="42.99099568534751" opacity="-0.09814179856481542" transform="matrix(1.7260466689307365,-0.28855310892989616,0.28855310892989616,1.7260466689307365,-109.13385646443842,57.93165144114914)" fill="#262626" filter="url(#bbburst-blur-4)"></use><use xlink:href="#bbburst-shape-6" width="17.240458884296316" opacity="0.6058572201206973" transform="matrix(0.9929916970391668,0.1181841343466861,-0.1181841343466861,0.9929916970391668,589.7600112918328,94.75314369833387)" fill="#262626" filter="url(#bbburst-blur-1)"></use><use xlink:href="#bbburst-shape-6" width="37.05029793675186" opacity="0.030755942936244285" transform="matrix(1.2996416763688199,-1.1719349440328348,1.1719349440328348,1.2996416763688199,-456.86846991171967,-338.4074324374097)" fill="#262626" filter="url(#bbburst-blur-4)"></use><use xlink:href="#bbburst-shape-12" width="8.369544537656854" opacity="0.8338676130961871" transform="matrix(0.963060342869048,0.269285677288919,-0.269285677288919,0.963060342869048,543.6431914716129,76.82129435924736)" fill="none" stroke="#262626"></use><use xlink:href="#bbburst-shape-8" width="11.746209978505481" opacity="0.7677486639104507" transform="matrix(0.868543911738818,-0.4956122207749043,0.4956122207749043,0.868543911738818,164.42460817377136,-43.92635069747695)" fill="none" stroke="#262626" filter="url(#bbburst-blur-1)"></use><use xlink:href="#bbburst-shape-6" width="13.292391209914276" opacity="0.6169296687454433" transform="matrix(0.9794648819299839,-0.2016148433669569,0.2016148433669569,0.9794648819299839,396.5749578815445,-141.1263636141314)" fill="#262626" filter="url(#bbburst-blur-1)"></use><use xlink:href="#bbburst-shape-8" width="11.36961486689962" opacity="0.6949712442168001" transform="matrix(0.9579056708969717,0.2870831337146483,-0.2870831337146483,0.9579056708969717,585.0173045592882,-99.34245551715782)" fill="none" stroke="#262626" filter="url(#bbburst-blur-1)"></use><use xlink:href="#bbburst-shape-4" width="10.039520184452757" opacity="0.6736736808367263" transform="matrix(0.9588624921063434,0.28387095876755786,-0.28387095876755786,0.9588624921063434,623.6962000700644,106.40260373555355)" fill="#262626" filter="url(#bbburst-blur-1)"></use><use xlink:href="#bbburst-shape-8" width="12.61086660195048" opacity="0.7884475629549822" transform="matrix(0.7279912582597341,0.685586411692508,-0.685586411692508,0.7279912582597341,636.5511008472165,193.74207691491955)" fill="none" stroke="#262626"></use><use xlink:href="#bbburst-shape-6" width="8.61600953321118" opacity="0.8745384503931448" transform="matrix(0.9736354945270269,-0.22810945573805502,0.22810945573805502,0.9736354945270269,359.41421199412565,24.895927478825683)" fill="#262626"></use><use xlink:href="#bbburst-shape-6" width="23.594240159902217" opacity="0.27954707767627485" transform="matrix(1.1307654665141262,0.5327940124842719,-0.5327940124842719,1.1307654665141262,683.6278370437512,-371.7642307504315)" fill="#262626" filter="url(#bbburst-blur-3)"></use><use xlink:href="#bbburst-shape-6" width="19.925019459304547" opacity="0.4776711678309886" transform="matrix(0.7159294537489069,-0.6981726271165261,0.6981726271165261,0.7159294537489069,95.55714324300163,354.9384831497464)" fill="#262626" filter="url(#bbburst-blur-2)"></use><use xlink:href="#bbburst-shape-8" width="23.884081068317187" opacity="0.31485776881014516" transform="matrix(1.2019904119136602,-0.34310209802277447,0.34310209802277447,1.2019904119136602,54.56656881635624,163.05982426814825)" fill="none" stroke="#262626" filter="url(#bbburst-blur-3)"></use><use xlink:href="#bbburst-shape-12" width="27.282583306441133" opacity="0.1807357839259598" transform="matrix(1.0307501358618898,0.7071450752290478,-0.7071450752290478,1.0307501358618898,685.5490412058648,346.29229703497464)" fill="none" stroke="#262626" filter="url(#bbburst-blur-3)"></use><use xlink:href="#bbburst-shape-10" width="21.845435395587486" opacity="0.3598236240830601" transform="matrix(0.989161338771795,-0.14683271392707475,0.14683271392707475,0.989161338771795,441.51743919663056,271.75226007209045)" fill="none" stroke="#262626" filter="url(#bbburst-blur-2)"></use><use xlink:href="#bbburst-shape-4" width="4.657283454024209" opacity="0.9897080744415611" transform="matrix(0.99948303588782,-0.03215059832206484,0.03215059832206484,0.99948303588782,387.27311707385667,-3.63772814076043)" fill="#262626"></use><use xlink:href="#bbburst-shape-6" width="36.8360974593577" opacity="0.09729719739020193" transform="matrix(1.7498365517396661,-0.023917403618174446,0.023917403618174446,1.7498365517396661,65.86142800702581,-581.5344871912764)" fill="#262626" filter="url(#bbburst-blur-4)"></use><use xlink:href="#bbburst-shape-6" width="27.992747795606352" opacity="0.3229345341375751" transform="matrix(0.9040504100538388,-0.8632455363808642,0.8632455363808642,0.9040504100538388,-260.76105782234913,16.759839938707955)" fill="#262626" filter="url(#bbburst-blur-3)"></use><use xlink:href="#bbburst-shape-10" width="9.938001137306493" opacity="0.8480409852792699" transform="matrix(0.9775792529935983,0.21056781358146454,-0.21056781358146454,0.9775792529935983,531.1105911522178,52.631049605891974)" fill="none" stroke="#262626"></use><use xlink:href="#bbburst-shape-12" width="6.6818091671613935" opacity="0.8754975332773494" transform="matrix(0.9851937275768107,-0.17144479911420143,0.17144479911420143,0.9851937275768107,297.69180138818376,-40.55415405404631)" fill="none" stroke="#262626"></use><use xlink:href="#bbburst-shape-12" width="24.205374387357942" opacity="0.28713019479411384" transform="matrix(1.020960787832896,0.7212066761391165,-0.7212066761391165,1.020960787832896,536.337894075227,271.5593161660633)" fill="none" stroke="#262626" filter="url(#bbburst-blur-3)"></use><use xlink:href="#bbburst-shape-8" width="16.64722684689505" opacity="0.6256591885022049" transform="matrix(0.9826949824474295,0.18523112986926954,-0.18523112986926954,0.9826949824474295,613.4046698508794,-75.99980704673402)" fill="none" stroke="#262626" filter="url(#bbburst-blur-1)"></use><use xlink:href="#bbburst-shape-10" width="12.61715220458486" opacity="0.6814272770207519" transform="matrix(0.8180076475991352,-0.5752073438937728,0.5752073438937728,0.8180076475991352,265.1488114073652,-25.911219106995645)" fill="none" stroke="#262626" filter="url(#bbburst-blur-1)"></use><use xlink:href="#bbburst-shape-8" width="11.95666330296921" opacity="0.6360474846103096" transform="matrix(0.9932597492595647,0.11590975153465985,-0.11590975153465985,0.9932597492595647,427.01433514897286,-161.22543227358778)" fill="none" stroke="#262626" filter="url(#bbburst-blur-1)"></use><use xlink:href="#bbburst-shape-4" width="29.01143701575262" opacity="0.3988978630115442" transform="matrix(0.9940459104298285,-0.10896204824494354,0.10896204824494354,0.9940459104298285,566.1043190106428,155.46353261874674)" fill="#262626" filter="url(#bbburst-blur-2)"></use><use xlink:href="#bbburst-shape-8" width="12.291040988335153" opacity="0.6652445595335712" transform="matrix(0.9098352705391565,0.41496961392726095,-0.41496961392726095,0.9098352705391565,710.4170050523445,19.869356487986863)" fill="none" stroke="#262626" filter="url(#bbburst-blur-1)"></use><use xlink:href="#bbburst-shape-10" width="29.916101839369517" opacity="0.3088726936187022" transform="matrix(1.1474338289938975,-0.4958786223264752,0.4958786223264752,1.1474338289938975,-108.11343651837129,-156.9676541757916)" fill="none" stroke="#262626" filter="url(#bbburst-blur-3)"></use><use xlink:href="#bbburst-shape-6" width="7.389287261497166" opacity="0.8655322842049852" transform="matrix(0.8079712425027883,0.5892219202376134,-0.5892219202376134,0.8079712425027883,631.1342177064433,14.144480877088142)" fill="#262626"></use><use xlink:href="#bbburst-shape-10" width="6.2310557832560445" opacity="0.9033240739484459" transform="matrix(0.9971612243893961,0.07529603292498459,-0.07529603292498459,0.9971612243893961,465.20235513666705,-19.933870363135725)" fill="none" stroke="#262626"></use><use xlink:href="#bbburst-shape-1" width="19.180346186443835" opacity="0.5385942719185367" transform="matrix(0.9993050279653378,-0.037275475626682875,0.037275475626682875,0.9993050279653378,167.8968933198219,-2.3792606198942963)" fill="#262626" filter="url(#bbburst-blur-2)"></use><use xlink:href="#bbburst-shape-10" width="8.683776395250668" opacity="0.8169430163069733" transform="matrix(0.8915255788856915,0.4529703546508674,-0.4529703546508674,0.8915255788856915,569.9651492154541,123.46991873654503)" fill="none" stroke="#262626"></use><use xlink:href="#bbburst-shape-1" width="21.342537127671626" opacity="0.4354606428962887" transform="matrix(0.8022930970435141,0.5969303028296741,-0.5969303028296741,0.8022930970435141,883.0926754300301,48.650252807676225)" fill="#262626" filter="url(#bbburst-blur-2)"></use><use xlink:href="#bbburst-shape-6" width="13.089531612794413" opacity="0.7918121742623829" transform="matrix(0.709465640881254,-0.7047400261152701,0.7047400261152701,0.709465640881254,27.16722741112318,157.29821777537381)" fill="#262626"></use><use xlink:href="#bbburst-shape-10" width="13.138733822077517" opacity="0.6058028607294093" transform="matrix(0.9861019094871778,-0.16614157849780326,0.16614157849780326,0.9861019094871778,441.42275643539176,-128.9558391699423)" fill="none" stroke="#262626" filter="url(#bbburst-blur-1)"></use><use xlink:href="#bbburst-shape-4" width="36.37116809683936" opacity="0.0242450673617991" transform="matrix(1.4777662014791013,0.9373937559883935,-0.9373937559883935,1.4777662014791013,1104.516407307176,48.2801096339615)" fill="#262626" filter="url(#bbburst-blur-4)"></use><use xlink:href="#bbburst-shape-6" width="6.214137983614093" opacity="0.8945508347873591" transform="matrix(0.9438332311713512,-0.3304222022453192,0.3304222022453192,0.9438332311713512,228.15190496174213,-6.529655531161154)" fill="#262626"></use><use xlink:href="#bbburst-shape-10" width="25.785962400506396" opacity="0.40669016964573546" transform="matrix(0.9997367040016473,-0.022946081842498144,0.022946081842498144,0.9997367040016473,303.2390758848255,256.7297055217207)" fill="none" stroke="#262626" filter="url(#bbburst-blur-2)"></use><use xlink:href="#bbburst-shape-6" width="19.074548853980602" opacity="0.47281068294347595" transform="matrix(0.991782790230709,-0.1279331739705904,0.1279331739705904,0.991782790230709,571.1388442864587,55.13080346947089)" fill="#262626" filter="url(#bbburst-blur-2)"></use><use xlink:href="#bbburst-shape-8" width="12.780136647518827" opacity="0.7392366569750235" transform="matrix(0.8177544637690551,-0.5755672306392929,0.5755672306392929,0.8177544637690551,248.90896010936004,158.13996268498147)" fill="none" stroke="#262626" filter="url(#bbburst-blur-1)"></use><use xlink:href="#bbburst-shape-8" width="5.32541231719722" opacity="0.8785521826124916" transform="matrix(0.9633338890860209,-0.2683054567808898,0.2683054567808898,0.9633338890860209,332.37640480040676,-19.268396992255646)" fill="none" stroke="#262626"></use><use xlink:href="#bbburst-shape-7" width="15.322730061080362" opacity="0.5983282221577532" transform="matrix(0.9162297885740549,-0.4006531848488698,0.4006531848488698,0.9162297885740549,413.41057781964594,34.83877704977294)" fill="#262626" filter="url(#bbburst-blur-1)"></use><use xlink:href="#bbburst-shape-8" width="39.44506091750205" opacity="0.22871051680842924" transform="matrix(1.226386088333232,0.24182051679440625,-0.24182051679440625,1.226386088333232,183.41497915274772,-287.34194898431747)" fill="none" stroke="#262626" filter="url(#bbburst-blur-3)"></use><use xlink:href="#bbburst-shape-4" width="38.79531705289922" opacity="-0.10478818811983315" transform="matrix(1.655600613517208,0.566997891108463,-0.566997891108463,1.655600613517208,945.4697177822688,-625.456362168891)" fill="#262626" filter="url(#bbburst-blur-4)"></use><use xlink:href="#bbburst-shape-6" width="15.350732811342379" opacity="0.5591819785136559" transform="matrix(0.89917483181069,0.43758955864853233,-0.43758955864853233,0.89917483181069,408.4522889478252,154.66428216561536)" fill="#262626" filter="url(#bbburst-blur-1)"></use><use xlink:href="#bbburst-shape-4" width="38.04856066924811" opacity="-0.10648636885006146" transform="matrix(1.7314575132599797,0.2540765234640282,-0.2540765234640282,1.7314575132599797,115.65632480390343,-648.4922505821276)" fill="#262626" filter="url(#bbburst-blur-4)"></use><use xlink:href="#bbburst-shape-6" width="15.071060870421443" opacity="0.554693960129284" transform="matrix(0.9406214923185722,-0.3394572258597278,0.3394572258597278,0.9406214923185722,441.4765777468541,-52.247680897663315)" fill="#262626" filter="url(#bbburst-blur-2)"></use><use xlink:href="#bbburst-shape-8" width="11.729478698380738" opacity="0.7660121975153986" transform="matrix(0.9455655414277517,0.3254317238138328,-0.3254317238138328,0.9455655414277517,462.7678128462819,105.07290475945462)" fill="none" stroke="#262626" filter="url(#bbburst-blur-1)"></use><use xlink:href="#bbburst-shape-10" width="11.200310287594437" opacity="0.7486935543078248" transform="matrix(0.8598451832792228,0.5105548558103425,-0.5105548558103425,0.8598451832792228,696.6131084755422,110.99359358910141)" fill="none" stroke="#262626" filter="url(#bbburst-blur-1)"></use><use xlink:href="#bbburst-shape-12" width="22.541539791767875" opacity="0.2789861217308245" transform="matrix(1.2434517399788971,-0.12778016412359638,0.12778016412359638,1.2434517399788971,270.0900322975914,221.93268923907647)" fill="none" stroke="#262626" filter="url(#bbburst-blur-3)"></use><use xlink:href="#bbburst-shape-1" width="7.4953958651029815" opacity="0.7982428015720344" transform="matrix(0.9996642105564238,0.02591266355668449,-0.02591266355668449,0.9996642105564238,431.00586987257327,-87.40717783634682)" fill="#262626"></use><use xlink:href="#bbburst-shape-1" width="6.095773742668998" opacity="0.8521387391750643" transform="matrix(0.9637636048473481,-0.2667577814640925,0.2667577814640925,0.9637636048473481,237.14321183752725,-24.62298923676343)" fill="#262626"></use><use xlink:href="#bbburst-shape-12" width="22.601235378720745" opacity="0.5286779798901706" transform="matrix(0.9918186054532396,-0.1276552148436988,0.1276552148436988,0.9918186054532396,502.01192700238045,138.81584134987492)" fill="none" stroke="#262626" filter="url(#bbburst-blur-2)"></use><use xlink:href="#bbburst-shape-6" width="8.050939180079805" opacity="0.8174978232661871" transform="matrix(0.9992235076734989,-0.03940027554052369,0.03940027554052369,0.9992235076734989,366.186978159745,-80.44930555012905)" fill="#262626"></use><use xlink:href="#bbburst-shape-12" width="32.724835458284645" opacity="0.11466150125932584" transform="matrix(1.1910963574429165,-0.3791958165463013,0.3791958165463013,1.1910963574429165,591.0404407756598,95.56726456518794)" fill="none" stroke="#262626" filter="url(#bbburst-blur-3)"></use><use xlink:href="#bbburst-shape-6" width="35.764045503116" opacity="0.11551433816104528" transform="matrix(1.2178324003207854,-0.281752098002684,0.281752098002684,1.2178324003207854,97.6215002394085,278.7772649388538)" fill="#262626" filter="url(#bbburst-blur-3)"></use><use xlink:href="#bbburst-shape-12" width="7.4398733844265" opacity="0.8887977600847073" transform="matrix(0.9691286866519784,-0.24655544753302747,0.24655544753302747,0.9691286866519784,339.8599967581334,40.31705641825232)" fill="none" stroke="#262626"></use><use xlink:href="#bbburst-shape-7" width="20.321475000640273" opacity="0.1033040045954906" transform="matrix(1.4151559895164334,-1.0294821636802476,1.0294821636802476,1.4151559895164334,343.73266625352517,-316.5090827548347)" fill="#262626" filter="url(#bbburst-blur-4)"></use><use xlink:href="#bbburst-shape-8" width="7.306166813384969" opacity="0.8562268108493452" transform="matrix(0.973397768114828,-0.22912176899865158,0.22912176899865158,0.973397768114828,284.8932347620634,-50.082865387208756)" fill="none" stroke="#262626"></use><use xlink:href="#bbburst-shape-7" width="11.714364001888946" opacity="0.7017586980889541" transform="matrix(0.9235075292306438,0.383580295967235,-0.383580295967235,0.9235075292306438,414.48125362819087,14.600577504222827)" fill="#262626" filter="url(#bbburst-blur-1)"></use><use xlink:href="#bbburst-shape-8" width="8.55696207900301" opacity="0.8662277582698155" transform="matrix(0.9278701133096977,0.3729035435962614,-0.3729035435962614,0.9278701133096977,601.4888774213559,5.94100249970478)" fill="none" stroke="#262626"></use><use xlink:href="#bbburst-shape-7" width="29.165510671503952" opacity="0.11519333300466617" transform="matrix(1.1440030280347169,0.5037430613392098,-0.5037430613392098,1.1440030280347169,854.5483973296895,227.76124017985995)" fill="#262626" filter="url(#bbburst-blur-3)"></use><use xlink:href="#bbburst-shape-12" width="27.96905642538581" opacity="0.015549080392027848" transform="matrix(1.6035626773107643,0.7007758128930631,-0.7007758128930631,1.6035626773107643,909.9581054917394,-615.6259281212107)" fill="none" stroke="#262626" filter="url(#bbburst-blur-4)"></use><use xlink:href="#bbburst-shape-6" width="8.141934065224515" opacity="0.8964810094915426" transform="matrix(0.887083598170911,-0.4616088060860079,0.4616088060860079,0.887083598170911,194.944426093457,90.49419297542022)" fill="#262626"></use><use xlink:href="#bbburst-shape-4" width="9.763529047820127" opacity="0.8153110998141166" transform="matrix(0.9225526300722021,0.3858712800233551,-0.3858712800233551,0.9225526300722021,467.32293204384325,39.00169687614522)" fill="#262626"></use><use xlink:href="#bbburst-shape-6" width="19.083263606737237" opacity="0.15458393218334388" transform="matrix(1.241532317202077,0.14524980324544923,-0.14524980324544923,1.241532317202077,819.7932297309877,-25.882947117636036)" fill="#262626" filter="url(#bbburst-blur-3)"></use><use xlink:href="#bbburst-shape-12" width="7.389935989083466" opacity="0.8738540240365056" transform="matrix(0.999997584715901,-0.0021978540362270296,0.0021978540362270296,0.999997584715901,413.234928103952,-53.904022813760434)" fill="none" stroke="#262626"></use><use xlink:href="#bbburst-shape-10" width="13.868473076290908" opacity="0.5117245347710786" transform="matrix(0.9916834744875116,0.12870076312274525,-0.12870076312274525,0.9916834744875116,664.1845071549359,10.36535680464658)" fill="none" stroke="#262626" filter="url(#bbburst-blur-2)"></use><use xlink:href="#bbburst-shape-12" width="9.129707629023365" opacity="0.8394724689201503" transform="matrix(0.8003670785363276,0.599510249783291,-0.599510249783291,0.8003670785363276,569.0060463959428,50.48509157882228)" fill="none" stroke="#262626"></use><use xlink:href="#bbburst-shape-4" width="8.31923512932169" opacity="0.7958404644630375" transform="matrix(0.937922188767861,-0.3468457406642107,0.3468457406642107,0.937922188767861,319.8651686812208,93.61515635444863)" fill="#262626"></use><use xlink:href="#bbburst-shape-4" width="10.543152259015233" opacity="0.6909473489068144" transform="matrix(0.8608283105635702,0.5088954899901055,-0.5088954899901055,0.8608283105635702,723.3551976337153,115.29273563394946)" fill="#262626" filter="url(#bbburst-blur-1)"></use><use xlink:href="#bbburst-shape-1" width="28.053927052013847" opacity="0.028329331318861173" transform="matrix(1.6867114997807497,0.4663735804131423,-0.4663735804131423,1.6867114997807497,802.1081693427193,84.8342258107399)" fill="#262626" filter="url(#bbburst-blur-4)"></use><use xlink:href="#bbburst-shape-4" width="6.923105665247494" opacity="0.9008076739071929" transform="matrix(0.842200800879182,-0.5391639926761286,0.5391639926761286,0.842200800879182,183.80827645639403,20.418584030195177)" fill="#262626"></use><use xlink:href="#bbburst-shape-4" width="16.023417997673057" opacity="0.6313633040868979" transform="matrix(0.8241557592754063,0.5663632089509156,-0.5663632089509156,0.8241557592754063,602.0437623976788,230.73110976332828)" fill="#262626" filter="url(#bbburst-blur-1)"></use><use xlink:href="#bbburst-shape-6" width="7.512321032144897" opacity="0.825329941366165" transform="matrix(0.9381955052456893,0.3461057554227981,-0.3461057554227981,0.9381955052456893,608.0863696850064,-5.294468555548804)" fill="#262626"></use><use xlink:href="#bbburst-shape-8" width="10.60160358374548" opacity="0.7886443627973299" transform="matrix(0.9979382375640901,-0.06418157062177474,0.06418157062177474,0.9979382375640901,275.3375277104371,-15.151774932353987)" fill="none" stroke="#262626"></use><use xlink:href="#bbburst-shape-8" width="20.81378679721417" opacity="0.3472325630317449" transform="matrix(0.8847783683339662,0.46601205877990387,-0.46601205877990387,0.8847783683339662,594.4661127416065,-251.99837409236846)" fill="none" stroke="#262626" filter="url(#bbburst-blur-2)"></use><use xlink:href="#bbburst-shape-8" width="6.701920856135648" opacity="0.8443530668620076" transform="matrix(0.79561366089507,-0.6058043434947825,0.6058043434947825,0.79561366089507,211.06102328205571,41.78114507138082)" fill="none" stroke="#262626"></use><use xlink:href="#bbburst-shape-10" width="5.853843909829237" opacity="0.9616253046070068" transform="matrix(0.979206826769031,-0.20286446314947548,0.20286446314947548,0.979206826769031,331.72444107471597,1.7994820168314618)" fill="none" stroke="#262626"></use><use xlink:href="#bbburst-shape-4" width="16.994326805025175" opacity="0.6140464408715722" transform="matrix(0.8994343168021904,0.43705595723954727,-0.43705595723954727,0.8994343168021904,400.837378138684,-13.442578781658767)" fill="#262626" filter="url(#bbburst-blur-1)"></use><use xlink:href="#bbburst-shape-7" width="22.029459143934083" opacity="0.4291884120836369" transform="matrix(0.9366070451969473,0.35038156756234123,-0.35038156756234123,0.9366070451969473,272.9182660987335,18.360776607557)" fill="#262626" filter="url(#bbburst-blur-2)"></use><use xlink:href="#bbburst-shape-10" width="18.27072880852133" opacity="0.622836703697121" transform="matrix(0.9121935172234702,0.40975966997189284,-0.40975966997189284,0.9121935172234702,427.73603933665913,-80.26467091666325)" fill="none" stroke="#262626" filter="url(#bbburst-blur-1)"></use><use xlink:href="#bbburst-shape-7" width="9.501958142415395" opacity="0.6710764451079855" transform="matrix(0.7904842386270966,-0.612482382181022,0.612482382181022,0.7904842386270966,290.8352467381388,37.572252484849116)" fill="#262626" filter="url(#bbburst-blur-1)"></use><use xlink:href="#bbburst-shape-12" width="21.843317566431434" opacity="0.4720115483149534" transform="matrix(0.8904753116550417,-0.45503155861198946,0.45503155861198946,0.8904753116550417,-23.502698126201096,101.13530700918005)" fill="none" stroke="#262626" filter="url(#bbburst-blur-2)"></use><use xlink:href="#bbburst-shape-4" width="7.199196128791932" opacity="0.914464459034915" transform="matrix(0.8631867514405052,0.504884771148415,-0.504884771148415,0.8631867514405052,615.378768019765,87.67186749206223)" fill="#262626"></use><use xlink:href="#bbburst-shape-1" width="30.67998294337412" opacity="0.3000202078809924" transform="matrix(1.247894184010924,0.07252658486176482,-0.07252658486176482,1.247894184010924,601.020658099826,150.13648268141753)" fill="#262626" filter="url(#bbburst-blur-3)"></use><use xlink:href="#bbburst-shape-10" width="6.5440486780372105" opacity="0.9570837594568097" transform="matrix(0.9772035816688659,-0.21230440403708117,0.21230440403708117,0.9772035816688659,317.40698272626014,-8.691539831284388)" fill="none" stroke="#262626"></use><use xlink:href="#bbburst-shape-7" width="19.547996712819288" opacity="0.16422971848412193" transform="matrix(0.9097920105665912,0.8571922173638769,-0.8571922173638769,0.9097920105665912,1108.5877893908867,-5.186103230404569)" fill="#262626" filter="url(#bbburst-blur-3)"></use><use xlink:href="#bbburst-shape-12" width="11.796428380319872" opacity="0.6499376693331322" transform="matrix(0.9886509979698964,0.15023050360405463,-0.15023050360405463,0.9886509979698964,409.7445853837143,-147.4738699189895)" fill="none" stroke="#262626" filter="url(#bbburst-blur-1)"></use><use xlink:href="#bbburst-shape-1" width="13.212938015595403" opacity="0.7282002618383094" transform="matrix(0.7486589210456788,-0.6629553679839392,0.6629553679839392,0.7486589210456788,35.465369342133386,27.179441135324055)" fill="#262626" filter="url(#bbburst-blur-1)"></use><use xlink:href="#bbburst-shape-8" width="7.623407994692739" opacity="0.8363623101968896" transform="matrix(0.9790254193133415,-0.20373813668122062,0.20373813668122062,0.9790254193133415,324.74353583483855,-63.79240341377323)" fill="none" stroke="#262626"></use><use xlink:href="#bbburst-shape-7" width="16.16119124255815" opacity="0.563067485832392" transform="matrix(0.9777986793748845,-0.20954651658458015,0.20954651658458015,0.9777986793748845,316.81983045946396,207.01229716878964)" fill="#262626" filter="url(#bbburst-blur-1)"></use><use xlink:href="#bbburst-shape-10" width="13.429647221601376" opacity="0.753680138147111" transform="matrix(0.7134192847509223,-0.7007374145466205,0.7007374145466205,0.7134192847509223,27.71838852828472,187.77158323594847)" fill="none" stroke="#262626" filter="url(#bbburst-blur-1)"></use><use xlink:href="#bbburst-shape-6" width="9.894934385095613" opacity="0.8375075349615212" transform="matrix(0.7209471199509461,-0.6929900794632173,0.6929900794632173,0.7209471199509461,81.89952476417432,177.92003747306705)" fill="#262626"></use><use xlink:href="#bbburst-shape-8" width="14.33221860586569" opacity="0.5508157752805589" transform="matrix(0.784925062825658,-0.6195907082487091,0.6195907082487091,0.784925062825658,138.4666121188584,-111.50162367451071)" fill="none" stroke="#262626" filter="url(#bbburst-blur-2)"></use><use xlink:href="#bbburst-shape-4" width="19.238091619109486" opacity="0.16629154786393252" transform="matrix(1.232700137751112,0.20724471136410105,-0.20724471136410105,1.232700137751112,97.36124027569731,-61.61273400516194)" fill="#262626" filter="url(#bbburst-blur-3)"></use><use xlink:href="#bbburst-shape-4" width="6.5165524460760995" opacity="0.9314698670599656" transform="matrix(0.9238404345652007,-0.38277780952189616,0.38277780952189616,0.9238404345652007,241.18308509258523,62.436800604281586)" fill="#262626"></use><use xlink:href="#bbburst-shape-1" width="20.575454726376936" opacity="0.5656400474241778" transform="matrix(0.7461594748371674,0.6657672552106498,-0.6657672552106498,0.7461594748371674,532.356528672449,243.92036605639152)" fill="#262626" filter="url(#bbburst-blur-1)"></use><use xlink:href="#bbburst-shape-10" width="24.59945804868091" opacity="-0.002232904164433114" transform="matrix(1.723640430006209,-0.30259489098134246,0.30259489098134246,1.723640430006209,-9.214644640165886,77.76112473475723)" fill="none" stroke="#262626" filter="url(#bbburst-blur-4)"></use><use xlink:href="#bbburst-shape-6" width="6.956173387404921" opacity="0.8007792855659157" transform="matrix(0.7860689964768726,-0.618138764985535,0.618138764985535,0.7860689964768726,238.4022038855449,72.75871721652067)" fill="#262626"></use><use xlink:href="#bbburst-shape-6" width="11.445872016349359" opacity="0.7940649301776587" transform="matrix(0.9998224326940927,0.018844178986272355,-0.018844178986272355,0.9998224326940927,336.61789757156197,-65.89346347316331)" fill="#262626"></use><use xlink:href="#bbburst-shape-7" width="26.794803886951446" opacity="0.4328638506071605" transform="matrix(0.8590311639199821,0.5119232944634193,-0.5119232944634193,0.8590311639199821,636.0020739996796,301.0658166074884)" fill="#262626" filter="url(#bbburst-blur-2)"></use><use xlink:href="#bbburst-shape-10" width="38.83412138059851" opacity="0.1348057006504333" transform="matrix(1.240614171922618,0.15289367686322725,-0.15289367686322725,1.240614171922618,74.83154962784481,-241.93129931148695)" fill="none" stroke="#262626" filter="url(#bbburst-blur-3)"></use><use xlink:href="#bbburst-shape-6" width="7.829176053407867" opacity="0.792335158456769" transform="matrix(0.8165314097204929,0.577301010686682,-0.577301010686682,0.8165314097204929,631.2374739766691,-22.255502751334575)" fill="#262626"></use><use xlink:href="#bbburst-shape-12" width="31.28006893181599" opacity="0.310437454057621" transform="matrix(1.1405352515694642,0.5115460291385118,-0.5115460291385118,1.1405352515694642,446.5211672129095,-341.0595365660975)" fill="none" stroke="#262626" filter="url(#bbburst-blur-3)"></use><use xlink:href="#bbburst-shape-6" width="16.577376888096296" opacity="0.6442984189631273" transform="matrix(0.8536282193117972,-0.5208827729869459,0.5208827729869459,0.8536282193117972,133.98214010365894,214.72724702287638)" fill="#262626" filter="url(#bbburst-blur-1)"></use><use xlink:href="#bbburst-shape-7" width="5.299846797368422" opacity="0.8639220592010095" transform="matrix(0.9788969885524269,-0.20435431437332038,0.20435431437332038,0.9788969885524269,376.7534278912885,5.043684933547638)" fill="#262626"></use><use xlink:href="#bbburst-shape-10" width="25.83657920350735" opacity="0.37793297678680715" transform="matrix(0.9248691958202078,-0.3802853805011207,0.3802853805011207,0.9248691958202078,514.7460149753903,60.00597385895378)" fill="none" stroke="#262626" filter="url(#bbburst-blur-2)"></use><use xlink:href="#bbburst-shape-4" width="28.300694261532943" opacity="0.4516687812723629" transform="matrix(0.9243186117390516,-0.38162167652374307,0.38162167652374307,0.9243186117390516,110.93224093796692,249.40182360362803)" fill="#262626" filter="url(#bbburst-blur-2)"></use><use xlink:href="#bbburst-shape-6" width="24.333395540823712" opacity="0.42157130142272903" transform="matrix(0.9324290482678566,-0.36135310977809404,0.36135310977809404,0.9324290482678566,314.9150562755626,-219.05373047689824)" fill="#262626" filter="url(#bbburst-blur-2)"></use><use xlink:href="#bbburst-shape-12" width="11.259566620629448" opacity="0.6958723351514277" transform="matrix(0.9932428166089015,-0.1160547597249515,0.1160547597249515,0.9932428166089015,356.71483918957597,-133.24269668017917)" fill="none" stroke="#262626" filter="url(#bbburst-blur-1)"></use><use xlink:href="#bbburst-shape-10" width="25.2088877282731" opacity="0.20123331659111776" transform="matrix(1.1701654429023638,-0.4395598209995025,0.4395598209995025,1.1701654429023638,555.3700819072251,-160.1164991692986)" fill="none" stroke="#262626" filter="url(#bbburst-blur-3)"></use><use xlink:href="#bbburst-shape-7" width="5.423426955676867" opacity="0.9501224241029038" transform="matrix(0.9944087648385329,-0.10559928225278449,0.10559928225278449,0.9944087648385329,363.8595547172182,23.16442245840949)" fill="#262626"></use><use xlink:href="#bbburst-shape-4" width="7.524854768016446" opacity="0.9031854668864925" transform="matrix(0.7517024704475551,-0.6595023850775996,0.6595023850775996,0.7517024704475551,94.55447748115466,121.57884317112803)" fill="#262626"></use><use xlink:href="#bbburst-shape-12" width="17.42865315445526" opacity="0.6305602220381947" transform="matrix(0.8608218522292763,0.5089064145052192,-0.5089064145052192,0.8608218522292763,628.9529393491378,214.17414684826957)" fill="none" stroke="#262626" filter="url(#bbburst-blur-1)"></use><use xlink:href="#bbburst-shape-12" width="8.895690586839201" opacity="0.7024702064256193" transform="matrix(0.9799222256282898,-0.19938011866708039,0.19938011866708039,0.9799222256282898,368.29480123583943,-114.30274864361598)" fill="none" stroke="#262626" filter="url(#bbburst-blur-1)"></use><use xlink:href="#bbburst-shape-4" width="23.839011721404038" opacity="0.4068391265681023" transform="matrix(0.7826951092347768,0.6224053068378842,-0.6224053068378842,0.7826951092347768,409.5058581619949,-55.740287602469266)" fill="#262626" filter="url(#bbburst-blur-2)"></use><use xlink:href="#bbburst-shape-12" width="33.192691709395554" opacity="0.1785515005983911" transform="matrix(1.0985603756230653,-0.5963766436664919,0.5963766436664919,1.0985603756230653,-222.39956813731098,-84.30143614439027)" fill="none" stroke="#262626" filter="url(#bbburst-blur-3)"></use><use xlink:href="#bbburst-shape-4" width="9.414872444517972" opacity="0.8385497590906165" transform="matrix(0.8308072742554897,0.5565602151107852,-0.5565602151107852,0.8308072742554897,573.1682679794268,8.455881946868544)" fill="#262626"></use><use xlink:href="#bbburst-shape-12" width="10.749493290730221" opacity="0.6933620838651517" transform="matrix(0.978737232639743,0.20511808658598965,-0.20511808658598965,0.978737232639743,609.9441818441849,43.58571486253834)" fill="none" stroke="#262626" filter="url(#bbburst-blur-1)"></use><use xlink:href="#bbburst-shape-4" width="22.34763815005874" opacity="0.1259147491171032" transform="matrix(1.1089515093071267,-0.5768245400513449,0.5768245400513449,1.1089515093071267,295.2712672794773,-405.3054631540258)" fill="#262626" filter="url(#bbburst-blur-3)"></use><use xlink:href="#bbburst-shape-10" width="30.46881888853788" opacity="0.31451829237298334" transform="matrix(1.1592080035296273,-0.467693066607637,0.467693066607637,1.1592080035296273,117.03875880799083,-354.9416975228527)" fill="none" stroke="#262626" filter="url(#bbburst-blur-3)"></use><use xlink:href="#bbburst-shape-4" width="28.681862098216918" opacity="0.16020644503648285" transform="matrix(1.236437318601641,-0.18363757014615562,0.18363757014615562,1.236437318601641,76.09199597329142,205.83628905376895)" fill="#262626" filter="url(#bbburst-blur-3)"></use></svg>