<svg xmlns="http://www.w3.org/2000/svg" version="1.1" xmlns:xlink="http://www.w3.org/1999/xlink" xmlns:svgjs="http://svgjs.dev/svgjs" viewBox="0 0 800 800"><defs><filter id="ssspot-filter" x="-20%" y="-20%" width="140%" height="140%" filterUnits="objectBoundingBox" primitiveUnits="userSpaceOnUse" color-interpolation-filters="sRGB">
	<feTurbulence type="turbulence" baseFrequency="0.022 0.218" numOctaves="2" seed="252" stitchTiles="stitch" x="0%" y="0%" width="100%" height="100%" result="turbulence"></feTurbulence>
	<feGaussianBlur stdDeviation="0 3" x="0%" y="0%" width="100%" height="100%" in="turbulence" edgeMode="duplicate" result="blur"></feGaussianBlur>
	<feDisplacementMap in="SourceGraphic" in2="blur" scale="32" xChannelSelector="R" yChannelSelector="B" x="0%" y="0%" width="100%" height="100%" result="displacementMap"></feDisplacementMap>
</filter></defs><rect width="100%" height="100%" fill="#171717"></rect><g fill="#262626" filter="url(#ssspot-filter)"><circle r="4.764533769932925" cx="418.18704846037673" cy="788.019324926889" opacity="0.21801885597549886"></circle><circle r="5.296288249835572" cx="180.04113908313406" cy="349.92575371573764" opacity="0.13346231460229144"></circle><circle r="5.153311597582943" cx="212.5836418267134" cy="520.0105569576218" opacity="0.921533448997937"></circle><circle r="4.676685392170734" cx="582.1329365620711" cy="747.8540250076549" opacity="0.2766968392285201"></circle><circle r="5.493623583675809" cx="327.7650019277531" cy="754.8959685327563" opacity="0.9925357611830421"></circle><circle r="5.692047811150922" cx="585.1962126340075" cy="334.44789269875884" opacity="0.66692224153818"></circle><circle r="6.779608484827763" cx="207.2430105822404" cy="279.42203009511127" opacity="0.8304141662829727"></circle><circle r="6.129729269942332" cx="421.92655034326214" cy="394.0465396480891" opacity="0.7376712474470262"></circle><circle r="3.5082819608403364" cx="570.1815945548452" cy="441.96727396297405" opacity="0.22759731325907312"></circle><circle r="7.145341348860587" cx="449.55730591579925" cy="471.2868260611569" opacity="0.3543499346651695"></circle><circle r="10.190524089089319" cx="304.36363075445223" cy="709.1716207870987" opacity="0.2891509040490632"></circle><circle r="4.93029205877598" cx="378.5264837440441" cy="267.8745731983217" opacity="0.40413557987953785"></circle><circle r="5.3830681985326905" cx="176.51660484157705" cy="257.6777425170443" opacity="0.6741373353118654"></circle><circle r="7.619110247563093" cx="150.3386489507702" cy="384.92313703792956" opacity="0.8535547919844804"></circle><circle r="5.893124355287838" cx="754.2977609654125" cy="573.6154342166508" opacity="0.28543117278426366"></circle><circle r="6.962739482459719" cx="438.73496621591187" cy="106.60923231665582" opacity="0.552390810464722"></circle><circle r="4.887916947710434" cx="647.8802815479595" cy="651.5219152102857" opacity="0.9802292756500959"></circle><circle r="3.98072272888342" cx="496.16132650268844" cy="473.004132444847" opacity="0.5174073870463072"></circle><circle r="5.049697411043947" cx="99.23369151431581" cy="60.25738457428033" opacity="0.890149782901568"></circle><circle r="9.16547074271508" cx="88.4641421613459" cy="343.81351053127986" opacity="0.7031063570979564"></circle><circle r="2.605615582327682" cx="709.1555606814669" cy="622.8045265717077" opacity="0.640474173787544"></circle><circle r="4.631891023133913" cx="672.445014077844" cy="34.212944239016856" opacity="0.7116022157775332"></circle><circle r="7.278705607516663" cx="246.47954959914668" cy="267.6085647218448" opacity="0.510032908359456"></circle><circle r="6.539674778194575" cx="284.6682733702166" cy="363.85753459154586" opacity="0.33618015385568545"></circle><circle r="5.397516398006569" cx="188.10895348250318" cy="753.4160970725318" opacity="0.7857211468850145"></circle><circle r="5.627544261045487" cx="551.8892101541217" cy="644.3220699346142" opacity="0.37874787762335893"></circle><circle r="3.876165219429747" cx="210.11706453250716" cy="762.6061292821518" opacity="0.9866228634214811"></circle><circle r="6.507141352719012" cx="720.1980061925184" cy="81.36947975006701" opacity="0.4705823278879091"></circle><circle r="6.3960294867027745" cx="558.0079463442537" cy="722.1495438554034" opacity="0.3049135664427657"></circle><circle r="3.1408574508523883" cx="649.0748497955544" cy="709.3806283678455" opacity="0.43466407376951643"></circle><circle r="4.832755074924551" cx="677.5793773414566" cy="709.4202193478152" opacity="0.1662635170559213"></circle><circle r="3.7285070400962885" cx="778.4841240713328" cy="71.23046101196502" opacity="0.22284101043101928"></circle><circle r="7.63811627188491" cx="677.3371168950558" cy="159.36740311490988" opacity="0.5371229933989052"></circle><circle r="4.084462676649638" cx="710.929730556438" cy="721.286492435863" opacity="0.36378725730310735"></circle><circle r="5.362826395170323" cx="396.0821678407813" cy="732.7642034546753" opacity="0.8046307602865933"></circle><circle r="7.855634841994997" cx="154.69352062286848" cy="775.8720128328536" opacity="0.942356436296139"></circle><circle r="6.7512785216293025" cx="311.74002563149924" cy="301.41174404545137" opacity="0.11761496433764057"></circle><circle r="5.196649597944114" cx="785.6679635195709" cy="736.7594638344999" opacity="0.8809975253596086"></circle><circle r="7.526410697620651" cx="527.8632832631342" cy="29.59605407568344" opacity="0.6608537324094063"></circle><circle r="2.993619416308368" cx="521.6372770928625" cy="430.87245096809806" opacity="0.2687974628141968"></circle><circle r="4.238496998362372" cx="345.01169367150396" cy="206.5283469748839" opacity="0.6623639746909322"></circle><circle r="6.269314710399774" cx="357.9823747011774" cy="66.23612643694733" opacity="0.8894921029776902"></circle><circle r="3.0705070493987145" cx="374.4865162210496" cy="396.474393645229" opacity="0.7930143456362673"></circle><circle r="5.083086437165796" cx="687.182211506655" cy="395.0852061136939" opacity="0.7607167970027469"></circle><circle r="7.769594634670817" cx="164.27428156702405" cy="16.08524359773132" opacity="0.3466785177227122"></circle><circle r="7.535092472177007" cx="99.43404862007091" cy="17.204867589589618" opacity="0.7245641586630741"></circle><circle r="5.2864963155608224" cx="340.23552660180803" cy="107.9501682834096" opacity="0.9586547133745107"></circle><circle r="6.44722056479821" cx="315.62158867101664" cy="672.0553142112229" opacity="0.4941626061340286"></circle><circle r="3.70227599313339" cx="520.0663241796451" cy="598.8026718061104" opacity="0.9349489234007652"></circle><circle r="3.258593104028088" cx="653.6289948663617" cy="733.3839116201917" opacity="0.9265699014225294"></circle><circle r="8.337062919839425" cx="713.6160555211476" cy="369.4368678753375" opacity="0.24409380399968345"></circle><circle r="5.168899292459317" cx="469.24467920478594" cy="616.9686845878928" opacity="0.8280151471315926"></circle><circle r="6.05147604013929" cx="339.46821236091347" cy="564.5373613566799" opacity="0.19775321748786456"></circle><circle r="3.9240508538435748" cx="307.7171138760139" cy="785.994634924423" opacity="0.407256866662557"></circle><circle r="7.159299118048045" cx="159.13885421640262" cy="215.08021662590747" opacity="0.6457625366733047"></circle><circle r="7.869048937732737" cx="526.5058662492683" cy="171.712575040508" opacity="0.974065923826521"></circle><circle r="3.025768132211272" cx="342.29489624997467" cy="356.8975396746616" opacity="0.33917517262237845"></circle><circle r="3.7122912137402193" cx="618.194647605005" cy="664.3798862061732" opacity="0.3680771062654705"></circle><circle r="5.753228786336797" cx="607.0886225161888" cy="114.42798272613983" opacity="0.21258433929112006"></circle><circle r="5.249346213853181" cx="170.8400741626127" cy="114.55959809746967" opacity="0.9474556914609958"></circle><circle r="4.375521491851053" cx="194.3356320732868" cy="681.6111976196452" opacity="0.9770218868608006"></circle><circle r="3.9931617465731004" cx="785.866344939794" cy="120.646899567779" opacity="0.21161005567739594"></circle><circle r="6.7870471950444" cx="304.9839280367764" cy="218.62886324839633" opacity="0.36760012332783054"></circle><circle r="3.8591246821951177" cx="790.996686329993" cy="436.78701446648313" opacity="0.5868149834107751"></circle><circle r="6.447269330770947" cx="17.195858422643287" cy="452.7143526689454" opacity="0.8963379682671915"></circle><circle r="3.7307241012108268" cx="341.84384232399924" cy="382.4438454580671" opacity="0.10922175146020266"></circle><circle r="4.863595415032254" cx="410.93223673861183" cy="157.87501480583342" opacity="0.13630006346274517"></circle><circle r="6.745836237168947" cx="395.36720682873045" cy="110.37380999374172" opacity="0.441549836855867"></circle><circle r="4.727221426829831" cx="750.1953701674692" cy="707.772863049565" opacity="0.7964369741192489"></circle><circle r="4.977207236216286" cx="495.14655832423017" cy="562.411662906173" opacity="0.3932833940988727"></circle><circle r="9.145257069387835" cx="681.5164131160192" cy="668.6853599832446" opacity="0.35868386509111505"></circle><circle r="8.31613011542411" cx="736.2397196874117" cy="402.59844637511105" opacity="0.4861236090382842"></circle><circle r="4.895072182828313" cx="502.9013347529124" cy="534.2461133182906" opacity="0.7303087473991174"></circle><circle r="4.662775084020638" cx="616.6623729232745" cy="524.0487912651048" opacity="0.2087058539641456"></circle><circle r="3.7568368700628514" cx="586.4475243640566" cy="382.36915680956827" opacity="0.6807778092285452"></circle><circle r="3.0380649086563483" cx="127.9779706679757" cy="717.6961728292629" opacity="0.3074999384139119"></circle><circle r="3.545180170802693" cx="208.45360717259396" cy="62.26077195510471" opacity="0.47793746245259183"></circle><circle r="7.464986460853382" cx="190.69892754356263" cy="607.2198243048877" opacity="0.8647971064754446"></circle><circle r="5.8537912693913885" cx="737.2201408405737" cy="203.74565446530303" opacity="0.30542355131135046"></circle><circle r="8.286890141515702" cx="440.91370250263896" cy="420.56242222622143" opacity="0.2222328686248492"></circle><circle r="4.780432953170468" cx="10.918039947391742" cy="572.3261723231886" opacity="0.6307095357843978"></circle><circle r="4.758742869356983" cx="467.8781059841585" cy="582.6246690967919" opacity="0.13125303345457576"></circle><circle r="7.128667181260473" cx="783.3211590975061" cy="474.1026435399471" opacity="0.10715647168844278"></circle><circle r="4.931034756546349" cx="670.9716920815097" cy="296.7964514895196" opacity="0.19831323128738176"></circle><circle r="4.078549764487025" cx="786.4669029438156" cy="198.27689034502177" opacity="0.48770926307874407"></circle><circle r="5.713075811652667" cx="56.45776751976668" cy="610.9096437724625" opacity="0.7094852493053679"></circle><circle r="4.495271317327932" cx="273.42495290723963" cy="338.6598494339226" opacity="0.42866074635814333"></circle><circle r="2.721313022293935" cx="618.141670917835" cy="790.6851397030845" opacity="0.5371203024530855"></circle><circle r="3.994063732766074" cx="154.87681882275118" cy="712.6178800564811" opacity="0.3369113623460067"></circle><circle r="3.8989077024416727" cx="546.188023143266" cy="423.1763688077947" opacity="0.8409125032670585"></circle><circle r="7.190115633116793" cx="581.4568736114747" cy="99.79779268563273" opacity="0.3295816517067852"></circle><circle r="6.823315497297097" cx="753.2122752589319" cy="91.92674618249137" opacity="0.73728781343737"></circle><circle r="6.374018511286723" cx="495.2690702959648" cy="608.8888178455069" opacity="0.47708664289757274"></circle><circle r="8.36233644735806" cx="36.82170556042739" cy="255.103609822924" opacity="0.6631243645441744"></circle><circle r="5.541947546192004" cx="393.55771796800406" cy="219.59597583493738" opacity="0.44159808523220057"></circle><circle r="5.93380317569869" cx="111.79446037623966" cy="87.35655451098047" opacity="0.767673454710917"></circle><circle r="5.509745339697126" cx="84.22451996165435" cy="596.1629722518136" opacity="0.2860363365764665"></circle><circle r="6.124627169384318" cx="571.578386308962" cy="486.79334018892393" opacity="0.8401499767753117"></circle><circle r="6.044521930032509" cx="708.4757609185621" cy="312.27076425558425" opacity="0.3409898224814223"></circle><circle r="6.958617168250331" cx="451.5589009531708" cy="781.5022499096954" opacity="0.7285145051967802"></circle><circle r="5.6746758574605805" cx="465.4457247115431" cy="21.92721020908009" opacity="0.13652214097375126"></circle><circle r="4.143095159176962" cx="779.5865016111087" cy="405.6669840036753" opacity="0.6657554950129554"></circle><circle r="3.0705729073973416" cx="605.9408563176517" cy="731.2500741611748" opacity="0.10004730683958818"></circle><circle r="5.403393836651151" cx="690.8268491271464" cy="103.0990097399199" opacity="0.25084046249749614"></circle><circle r="4.021806249905073" cx="171.2688552308095" cy="78.40100324482248" opacity="0.8797408431244962"></circle><circle r="9.51053071733664" cx="70.52057561818528" cy="93.56066367594167" opacity="0.9089077867416463"></circle><circle r="8.621959490121831" cx="628.5504613961406" cy="314.2571523563505" opacity="0.23116637667558987"></circle><circle r="4.922753136701512" cx="304.69537420547636" cy="17.01302424129739" opacity="0.6728406480281476"></circle><circle r="5.881163130133826" cx="170.141652379187" cy="697.550487020707" opacity="0.21449561567268843"></circle><circle r="6.012511042040645" cx="310.27835017530185" cy="547.9955112193584" opacity="0.47793029335265136"></circle><circle r="7.577292611622216" cx="607.7039748651099" cy="165.28342943320652" opacity="0.9843052394025861"></circle><circle r="5.35823658722226" cx="160.43490153968972" cy="306.88091987782633" opacity="0.3087463338009845"></circle><circle r="4.540114602224091" cx="520.2290250988475" cy="553.9068287067214" opacity="0.5680747565100186"></circle><circle r="6.384871290673364" cx="313.36686106662097" cy="102.72610801563363" opacity="0.6664247839158222"></circle><circle r="5.0952044154299925" cx="205.94955389736614" cy="466.0543176730845" opacity="0.6948433860586014"></circle><circle r="7.283076400125438" cx="700.5584482525744" cy="252.46103027084465" opacity="0.2907076198254126"></circle><circle r="2.610778689504319" cx="9.213796098073525" cy="19.7158217421223" opacity="0.5840525190954674"></circle><circle r="3.1262907236095345" cx="449.24938588410316" cy="604.5186533303988" opacity="0.6246943272269112"></circle><circle r="4.271345712570941" cx="644.443967457191" cy="449.32046589856185" opacity="0.4267729593822742"></circle><circle r="3.0192423280935143" cx="266.37772073153525" cy="729.7366004153962" opacity="0.12836594262501672"></circle><circle r="3.4251565965461546" cx="523.8029242125467" cy="366.56342504650087" opacity="0.8649721082019619"></circle><circle r="7.239488421999974" cx="488.30261166673785" cy="272.5739747209072" opacity="0.6296677406913413"></circle><circle r="4.130663520197327" cx="302.66239011345414" cy="622.7031802151815" opacity="0.16450758364760537"></circle><circle r="3.2927104915823904" cx="667.6364994046752" cy="88.01384109979983" opacity="0.6982630383063805"></circle><circle r="4.839971376787624" cx="262.25580963975517" cy="706.2994361578411" opacity="0.4597951208254184"></circle><circle r="5.084265672171848" cx="616.1053470927224" cy="62.364429198227064" opacity="0.48431294773038647"></circle><circle r="6.324082566679177" cx="98.45842200923441" cy="227.86267821887387" opacity="0.9352397602281071"></circle><circle r="3.671405787605146" cx="721.1150287568132" cy="336.22383471491855" opacity="0.9274746886081275"></circle><circle r="7.245932052282742" cx="386.6640447976482" cy="460.9366219894898" opacity="0.26143531991177216"></circle><circle r="4.710141752530245" cx="432.7751906385198" cy="16.924283583208865" opacity="0.25170980494971984"></circle><circle r="5.306669316444374" cx="462.1685937712182" cy="159.22994200958712" opacity="0.9925240342439234"></circle><circle r="3.804258679219855" cx="192.63791145519065" cy="229.7440372789144" opacity="0.691345973520992"></circle><circle r="5.378984731491007" cx="655.8049973345569" cy="14.100272190053012" opacity="0.8461287512000321"></circle><circle r="5.380828858017139" cx="404.56450193809286" cy="767.7635677984388" opacity="0.5552683694809357"></circle><circle r="6.293339150315487" cx="540.00192708971" cy="64.51466855595017" opacity="0.7168948640977871"></circle><circle r="5.8690410550609755" cx="753.5490717416745" cy="738.9931239052563" opacity="0.9270590192355179"></circle><circle r="5.661725117771189" cx="501.70864947862196" cy="347.40496317482626" opacity="0.7422057861430076"></circle><circle r="3.853282687169037" cx="304.07356189220815" cy="581.6437309107512" opacity="0.7994966133316296"></circle><circle r="6.476906648441709" cx="176.65320692138752" cy="46.966510560756035" opacity="0.11598303148050412"></circle><circle r="4.756723392965908" cx="607.5832335562495" cy="700.3384841219887" opacity="0.932838250083508"></circle><circle r="4.6212286389668655" cx="243.40412367410627" cy="413.49522759013684" opacity="0.33676529027797697"></circle><circle r="5.355600960990355" cx="174.47425098077863" cy="189.04714889093893" opacity="0.7028709254845467"></circle><circle r="6.085997925346121" cx="713.3665970397592" cy="520.9956907111809" opacity="0.9639788561663003"></circle><circle r="5.457494063997828" cx="671.3106319541897" cy="548.0799124563214" opacity="0.8693266457433485"></circle><circle r="5.946136800405222" cx="362.97921762885653" cy="626.2174327319518" opacity="0.5085386346525016"></circle><circle r="5.657900242154502" cx="203.8061803891223" cy="156.87556581412008" opacity="0.31561351256470727"></circle><circle r="4.591940325093422" cx="551.4678511769558" cy="103.40311441471063" opacity="0.163177836152328"></circle><circle r="5.8544483911579155" cx="524.7794296412479" cy="627.91489095446" opacity="0.6336677705107087"></circle><circle r="5.529628955853907" cx="83.72797547084069" cy="381.1286069577623" opacity="0.7543526729816777"></circle><circle r="2.7564466856271603" cx="25.378016325115514" cy="661.6925743358721" opacity="0.47226790218789494"></circle><circle r="7.982219028991812" cx="713.5016559443427" cy="689.8259882957207" opacity="0.7769356770976027"></circle><circle r="6.268958915942858" cx="615.0336873726118" cy="366.36827698696135" opacity="0.6127258388651227"></circle><circle r="7.213391129697818" cx="612.9552591021396" cy="480.3310731034964" opacity="0.1637949146122909"></circle><circle r="6.956115839291248" cx="113.90765773093138" cy="675.8884010471866" opacity="0.6909152460871668"></circle><circle r="2.661201737671042" cx="595.5964332785356" cy="637.6186821212782" opacity="0.47820811639381544"></circle><circle r="7.857935234665241" cx="649.560541360497" cy="372.3143848738599" opacity="0.1852383460777288"></circle><circle r="8.253024725407633" cx="207.2544607622568" cy="195.85060115807732" opacity="0.21449733085972406"></circle><circle r="5.039162599790488" cx="429.65820630642355" cy="228.9285963766772" opacity="0.12024540991327015"></circle><circle r="4.5364656659450375" cx="76.35856484600346" cy="415.9301649131742" opacity="0.5894298478601253"></circle><circle r="7.100706260083462" cx="735.0452387819787" cy="663.2103444295572" opacity="0.23310467018815556"></circle><circle r="5.348314050211945" cx="787.7873217663611" cy="176.03022775591296" opacity="0.43398574126788303"></circle><circle r="4.773416166618298" cx="149.14089921770972" cy="249.4280173883256" opacity="0.5913875326141758"></circle><circle r="8.562768553526665" cx="120.6670592667575" cy="414.8580641536577" opacity="0.27054480490850435"></circle><circle r="8.27185518124967" cx="606.4627683312699" cy="21.669063987042776" opacity="0.5495731843502554"></circle><circle r="8.273134399672802" cx="637.5573884538871" cy="234.0674141795661" opacity="0.5272950189378487"></circle><circle r="3.920817578779332" cx="547.8032358173641" cy="755.9698713045526" opacity="0.4763012377225879"></circle><circle r="6.280448256160938" cx="267.4972200315243" cy="83.89959041142394" opacity="0.4461581473088324"></circle><circle r="7.850536340125666" cx="418.6371139861485" cy="53.10148111678607" opacity="0.7647342304138068"></circle><circle r="3.256038498521649" cx="185.77350408435458" cy="717.6702643544644" opacity="0.6157960318231464"></circle><circle r="7.686175082518003" cx="38.79640442062599" cy="576.1415862015591" opacity="0.39940775173073073"></circle><circle r="5.213466074513188" cx="209.47974157929653" cy="421.47930219147463" opacity="0.7379965389218318"></circle><circle r="4.357940608306985" cx="565.4572421380059" cy="780.7568937889112" opacity="0.5835431809949266"></circle><circle r="3.4403098903262963" cx="673.0705223617942" cy="634.1064704327472" opacity="0.7786648724199353"></circle><circle r="5.548239309788715" cx="190.44279344831367" cy="308.31363356357446" opacity="0.4563706361453914"></circle><circle r="2.440720690943878" cx="479.42628099534704" cy="568.1243764381247" opacity="0.28967098465932206"></circle><circle r="6.177526498375917" cx="399.13580418244106" cy="591.6207906421946" opacity="0.16631429531975656"></circle><circle r="5.835335472518713" cx="449.76440340261007" cy="372.20391822665437" opacity="0.7314665884118909"></circle><circle r="6.11164670275347" cx="421.20595509003596" cy="305.35663201831613" opacity="0.2149053456049063"></circle><circle r="8.780116701726268" cx="198.76986671210264" cy="384.70283779323273" opacity="0.5744068097295785"></circle><circle r="5.940703800318683" cx="224.7623687444396" cy="696.6186452323318" opacity="0.4211859317822195"></circle><circle r="6.537053655425198" cx="148.9429942851058" cy="639.168496561349" opacity="0.43796183969097024"></circle><circle r="3.6742745100915895" cx="736.3260298956598" cy="14.625208371328393" opacity="0.862422556699094"></circle><circle r="9.037068961271698" cx="484.546043632181" cy="319.17747481156374" opacity="0.9314066316843284"></circle><circle r="5.7452785154896135" cx="49.765212799647266" cy="479.2273806153296" opacity="0.8477497043962168"></circle><circle r="2.899866226805341" cx="721.883766268152" cy="639.5349489107999" opacity="0.4678521811733394"></circle><circle r="4.2685520432833055" cx="572.262069895704" cy="411.8842614215597" opacity="0.9113207709016394"></circle><circle r="8.278036322507337" cx="656.0566222916399" cy="264.7664544633518" opacity="0.5082220409908804"></circle><circle r="4.370995508393275" cx="507.14600012848507" cy="509.4714824693908" opacity="0.7977601360925437"></circle><circle r="4.057356280305131" cx="682.1272087563503" cy="785.1942440514579" opacity="0.7274420547375594"></circle><circle r="5.188476371488797" cx="660.8156548259823" cy="523.214054247562" opacity="0.9763434128611302"></circle><circle r="5.909266537019834" cx="543.731565481563" cy="676.7432884646897" opacity="0.9798389279183722"></circle><circle r="4.148144518434553" cx="220.1406454245026" cy="241.59716100823428" opacity="0.8216716176465928"></circle><circle r="4.989553481228655" cx="612.678589288531" cy="409.97075298327763" opacity="0.8918131519557698"></circle><circle r="4.5307879162661076" cx="553.8189184527408" cy="386.08660595882077" opacity="0.8899388528611492"></circle><circle r="8.810393800168029" cx="579.9658053160018" cy="59.65296776831792" opacity="0.8206292547720263"></circle><circle r="8.425718261722212" cx="455.2152974588998" cy="68.9941102360728" opacity="0.2824987461798517"></circle><circle r="3.9892511491470826" cx="207.84177011113346" cy="730.0095154628139" opacity="0.6166752066333137"></circle><circle r="5.85947062522044" cx="14.043337285563418" cy="681.7850015772229" opacity="0.441561185179847"></circle><circle r="4.510207840749536" cx="263.6167394689665" cy="126.35698004171303" opacity="0.9223696533305829"></circle><circle r="4.5634178506883565" cx="47.68210796499665" cy="55.772387938542835" opacity="0.6950001306654346"></circle><circle r="5.277417317588959" cx="633.8766524560837" cy="83.12463536913087" opacity="0.7520880175328426"></circle><circle r="6.345298226865362" cx="117.5652256554193" cy="640.8826737425254" opacity="0.5622389136833505"></circle><circle r="4.099442116210941" cx="325.2605271175388" cy="406.4273520586333" opacity="0.16192274675268623"></circle><circle r="5.824522640193046" cx="51.92618596637824" cy="190.89499960538285" opacity="0.8837453654479485"></circle><circle r="4.861497145255156" cx="240.9167598513975" cy="764.4430258413289" opacity="0.8089729039830929"></circle><circle r="3.607932447489114" cx="631.8086959556703" cy="153.14478206912494" opacity="0.3930665559044254"></circle><circle r="3.1607341279181815" cx="206.02935874863604" cy="35.18005951144269" opacity="0.8505594565226076"></circle><circle r="6.364973641464406" cx="234.53691062267117" cy="732.9631787787877" opacity="0.9081525412115372"></circle><circle r="4.616685159358964" cx="409.27285014720655" cy="360.59634565787036" opacity="0.7226175276312141"></circle><circle r="5.294431233622693" cx="275.62881272237405" cy="196.97266386547463" opacity="0.7164279700672295"></circle><circle r="5.601502279290623" cx="647.9198852483979" cy="138.78036981428346" opacity="0.7898898669656819"></circle><circle r="3.120529370214499" cx="231.60381925790696" cy="585.0295760056943" opacity="0.613929467626452"></circle><circle r="4.983159481027859" cx="651.0362490639477" cy="471.33446659479085" opacity="0.45871101168443396"></circle><circle r="4.187911407803826" cx="305.6698183214793" cy="384.9401079725875" opacity="0.4944302389673688"></circle><circle r="7.807819789853728" cx="771.4476051794043" cy="376.8168909799108" opacity="0.6174143496508468"></circle><circle r="5.732248270088171" cx="167.0868540019898" cy="742.7520633395541" opacity="0.38007770562382315"></circle><circle r="4.038835281019069" cx="141.40371659058084" cy="742.3830027761855" opacity="0.35115474453967854"></circle><circle r="6.825394742975114" cx="369.1388976281126" cy="561.4133043996159" opacity="0.3843941979751222"></circle><circle r="3.346933594767472" cx="226.0646377412733" cy="605.1553599258673" opacity="0.6860272601777314"></circle><circle r="9.210419336865868" cx="79.01513450082247" cy="777.1184576225751" opacity="0.8817386098478989"></circle><circle r="5.225471061794763" cx="22.83081323242846" cy="409.6645991896589" opacity="0.5958938523524901"></circle><circle r="7.084840022417483" cx="528.8639339405278" cy="130.82780391177417" opacity="0.8834253717682439"></circle><circle r="7.599234436271246" cx="568.2477741697301" cy="302.45888143787647" opacity="0.6457709055670641"></circle><circle r="4.791885835164681" cx="290.1784681014349" cy="658.8927196883278" opacity="0.3544943053982885"></circle><circle r="6.68158727759195" cx="371.5574221128905" cy="661.3012884562476" opacity="0.663235736273647"></circle><circle r="7.24235182723212" cx="191.51909064204705" cy="496.7151430684203" opacity="0.8853931032898331"></circle><circle r="6.532447747816525" cx="640.628950907812" cy="782.7699066768348" opacity="0.5736787631613299"></circle><circle r="4.447539135899637" cx="709.6919789518679" cy="150.21300638879075" opacity="0.6109552653847717"></circle><circle r="4.89480317973898" cx="686.7665155162273" cy="571.7364685209192" opacity="0.931524362183872"></circle><circle r="6.067677144694926" cx="561.9251050685866" cy="20.283578420098642" opacity="0.8123474707932565"></circle><circle r="4.437095013626344" cx="417.88661297605887" cy="134.75429454085838" opacity="0.8082248353231809"></circle><circle r="4.498475731900918" cx="304.9173691474677" cy="476.0870902680671" opacity="0.579923290021642"></circle><circle r="4.498866262595083" cx="285.35807907389045" cy="747.3463344941482" opacity="0.3110518869357935"></circle><circle r="4.4458163125796055" cx="321.69901786818525" cy="180.20307361113575" opacity="0.26655438313983515"></circle><circle r="7.561674869960143" cx="784.74625071868" cy="347.2600041750139" opacity="0.8385801231851577"></circle><circle r="6.294403914955936" cx="353.9696756371925" cy="456.82475756566447" opacity="0.9715715421620541"></circle><circle r="4.442652959490632" cx="261.6296874872448" cy="629.8637484389077" opacity="0.5865191610240189"></circle><circle r="4.616430777601838" cx="536.0394449217372" cy="574.0917561335073" opacity="0.45394213395536387"></circle><circle r="7.469641228425912" cx="750.2890770260104" cy="457.7725511334437" opacity="0.373034722910661"></circle><circle r="8.833277711408318" cx="125.2151684335776" cy="602.8854004864663" opacity="0.6625846322735901"></circle><circle r="4.8613812882060925" cx="501.28922351856136" cy="718.144662240869" opacity="0.9141079949577582"></circle><circle r="4.978299524190239" cx="752.9611494990556" cy="337.7089772823276" opacity="0.4487969352612664"></circle><circle r="7.157934739771475" cx="566.733275029677" cy="693.8627981670126" opacity="0.94471544792562"></circle><circle r="4.078469192760564" cx="276.72202659329434" cy="783.965168392538" opacity="0.6191052008399404"></circle><circle r="7.339576669710565" cx="291.50724006303943" cy="167.67812094045613" opacity="0.5704234396345661"></circle><circle r="4.171090780295298" cx="287.89212440345057" cy="101.67686750258027" opacity="0.8004970514328347"></circle><circle r="6.806261563473142" cx="671.3047181369501" cy="338.89373581193723" opacity="0.5752734130348497"></circle><circle r="4.699821391990003" cx="473.8302792660419" cy="402.2251434047742" opacity="0.71605964033875"></circle><circle r="3.5523855820833625" cx="713.2694288964939" cy="116.28045357770077" opacity="0.5324206140949338"></circle><circle r="7.871742327472823" cx="464.5738792914645" cy="241.91200913993794" opacity="0.3442473354388348"></circle><circle r="4.976914753905721" cx="393.57949330162097" cy="302.5731166490385" opacity="0.8953943620063647"></circle><circle r="6.099052605738525" cx="482.3862794500617" cy="129.31337902326436" opacity="0.3584169745078781"></circle><circle r="7.7579249992783055" cx="692.7034540238432" cy="59.255778406292286" opacity="0.750226201343036"></circle><circle r="6.96317933744707" cx="53.14319559047075" cy="536.5069079376163" opacity="0.3996271307852026"></circle><circle r="5.149284697074072" cx="382.74335228186436" cy="184.9718697013319" opacity="0.16837079760194107"></circle><circle r="6.573218346598133" cx="367.15131045977154" cy="294.45308071607724" opacity="0.43841335004242143"></circle><circle r="5.390807151109031" cx="786.4698411805447" cy="151.080803342425" opacity="0.6115455956702673"></circle><circle r="3.3268841033086165" cx="247.1707305281976" cy="789.4370497394815" opacity="0.8587798402658074"></circle><circle r="7.108740794956503" cx="452.7744099330526" cy="292.7161795594489" opacity="0.5330122424236451"></circle><circle r="3.9197000451078066" cx="224.93382332306902" cy="629.2958636173527" opacity="0.5058067654963946"></circle><circle r="4.1950800784389735" cx="114.6007117909211" cy="250.23669770629212" opacity="0.6523176389826445"></circle><circle r="5.9859538861726955" cx="235.57891538080833" cy="459.1143864381131" opacity="0.3653422577212275"></circle><circle r="3.2171069584947687" cx="788.6320201743667" cy="230.12160784619792" opacity="0.6742973389089935"></circle><circle r="8.59250376258719" cx="15.930882978079707" cy="205.4780523585595" opacity="0.4392246953259532"></circle><circle r="3.257217961740854" cx="317.67641651103736" cy="362.4710270114469" opacity="0.6561361250538926"></circle><circle r="7.033585243632496" cx="270.09301097222976" cy="488.27607981702573" opacity="0.21209898548818712"></circle><circle r="8.385733390256052" cx="456.0083741318817" cy="532.1960837154494" opacity="0.33148954944054193"></circle><circle r="3.9307412456124555" cx="657.0825091213921" cy="105.48221359199653" opacity="0.7511019157106331"></circle><circle r="5.718398622215981" cx="168.51767814562209" cy="416.30083091848354" opacity="0.5462505704497073"></circle><circle r="5.6929052375540845" cx="341.48419630626756" cy="598.2135960161489" opacity="0.7611692846434638"></circle><circle r="8.38057116486995" cx="19.481396847243463" cy="499.2333378163115" opacity="0.9652223443476952"></circle><circle r="5.3450256848569" cx="305.5305514466016" cy="754.0141862005506" opacity="0.10164817643935173"></circle><circle r="4.302705684856797" cx="75.28069935790317" cy="228.80391965791" opacity="0.132788329773826"></circle><circle r="4.729395532799432" cx="376.40205891796313" cy="242.9073050671161" opacity="0.31899863786216254"></circle><circle r="4.880402305123998" cx="290.5977445284455" cy="277.0932865687669" opacity="0.7004588646592733"></circle><circle r="4.086882739001157" cx="196.71274446798398" cy="575.7654800369296" opacity="0.5651712464212939"></circle><circle r="7.502959845191182" cx="345.4355997169729" cy="695.6260302182513" opacity="0.776926899518873"></circle><circle r="3.5333387948416677" cx="624.6131267471808" cy="718.7770919464862" opacity="0.9512568738282503"></circle><circle r="5.88986119644982" cx="295.07727749501703" cy="414.267023985906" opacity="0.34813470794067736"></circle><circle r="5.801900633262509" cx="87.76046141892687" cy="197.14044869637758" opacity="0.4000385272171879"></circle><circle r="3.46714083569635" cx="14.578521619063126" cy="45.42815993357535" opacity="0.6529741043488956"></circle><circle r="5.432818365790528" cx="424.7689710443609" cy="605.9269457692158" opacity="0.24121757651471612"></circle><circle r="6.843906010519773" cx="81.02468868076915" cy="670.1891437087266" opacity="0.5269950893108971"></circle><circle r="4.672366417530255" cx="337.57400018512504" cy="37.491165054583135" opacity="0.9017524364833159"></circle><circle r="5.302402084332409" cx="95.96171018856283" cy="166.81028688521167" opacity="0.847994778867969"></circle><circle r="4.978641461052259" cx="251.72014992403186" cy="294.6567575053734" opacity="0.5570966697927193"></circle><circle r="3.4705061994410693" cx="229.83114846282672" cy="77.32745606250127" opacity="0.8991687960135623"></circle><circle r="5.0022309293173635" cx="387.5917559951976" cy="427.51500905169877" opacity="0.3108644456672506"></circle><circle r="6.047296691060709" cx="140.29502965818972" cy="136.73710702529854" opacity="0.9505478553356022"></circle><circle r="7.464664690018322" cx="51.45905187437053" cy="687.923847892996" opacity="0.7578275013266019"></circle><circle r="6.613752244691188" cx="297.71721023168175" cy="447.3633175590965" opacity="0.3887346963240572"></circle><circle r="2.110011716890461" cx="528.1286709381366" cy="409.9031298263821" opacity="0.8804551797857981"></circle><circle r="5.546841423480218" cx="130.92053042105235" cy="694.5311428664526" opacity="0.8932417024291616"></circle><circle r="6.121548002220169" cx="107.64503082291621" cy="117.58972747597417" opacity="0.3275300808576336"></circle><circle r="5.541654605455815" cx="358.9605530409882" cy="426.3812043392219" opacity="0.4288121108875671"></circle><circle r="5.687039146453246" cx="182.7079075240208" cy="639.3049803952651" opacity="0.40733871341866246"></circle><circle r="7.749656816828478" cx="509.9764540306864" cy="99.90428421401305" opacity="0.3963919279454011"></circle><circle r="5.050927707649565" cx="574.6605984918939" cy="621.9535830726106" opacity="0.5368965702548335"></circle><circle r="5.890380215780452" cx="486.8718412932872" cy="372.15706412584115" opacity="0.2916558344692031"></circle><circle r="3.6178336380201435" cx="86.21327635449457" cy="547.0663811661336" opacity="0.8075335503350581"></circle><circle r="8.251371902920287" cx="18.972908454766092" cy="536.8179479057317" opacity="0.7557765791686201"></circle><circle r="4.028821862933669" cx="272.54297775989596" cy="401.5720202550796" opacity="0.9517654705024695"></circle><circle r="7.473292592737896" cx="414.5290614779645" cy="476.72041040651726" opacity="0.604217479178485"></circle><circle r="6.7369508670950005" cx="139.2697214165079" cy="53.98662709268365" opacity="0.6287098353714955"></circle><circle r="4.908502325798051" cx="770.098852994962" cy="211.21600786395436" opacity="0.843576881951228"></circle><circle r="7.391036288493235" cx="448.98500051238034" cy="690.1972314372432" opacity="0.5052571474001296"></circle><circle r="3.86049368817488" cx="264.5503414054736" cy="681.325646496734" opacity="0.6167835343733294"></circle><circle r="2.9811869156632183" cx="363.1025497384899" cy="359.4324847364177" opacity="0.9395926051005978"></circle><circle r="2.4828142235789303" cx="9.542643950905493" cy="70.40751570876174" opacity="0.7845949309495063"></circle><circle r="6.48955747803866" cx="45.236350044415865" cy="729.0319467244251" opacity="0.2240335664434183"></circle><circle r="4.3381624469771785" cx="108.4619591307461" cy="525.7553921733638" opacity="0.429834870298327"></circle><circle r="5.588737755096938" cx="640.2720539395777" cy="537.9185417420074" opacity="0.3527110432467997"></circle><circle r="3.6354792473957147" cx="253.42083568513712" cy="654.4168352614741" opacity="0.38475871770304126"></circle><circle r="7.95870358726016" cx="597.5054459903281" cy="449.0894588033089" opacity="0.393951065893108"></circle><circle r="5.182661339121234" cx="603.3667598602786" cy="284.75240436727813" opacity="0.778720614836098"></circle><circle r="5.234354730390958" cx="460.66865130421775" cy="197.12022752907427" opacity="0.31440878931344185"></circle><circle r="6.527835539727377" cx="485.8362331958564" cy="771.6447696463383" opacity="0.3949461229654194"></circle><circle r="5.568275067001471" cx="71.17550763214771" cy="571.406369313123" opacity="0.742704481633647"></circle><circle r="2.849154811078604" cx="248.14536540953796" cy="569.4998682794467" opacity="0.8073936411673143"></circle><circle r="5.4015092499036825" cx="664.0086212711059" cy="758.961256256677" opacity="0.5690740351732273"></circle><circle r="5.929597423093389" cx="41.91167202673718" cy="115.36640397974398" opacity="0.573058593881285"></circle><circle r="7.581251731942002" cx="169.44218538160519" cy="157.80759952265012" opacity="0.10872235194735325"></circle><circle r="6.347784907837724" cx="466.3727892993569" cy="728.9668227465863" opacity="0.44046721597293637"></circle><circle r="4.215657123721574" cx="519.5396435765583" cy="732.1448981593614" opacity="0.667491778240472"></circle><circle r="4.953442050806825" cx="203.09687338640157" cy="123.32428434871004" opacity="0.16289855197820827"></circle><circle r="7.626713837095291" cx="125.02303568829977" cy="212.47071122814546" opacity="0.8230602534982303"></circle><circle r="5.969402041872362" cx="63.71204098631122" cy="293.4065779848874" opacity="0.9119074426008921"></circle><circle r="4.4878421205884305" cx="538.2161134941163" cy="731.6566136785274" opacity="0.4513616947797018"></circle><circle r="4.997698856764528" cx="654.118762307126" cy="577.2909554406287" opacity="0.1588164147426355"></circle><circle r="4.799751549670532" cx="57.57141094681455" cy="444.64450843630783" opacity="0.23106634145843033"></circle><circle r="5.561299392255765" cx="159.45514620916325" cy="671.8841388956993" opacity="0.9651883052270073"></circle><circle r="5.5523108422276435" cx="232.8258104890822" cy="135.6854528582446" opacity="0.4622387738499434"></circle><circle r="3.718268762749104" cx="383.117819024275" cy="366.72888532268183" opacity="0.4442793227127395"></circle><circle r="6.474661008717831" cx="638.0069301538807" cy="502.4620312117653" opacity="0.7232356352117334"></circle><circle r="7.703548608270888" cx="697.9325224482003" cy="751.8112392104422" opacity="0.33329204428782"></circle><circle r="7.437681960618295" cx="130.27386019892404" cy="20.735058794088737" opacity="0.1608538585372071"></circle><circle r="5.771734341329466" cx="738.6943281507524" cy="774.3487722337707" opacity="0.3547186777010266"></circle><circle r="4.0123332351102965" cx="760.1304726497602" cy="177.6552817001493" opacity="0.47428715035075153"></circle><circle r="5.644112995309092" cx="429.11164521492833" cy="644.7040493723424" opacity="0.6926000635116624"></circle><circle r="9.182510539760628" cx="126.40251293255261" cy="485.0141070631403" opacity="0.5523902133220785"></circle><circle r="6.382867653331202" cx="337.03463763012405" cy="257.4208428311326" opacity="0.7041715853691168"></circle><circle r="6.269708930680697" cx="335.94062110504774" cy="522.4239649836816" opacity="0.5502471251867616"></circle><circle r="6.581020353962845" cx="776.6497336361467" cy="635.2382785225999" opacity="0.213155123049155"></circle><circle r="8.916075883332898" cx="50.591409845186114" cy="332.90173270257833" opacity="0.10406284408007403"></circle><circle r="9.737556996000038" cx="590.8049647769797" cy="240.9114388444954" opacity="0.44638401888810864"></circle><circle r="3.954837861167376" cx="28.823127197343297" cy="81.3038734574533" opacity="0.5013120045613947"></circle><circle r="8.429878860968282" cx="694.6739501934484" cy="210.60214203038893" opacity="0.17858877826987785"></circle><circle r="5.158616691307687" cx="72.62088941665588" cy="739.6716742707109" opacity="0.7898095240997391"></circle><circle r="3.5724348378523025" cx="8.124396573023873" cy="633.0548814408066" opacity="0.45754810505313614"></circle><circle r="7.63285476760697" cx="279.55225551539417" cy="524.2605037480647" opacity="0.5818162246919385"></circle><circle r="5.833163607451919" cx="778.2735748709208" cy="33.110733870667325" opacity="0.4547702924949186"></circle><circle r="7.006460180401973" cx="402.75700300533055" cy="553.3166101701225" opacity="0.5039650904375899"></circle><circle r="7.566935933878519" cx="103.39778329294238" cy="312.9953876188111" opacity="0.8683863940384119"></circle><circle r="7.299594337188092" cx="218.86143694590137" cy="658.5671402034367" opacity="0.4892170035182871"></circle><circle r="5.0099527815264935" cx="344.05278848231677" cy="664.1326829123562" opacity="0.1530466221741397"></circle><circle r="7.713943619953852" cx="783.6931642970175" cy="560.7109372873781" opacity="0.7059964133277179"></circle><circle r="4.930973574567734" cx="544.0070426291552" cy="454.1224268576814" opacity="0.5840749476154244"></circle><circle r="4.7253193656943" cx="635.1958501843458" cy="424.65333752765883" opacity="0.570949687998144"></circle><circle r="8.434184237277659" cx="549.9530461584594" cy="533.2512511796014" opacity="0.7536281751298515"></circle><circle r="4.303960217618268" cx="721.0108463110647" cy="789.2054750306182" opacity="0.5283165552247521"></circle><circle r="6.826030840398989" cx="471.44752816654375" cy="499.17042561653744" opacity="0.8145260796395911"></circle><circle r="10.346780205299059" cx="581.217016008967" cy="198.7579294513209" opacity="0.1743936864572267"></circle><circle r="3.94040432591326" cx="592.6601872567173" cy="787.6588747246993" opacity="0.7256307132233399"></circle><circle r="4.229194846246976" cx="376.37330702606954" cy="147.09824905162188" opacity="0.6276845717294602"></circle><circle r="5.71528637782632" cx="96.14943471871226" cy="279.66599403943343" opacity="0.24817587667105875"></circle><circle r="3.411523168377216" cx="418.8395551749326" cy="337.433790948322" opacity="0.9278630489230342"></circle><circle r="5.590571964548745" cx="118.37512952634972" cy="566.4625920272726" opacity="0.5163165705437959"></circle><circle r="6.0672019097618755" cx="756.7278730888579" cy="231.52327970748857" opacity="0.9584388427721047"></circle><circle r="4.302791746224324" cx="787.4827967398949" cy="311.5183409458675" opacity="0.14905371594363748"></circle><circle r="5.182245123242813" cx="334.295625104087" cy="729.561975873084" opacity="0.5808144249244953"></circle><circle r="5.394377350652484" cx="110.75947409707213" cy="744.260782500851" opacity="0.13018751445382817"></circle><circle r="3.876526131108924" cx="212.4161731321707" cy="12.004087352418287" opacity="0.6480214863673337"></circle><circle r="5.442682438308269" cx="183.33262301778984" cy="787.0225505587357" opacity="0.3191537052315935"></circle><circle r="4.531125298007677" cx="283.2633349614625" cy="621.2691846800625" opacity="0.27751737683596256"></circle><circle r="4.775558640397749" cx="250.01632359919032" cy="232.08209093486795" opacity="0.8178082257474185"></circle><circle r="6.420431060853045" cx="641.1213925099274" cy="684.9951345482981" opacity="0.5897336846157724"></circle><circle r="4.277560788358671" cx="780.3189414906552" cy="278.1191271324465" opacity="0.215513102276227"></circle><circle r="8.88351934085928" cx="729.5945001131727" cy="484.7244567108002" opacity="0.62908704773941"></circle><circle r="5.351545189127863" cx="529.7836693829946" cy="295.5298042204026" opacity="0.26082915507163695"></circle><circle r="5.477230090250458" cx="340.5455235001928" cy="785.640611858223" opacity="0.39036939278496385"></circle><circle r="8.436284922038213" cx="261.117762716155" cy="18.01753047129493" opacity="0.1743139126855932"></circle><circle r="3.3950549506749095" cx="360.1694214522738" cy="728.7824266396934" opacity="0.37626625063978625"></circle><circle r="4.585087321210981" cx="254.7667805375997" cy="160.50668103038822" opacity="0.8126805382815896"></circle><circle r="6.463428763858484" cx="784.9661298771249" cy="704.0074931648769" opacity="0.8161732262176082"></circle><circle r="7.525029193760911" cx="760.3416945583698" cy="506.35580926399956" opacity="0.9704261411463014"></circle><circle r="7.392443423469075" cx="330.0915385190506" cy="636.1800961689637" opacity="0.5567917815643548"></circle><circle r="5.737420061234655" cx="702.8926372324378" cy="430.5231865451327" opacity="0.4417172636741107"></circle><circle r="4.207487042176482" cx="360.1801614303406" cy="16.3246386440393" opacity="0.24676439671090875"></circle><circle r="3.8954946507189776" cx="377.1323391425293" cy="788.2684834025478" opacity="0.7813285411417499"></circle><circle r="5.148820616483679" cx="778.693672066894" cy="764.9779219151657" opacity="0.4404819351306434"></circle><circle r="4.607483436514872" cx="218.6525402375472" cy="557.2011132717234" opacity="0.6059129987597989"></circle><circle r="4.469231128039836" cx="457.2699540403996" cy="652.5859073468489" opacity="0.30587557420501255"></circle><circle r="5.523256292011469" cx="192.39493614327606" cy="537.2227072734166" opacity="0.2849518363024955"></circle><circle r="6.240254851290084" cx="370.2216809584087" cy="592.0030826269672" opacity="0.8954705672446057"></circle><circle r="6.338820182838001" cx="562.5577465248335" cy="266.0086743802841" opacity="0.13013698336571125"></circle><circle r="5.860200858504974" cx="135.7783088507193" cy="277.2889283885217" opacity="0.6429275432942719"></circle><circle r="4.017212256622133" cx="51.90998341660121" cy="222.95220399199368" opacity="0.9308342025926745"></circle><circle r="5.016600135231384" cx="683.7029032103753" cy="512.8509410505598" opacity="0.8324726417453476"></circle><circle r="5.4832317385506695" cx="394.93648040226" cy="22.01049637129592" opacity="0.6156326446121788"></circle><circle r="5.539282722555822" cx="379.8509494078014" cy="758.7613152374531" opacity="0.5106518198506603"></circle><circle r="8.631271734258295" cx="527.5037447810053" cy="219.64584478241514" opacity="0.49845491361011174"></circle><circle r="3.3391199038672608" cx="713.3751508652927" cy="579.422221812222" opacity="0.7412267728053966"></circle><circle r="6.037685340462548" cx="132.89209896241314" cy="310.78531805530145" opacity="0.239176305272951"></circle><circle r="4.024290381865617" cx="724.2826385884739" cy="173.98418832181756" opacity="0.4002250548131885"></circle><circle r="6.693631093657061" cx="588.82942723215" cy="515.3514366946092" opacity="0.5338524970345548"></circle><circle r="6.664601169282829" cx="634.0211384744289" cy="600.2384140528143" opacity="0.5662200650113204"></circle><circle r="3.541693748043935" cx="775.1302509846583" cy="789.062872248601" opacity="0.6896345450613507"></circle><circle r="6.183608980651864" cx="34.07279494916669" cy="157.68736694271868" opacity="0.5667425704361619"></circle><circle r="5.8857792698340585" cx="513.7833693004192" cy="655.2951641795593" opacity="0.5480113292284404"></circle><circle r="1.544050821636453" cx="794.4920956417384" cy="259.9385573696551" opacity="0.9937768885099446"></circle><circle r="4.230405431336491" cx="739.5571281890969" cy="553.2451405324016" opacity="0.356404611372899"></circle><circle r="5.102320953606942" cx="493.9781043111123" cy="42.068747184738996" opacity="0.6120806952525605"></circle><circle r="4.960596174382884" cx="276.1512075709017" cy="555.3465837317859" opacity="0.4706143880251856"></circle><circle r="3.5751725154315426" cx="137.33319206991723" cy="528.9896539272504" opacity="0.329614543619021"></circle><circle r="7.18743840102192" cx="338.6270310382786" cy="292.3391696327502" opacity="0.6958663954232345"></circle><circle r="3.3097141623419577" cx="737.8021382117834" cy="122.846189110857" opacity="0.7542146400939079"></circle><circle r="5.003626444957274" cx="274.8858240234749" cy="240.44166496269506" opacity="0.676064842640918"></circle><circle r="5.7413954553723725" cx="683.799813820585" cy="454.064491094636" opacity="0.32644377501102867"></circle><circle r="4.449518194957054" cx="261.9959003813098" cy="757.0764306517511" opacity="0.24993832750986159"></circle><circle r="4.151397094469384" cx="667.9150956622896" cy="420.5518189619082" opacity="0.7280871038664106"></circle><circle r="4.95993044439544" cx="239.29002743356563" cy="183.04023802532612" opacity="0.6926890864552397"></circle><circle r="4.852931998038822" cx="602.0563941378687" cy="607.605862559044" opacity="0.9780450489657453"></circle><circle r="7.78503579870571" cx="14.288448650378115" cy="750.8917509992508" opacity="0.40214930490326506"></circle><circle r="2.975053218394941" cx="421.7034173062389" cy="177.4535474636373" opacity="0.40648438718116764"></circle><circle r="8.875595385409612" cx="130.25968846996696" cy="353.4251828108265" opacity="0.9732445074826671"></circle><circle r="7.426665644066087" cx="372.2393011014721" cy="494.6263849894856" opacity="0.8117789131780155"></circle><circle r="4.033739175712963" cx="328.53307569184835" cy="331.4668325489453" opacity="0.4461375185055524"></circle><circle r="7.6576354842694805" cx="471.5567783027259" cy="440.2693001884114" opacity="0.6375489813767575"></circle><circle r="5.911313761281248" cx="21.141344361082858" cy="605.6542164920135" opacity="0.9408529436933077"></circle><circle r="6.127532403357655" cx="74.10531656662342" cy="39.12608715619813" opacity="0.6690222030482449"></circle><circle r="8.932660461513628" cx="157.73396327250248" cy="586.5938407581715" opacity="0.46776147166091875"></circle><circle r="7.3290352604120095" cx="553.3339514083377" cy="603.4521531829645" opacity="0.22445047654516478"></circle><circle r="5.40203649052853" cx="529.328107639933" cy="254.67346030015403" opacity="0.49060907158429434"></circle><circle r="5.79590325456539" cx="119.84624287104383" cy="782.8633664787044" opacity="0.850910206801332"></circle><circle r="5.844166831293622" cx="88.75628370859768" cy="707.4094141655643" opacity="0.695621259628589"></circle><circle r="3.2977213391685822" cx="754.2004686116583" cy="151.69752968324258" opacity="0.18759141309419397"></circle><circle r="5.7477072761220125" cx="355.31349550365195" cy="760.7536099805113" opacity="0.41409383515181186"></circle><circle r="6.029184986858361" cx="351.6749947729832" cy="167.90803324557305" opacity="0.37256022897080565"></circle><circle r="4.174996873171773" cx="11.207609766432565" cy="261.7144337881997" opacity="0.2119102478183788"></circle><circle r="6.755342150569227" cx="162.77767852364602" cy="517.1405626965768" opacity="0.6601854146772482"></circle><circle r="6.293826585202543" cx="288.5728789958969" cy="54.87444193281506" opacity="0.46355240428361555"></circle><circle r="6.271087219703283" cx="140.55905635044104" cy="94.2920200825638" opacity="0.37957354899103257"></circle><circle r="6.465332581616078" cx="415.51721051200354" cy="513.1737628783286" opacity="0.9976140135509243"></circle><circle r="6.065853420740308" cx="321.21356411455287" cy="72.11941240240017" opacity="0.849436269941223"></circle><circle r="6.351904670510737" cx="298.1090036583569" cy="136.82528446722483" opacity="0.9287505031035536"></circle><circle r="4.2901985597582515" cx="630.9600107247896" cy="750.3784306614453" opacity="0.339890030034657"></circle><circle r="4.7038869628791815" cx="598.301165925519" cy="680.6036334206201" opacity="0.586153475850443"></circle><circle r="7.730227274971956" cx="326.51473157721745" cy="436.5168680399546" opacity="0.12474414220782275"></circle><circle r="5.669568266789486" cx="307.4001502728209" cy="254.01395613654992" opacity="0.6853463742702701"></circle><circle r="4.676718268945587" cx="480.9844430999308" cy="682.6371155450289" opacity="0.9207938702775741"></circle><circle r="6.719031017203692" cx="167.68453028403235" cy="553.8025664143466" opacity="0.757078131270217"></circle><circle r="3.8451884708294246" cx="671.1534609722551" cy="125.38542313158469" opacity="0.8131770245882728"></circle><circle r="6.854256075020228" cx="486.3657436937166" cy="642.5844363027112" opacity="0.8739968579812716"></circle><circle r="6.7487212911884225" cx="336.06145770607935" cy="483.89670597724137" opacity="0.5333570380889322"></circle><circle r="6.305948332871178" cx="330.87688575549697" cy="137.7295529284802" opacity="0.2605195087697339"></circle><circle r="9.071876436917805" cx="435.000888310652" cy="564.7784396412447" opacity="0.3791435677340994"></circle><circle r="5.79084372589183" cx="525.0296377633746" cy="326.0263279275866" opacity="0.9255189474005009"></circle><circle r="4.762880942805611" cx="83.0940244502186" cy="138.04880864152392" opacity="0.11227750289158858"></circle><circle r="5.38936593658273" cx="633.9413343649652" cy="113.66777641695015" opacity="0.6835220137562289"></circle><circle r="4.486729547567158" cx="765.3928481790258" cy="432.6134144510498" opacity="0.6226605943298016"></circle><circle r="8.065457072298802" cx="432.9979250397215" cy="747.0487778710781" opacity="0.10137360412972377"></circle><circle r="4.7489495457827875" cx="371.5344152612224" cy="530.2184625062789" opacity="0.44474737617340865"></circle><circle r="4.2206522432998295" cx="706.4404677388069" cy="602.1474503627238" opacity="0.41700035020496984"></circle><circle r="5.346528572690651" cx="731.6019920635977" cy="279.0681548121967" opacity="0.6304527730838081"></circle><circle r="5.223437043275008" cx="240.68722003811237" cy="506.863503036308" opacity="0.6883740324737826"></circle><circle r="6.059888374435438" cx="255.88686432629146" cy="603.7665960986399" opacity="0.6036134124527075"></circle><circle r="3.6902876118755987" cx="584.9128444733697" cy="718.0924289624172" opacity="0.4922559411177757"></circle><circle r="4.411029648753009" cx="28.71256616344546" cy="16.265969161281763" opacity="0.5816418459968535"></circle><circle r="3.098891301239348" cx="351.58774742579556" cy="403.30037925761303" opacity="0.9181367973573995"></circle><circle r="4.524941761944092" cx="737.5630948019455" cy="247.0439336817057" opacity="0.3870966200974725"></circle><circle r="5.047350728332285" cx="715.7400241432051" cy="546.5257617095929" opacity="0.20830797559305503"></circle><circle r="6.710171642300848" cx="77.46063603979545" cy="502.73701315002336" opacity="0.23040116178323464"></circle><circle r="3.2495123675886735" cx="23.71672437869712" cy="640.172063232422" opacity="0.35502595048693686"></circle><circle r="6.017109650789135" cx="781.0311203999638" cy="528.1268541729828" opacity="0.520229756013016"></circle><circle r="8.359829937832632" cx="403.0997817803959" cy="669.3158809005713" opacity="0.3297546220749095"></circle><circle r="6.717125981415958" cx="243.10394304883255" cy="97.26368334579975" opacity="0.6067728252491157"></circle><circle r="4.636305872531758" cx="218.0711534704575" cy="786.281714073535" opacity="0.2389628786408642"></circle><circle r="4.235980183701718" cx="283.1568162650026" cy="309.73839561392714" opacity="0.528111333885588"></circle><circle r="6.223347756439295" cx="782.128030702191" cy="596.946338290475" opacity="0.89936480247846"></circle><circle r="8.670459407870357" cx="378.70716051820926" cy="702.8199242017314" opacity="0.40769606437238226"></circle><circle r="7.592292232226207" cx="419.30620016270524" cy="265.46712082429633" opacity="0.547044377859358"></circle><circle r="4.648728051813947" cx="40.36251179450469" cy="634.5518037540222" opacity="0.9232098140182935"></circle><circle r="4.799397340398909" cx="245.21298609944841" cy="541.7185945361954" opacity="0.2487421966348171"></circle><circle r="4.626564929953069" cx="427.9295489857909" cy="198.77929175309964" opacity="0.515050921261546"></circle><circle r="3.486125955088668" cx="239.48356645103217" cy="356.7931707748149" opacity="0.9751719406974666"></circle><circle r="5.566464390273421" cx="319.17683144556884" cy="606.591239535175" opacity="0.25163991593477486"></circle><circle r="4.815895750050701" cx="419.1285144110561" cy="704.7775049063957" opacity="0.19986541042568262"></circle><circle r="4.06499112692944" cx="507.2621727082528" cy="9.779363185747773" opacity="0.42267545024847164"></circle><circle r="5.295149590868089" cx="584.5220678476776" cy="549.5023264265861" opacity="0.878322460817601"></circle><circle r="3.744857576369713" cx="397.47770689024674" cy="393.2042563364204" opacity="0.2616637594257105"></circle><circle r="6.408795881717124" cx="675.4806697676615" cy="606.4709907218358" opacity="0.6404192882296584"></circle><circle r="5.95371290093791" cx="730.6625696842616" cy="749.0898516985955" opacity="0.6851383198544071"></circle><circle r="4.6380223552501665" cx="71.4337052505536" cy="255.319652189488" opacity="0.5331737360555876"></circle><circle r="5.237890342901006" cx="416.23450212092365" cy="439.0958324730486" opacity="0.7677168563488111"></circle><circle r="4.193104334134556" cx="762.6308908110242" cy="128.0984228981213" opacity="0.20961339797459524"></circle><circle r="5.788717416027695" cx="32.380601532903114" cy="781.1791778616913" opacity="0.5898954069300316"></circle><circle r="6.943115784657262" cx="158.91899307583193" cy="444.9319714971277" opacity="0.3101161303605753"></circle><circle r="4.219885135985674" cx="696.3849440915782" cy="481.92006189845034" opacity="0.6523509827896666"></circle><circle r="6.732106452919607" cx="42.34173160405561" cy="374.5209627976695" opacity="0.40438748424145954"></circle><circle r="9.985422494009597" cx="21.90013288365887" cy="304.38483987616326" opacity="0.4425738265891237"></circle><circle r="3.402854852004343" cx="56.81493183728218" cy="14.368937822326727" opacity="0.8118415721227198"></circle><circle r="5.279660050037526" cx="664.1503857037766" cy="491.28800482421394" opacity="0.4187766965349973"></circle><circle r="5.541818046012379" cx="238.09405496987338" cy="210.0600734612679" opacity="0.24630703550286356"></circle><circle r="4.393093791773507" cx="658.2681241706499" cy="64.55909376816122" opacity="0.28126685143915925"></circle><circle r="4.509549131858548" cx="520.3300836115634" cy="392.0004551112531" opacity="0.21242560564814011"></circle><circle r="5.343032816961159" cx="205.47522040767478" cy="94.91059557631968" opacity="0.6741003701510268"></circle><circle r="4.189302129682528" cx="452.13966148524065" cy="335.17572007135374" opacity="0.12667493680654238"></circle><circle r="7.4158291349646035" cx="536.5033769235771" cy="488.94332972286475" opacity="0.8536815711961672"></circle><circle r="3.8855183733238556" cx="579.1906884620756" cy="659.466498511297" opacity="0.550237963197708"></circle><circle r="6.60355101316871" cx="571.9611798" cy="148.13717785013256" opacity="0.4391255018787429"></circle><circle r="5.938552016195767" cx="88.66120595511174" cy="630.7149335895087" opacity="0.14460094475076687"></circle><circle r="3.1712055178617944" cx="748.5972556790374" cy="290.7550351015802" opacity="0.8655281697138715"></circle><circle r="6.879278205013526" cx="245.0532956599158" cy="47.51063923112332" opacity="0.933554339818258"></circle><circle r="4.2953504322198075" cx="629.0985419977417" cy="628.5427923207664" opacity="0.20610951372403286"></circle><circle r="6.514479960602237" cx="704.7389580988275" cy="285.3529924208859" opacity="0.8145335262543254"></circle><circle r="6.547302395864274" cx="133.80238719854327" cy="176.78311695807633" opacity="0.7046853241222254"></circle><circle r="4.628310943636398" cx="606.6000952115567" cy="762.9776272941399" opacity="0.748363320301173"></circle><circle r="6.365504876250366" cx="392.84538735272173" cy="73.87587414357279" opacity="0.8721968376265411"></circle><circle r="6.5757926219433385" cx="492.0520726414234" cy="202.27718390717723" opacity="0.953965843199627"></circle><circle r="5.067607037820725" cx="364.2321586246242" cy="123.87555609904656" opacity="0.7661752118125555"></circle><circle r="4.101621851799222" cx="492.1701178530751" cy="77.06994353756147" opacity="0.6190931461377424"></circle><circle r="4.8402172796181375" cx="350.0517412084763" cy="231.47853242083187" opacity="0.5941887327252519"></circle><circle r="5.432295495361809" cx="219.41308237786504" cy="331.2792901801806" opacity="0.3655488567751558"></circle><circle r="5.306931723780611" cx="725.6008770790547" cy="440.6701147469335" opacity="0.8268206647850096"></circle><circle r="7.653669595928015" cx="774.8418957053485" cy="672.708231924185" opacity="0.9396434626307436"></circle><circle r="5.984759228387813" cx="265.6513665248545" cy="449.7501816849722" opacity="0.974804766042238"></circle><circle r="4.881350355656968" cx="743.5316188357418" cy="606.6234969260083" opacity="0.7853415015661412"></circle><circle r="2.1965709819602894" cx="612.9993141972909" cy="645.3270222285207" opacity="0.8304838160346916"></circle><circle r="5.317647101899272" cx="251.41795689774688" cy="322.07796030122074" opacity="0.5916173797375648"></circle><circle r="5.494461196644527" cx="59.67384454813628" cy="647.9305745892724" opacity="0.18065158936181272"></circle><circle r="5.718531270129821" cx="579.834334551884" cy="580.7392588867752" opacity="0.7915282863826278"></circle><circle r="8.399431751413632" cx="100.10727623476072" cy="457.4143404441283" opacity="0.7805923637000056"></circle><circle r="7.0310261461944865" cx="725.8764127740077" cy="46.88698243780619" opacity="0.693295509393296"></circle><circle r="6.507081096872907" cx="18.365382508332974" cy="711.2112884570096" opacity="0.93791384908152"></circle><circle r="5.186251869432445" cx="512.6004180769047" cy="452.9374933954634" opacity="0.7227882800487122"></circle><circle r="6.786326335207521" cx="523.1932206324376" cy="780.0976788435939" opacity="0.6324192417072424"></circle><circle r="3.986285413879599" cx="554.9286898766771" cy="352.1170325422036" opacity="0.8420294994901597"></circle><circle r="6.685122289693509" cx="305.5157281265685" cy="507.29966159206805" opacity="0.7258674412066669"></circle><circle r="5.267136385102809" cx="249.2565043608042" cy="379.24180660494005" opacity="0.3344310384646948"></circle><circle r="6.2915228748074385" cx="618.7884567618142" cy="563.6025341581015" opacity="0.8402845571367403"></circle><circle r="4.198128371762646" cx="765.4991217928791" cy="302.0929338809692" opacity="0.5988329616324383"></circle><circle r="3.4462854376819263" cx="274.738221204838" cy="586.6784597607891" opacity="0.5502154379625149"></circle><circle r="5.501493026841185" cx="353.2424574860828" cy="324.9905081269493" opacity="0.4668184198035894"></circle><circle r="4.89926331776272" cx="363.28081696730356" cy="95.70913855000134" opacity="0.6401641821717937"></circle><circle r="3.40354081474642" cx="499.1335883957539" cy="419.6618935762494" opacity="0.9968776537092916"></circle><circle r="6.588255367103925" cx="514.2130407399457" cy="687.3702838531395" opacity="0.7353454834975688"></circle><circle r="6.3541520704690635" cx="164.67865722658695" cy="475.81352850513906" opacity="0.41319665837057273"></circle><circle r="6.452925987929434" cx="13.292632512668362" cy="354.4334749347716" opacity="0.3705550154973316"></circle><circle r="4.5130653382188495" cx="381.4553255035438" cy="332.7380110673234" opacity="0.7320104174449082"></circle><circle r="8.408501303686084" cx="647.9046589682553" cy="193.6000448878232" opacity="0.7288522723819432"></circle><circle r="4.441953869830217" cx="303.3455535732287" cy="335.35416811901206" opacity="0.3072842951408099"></circle><circle r="8.80171183902318" cx="395.933241798764" cy="628.3720140674609" opacity="0.9988816791497358"></circle><circle r="6.3586712343147855" cx="11.235513962517365" cy="120.57948035544582" opacity="0.6643712500973765"></circle><circle r="3.056259201983395" cx="774.5685854901129" cy="254.27112188604738" opacity="0.5924162892468635"></circle><circle r="4.603996991954655" cx="788.6198324198847" cy="94.62433605771004" opacity="0.2920244234720108"></circle></g></svg>